<svg xmlns="http://www.w3.org/2000/svg" width="1600" height="2560" viewBox="0 0 1600 2560">
  <defs><filter id="hf-soft" x="-10%" y="-10%" width="120%" height="120%"><feGaussianBlur stdDeviation="0.8"/></filter></defs>
  <rect width="1600" height="2560" fill="#16181A"/>
  <g filter="url(#hf-soft)" fill="none" stroke="#A7895C" stroke-linecap="round"><path d="M118.6 27.3 L117.7 20.4 M117.7 20.4 L114.9 16.5 M114.9 16.5 L112.0 15.2 M112.0 15.2 L109.8 15.3 M112.0 15.2 L110.6 13.4 M114.9 16.5 L114.5 13.3 M114.5 13.3 L113.1 11.6 M114.5 13.3 L115.2 11.3 M117.7 20.4 L119.4 15.9 M119.4 15.9 L119.0 12.7 M119.0 12.7 L117.7 11.0 M119.0 12.7 L119.8 10.7 M119.4 15.9 L121.9 13.8 M121.9 13.8 L122.7 11.8 M121.9 13.8 L124.0 13.4 M260.7 32.4 L267.1 35.3 M267.1 35.3 L271.8 35.0 M271.8 35.0 L274.6 33.3 M274.6 33.3 L275.6 31.4 M274.6 33.3 L276.8 33.1 M271.8 35.0 L274.8 36.4 M274.8 36.4 L277.0 36.2 M274.8 36.4 L276.1 38.1 M267.1 35.3 L269.9 39.1 M269.9 39.1 L272.8 40.5 M272.8 40.5 L275.0 40.4 M272.8 40.5 L274.2 42.3 M269.9 39.1 L270.3 42.4 M270.3 42.4 L271.7 44.1 M270.3 42.4 L269.6 44.4 M480.0 88.8 L474.0 85.3 M474.0 85.3 L469.2 85.1 M469.2 85.1 L466.3 86.5 M466.3 86.5 L465.1 88.4 M466.3 86.5 L464.1 86.5 M469.2 85.1 L466.4 83.4 M466.4 83.4 L464.2 83.4 M466.4 83.4 L465.3 81.6 M474.0 85.3 L471.5 81.2 M471.5 81.2 L468.7 79.5 M468.7 79.5 L466.5 79.4 M468.7 79.5 L467.6 77.6 M471.5 81.2 L471.4 77.9 M471.4 77.9 L470.3 76.0 M471.4 77.9 L472.4 76.0 M620.4 44.4 L613.6 43.1 M613.6 43.1 L609.0 44.5 M609.0 44.5 L606.8 46.9 M606.8 46.9 L606.2 49.0 M606.8 46.9 L604.7 47.5 M609.0 44.5 L605.8 43.9 M605.8 43.9 L603.7 44.6 M605.8 43.9 L604.2 42.5 M613.6 43.1 L609.9 40.0 M609.9 40.0 L606.7 39.4 M606.7 39.4 L604.6 40.1 M606.7 39.4 L605.0 38.0 M609.9 40.0 L608.7 37.0 M608.7 37.0 L607.0 35.6 M608.7 37.0 L609.0 34.9 M768.0 98.7 L774.5 101.4 M774.5 101.4 L779.2 100.9 M779.2 100.9 L781.9 99.1 M781.9 99.1 L782.9 97.1 M781.9 99.1 L784.1 98.8 M779.2 100.9 L782.2 102.2 M782.2 102.2 L784.4 101.9 M782.2 102.2 L783.6 103.9 M774.5 101.4 L777.5 105.1 M777.5 105.1 L780.5 106.4 M780.5 106.4 L782.6 106.1 M780.5 106.4 L781.8 108.1 M777.5 105.1 L778.0 108.3 M778.0 108.3 L779.4 110.0 M778.0 108.3 L777.3 110.4 M936.6 33.6 L934.5 26.9 M934.5 26.9 L931.1 23.6 M931.1 23.6 L927.9 22.7 M927.9 22.7 L925.8 23.2 M927.9 22.7 L926.4 21.2 M931.1 23.6 L930.1 20.5 M930.1 20.5 L928.5 18.9 M930.1 20.5 L930.5 18.3 M934.5 26.9 L935.4 22.2 M935.4 22.2 L934.5 19.1 M934.5 19.1 L932.9 17.6 M934.5 19.1 L934.9 17.0 M935.4 22.2 L937.5 19.7 M937.5 19.7 L937.9 17.6 M937.5 19.7 L939.6 18.9 M1184.4 88.2 L1188.2 82.3 M1188.2 82.3 L1188.5 77.5 M1188.5 77.5 L1187.2 74.6 M1187.2 74.6 L1185.4 73.3 M1187.2 74.6 L1187.3 72.4 M1188.5 77.5 L1190.3 74.8 M1190.3 74.8 L1190.4 72.6 M1190.3 74.8 L1192.2 73.7 M1188.2 82.3 L1192.4 80.0 M1192.4 80.0 L1194.1 77.3 M1194.1 77.3 L1194.3 75.1 M1194.1 77.3 L1196.0 76.2 M1192.4 80.0 L1195.6 80.0 M1195.6 80.0 L1197.5 78.9 M1195.6 80.0 L1197.5 81.0 M1373.0 144.2 L1379.9 143.2 M1379.9 143.2 L1383.7 140.3 M1383.7 140.3 L1385.1 137.3 M1385.1 137.3 L1384.9 135.1 M1385.1 137.3 L1386.8 136.0 M1383.7 140.3 L1386.9 139.8 M1386.9 139.8 L1388.7 138.5 M1386.9 139.8 L1389.0 140.6 M1379.9 143.2 L1384.4 144.8 M1384.4 144.8 L1387.6 144.3 M1387.6 144.3 L1389.4 143.0 M1387.6 144.3 L1389.7 145.1 M1384.4 144.8 L1386.5 147.2 M1386.5 147.2 L1388.6 148.0 M1386.5 147.2 L1387.0 149.4 M1487.3 117.9 L1491.2 112.1 M1491.2 112.1 L1491.6 107.4 M1491.6 107.4 L1490.3 104.4 M1490.3 104.4 L1488.6 103.0 M1490.3 104.4 L1490.5 102.2 M1491.6 107.4 L1493.4 104.7 M1493.4 104.7 L1493.6 102.5 M1493.4 104.7 L1495.4 103.7 M1491.2 112.1 L1495.4 109.9 M1495.4 109.9 L1497.2 107.2 M1497.2 107.2 L1497.4 105.0 M1497.2 107.2 L1499.2 106.2 M1495.4 109.9 L1498.6 110.0 M1498.6 110.0 L1500.6 109.0 M1498.6 110.0 L1500.5 111.1 M673.2 247.9 L667.1 244.5 M667.1 244.5 L662.3 244.5 M662.3 244.5 L659.5 246.0 M659.5 246.0 L658.3 247.8 M659.5 246.0 L657.3 246.0 M662.3 244.5 L659.5 242.9 M659.5 242.9 L657.3 242.9 M659.5 242.9 L658.3 241.0 M667.1 244.5 L664.6 240.5 M664.6 240.5 L661.7 238.9 M661.7 238.9 L659.5 238.9 M661.7 238.9 L660.6 237.1 M664.6 240.5 L664.4 237.3 M664.4 237.3 L663.2 235.4 M664.4 237.3 L665.3 235.3 M1363.4 205.0 L1356.9 202.5 M1356.9 202.5 L1352.2 203.1 M1352.2 203.1 L1349.6 205.0 M1349.6 205.0 L1348.6 207.0 M1349.6 205.0 L1347.4 205.3 M1352.2 203.1 L1349.2 201.9 M1349.2 201.9 L1347.0 202.2 M1349.2 201.9 L1347.7 200.2 M1356.9 202.5 L1353.8 198.8 M1353.8 198.8 L1350.8 197.7 M1350.8 197.7 L1348.6 198.0 M1350.8 197.7 L1349.4 196.0 M1353.8 198.8 L1353.2 195.7 M1353.2 195.7 L1351.8 194.0 M1353.2 195.7 L1353.8 193.6 M1444.7 271.3 L1448.2 277.3 M1448.2 277.3 L1452.3 279.8 M1452.3 279.8 L1455.5 279.9 M1455.5 279.9 L1457.5 278.9 M1455.5 279.9 L1457.4 281.0 M1452.3 279.8 L1453.9 282.6 M1453.9 282.6 L1455.8 283.7 M1453.9 282.6 L1454.0 284.8 M1448.2 277.3 L1448.4 282.1 M1448.4 282.1 L1450.0 284.9 M1450.0 284.9 L1451.9 286.0 M1450.0 284.9 L1450.1 287.1 M1448.4 282.1 L1446.9 285.0 M1446.9 285.0 L1447.0 287.2 M1446.9 285.0 L1445.1 286.2 M1370.6 506.5 L1376.8 509.8 M1376.8 509.8 L1381.6 509.7 M1381.6 509.7 L1384.4 508.2 M1384.4 508.2 L1385.6 506.3 M1384.4 508.2 L1386.6 508.1 M1381.6 509.7 L1384.4 511.3 M1384.4 511.3 L1386.6 511.2 M1384.4 511.3 L1385.7 513.1 M1376.8 509.8 L1379.4 513.8 M1379.4 513.8 L1382.3 515.3 M1382.3 515.3 L1384.5 515.3 M1382.3 515.3 L1383.5 517.1 M1379.4 513.8 L1379.7 517.0 M1379.7 517.0 L1380.9 518.8 M1379.7 517.0 L1378.8 519.0 M1533.4 439.4 L1540.2 441.0 M1540.2 441.0 L1544.8 439.8 M1544.8 439.8 L1547.1 437.6 M1547.1 437.6 L1547.8 435.5 M1547.1 437.6 L1549.2 437.0 M1544.8 439.8 L1547.9 440.6 M1547.9 440.6 L1550.0 440.0 M1547.9 440.6 L1549.5 442.1 M1540.2 441.0 L1543.7 444.2 M1543.7 444.2 L1546.8 445.0 M1546.8 445.0 L1548.9 444.4 M1546.8 445.0 L1548.4 446.5 M1543.7 444.2 L1544.7 447.3 M1544.7 447.3 L1546.4 448.8 M1544.7 447.3 L1544.4 449.5 M1506.2 647.2 L1512.8 645.0 M1512.8 645.0 L1516.0 641.5 M1516.0 641.5 L1516.8 638.4 M1516.8 638.4 L1516.3 636.3 M1516.8 638.4 L1518.3 636.8 M1516.0 641.5 L1519.1 640.5 M1519.1 640.5 L1520.6 638.9 M1519.1 640.5 L1521.3 640.9 M1512.8 645.0 L1517.5 645.9 M1517.5 645.9 L1520.5 644.8 M1520.5 644.8 L1522.0 643.2 M1520.5 644.8 L1522.7 645.2 M1517.5 645.9 L1520.0 647.9 M1520.0 647.9 L1522.2 648.3 M1520.0 647.9 L1520.8 649.9 M1399.1 891.0 L1394.3 896.1 M1394.3 896.1 L1393.1 900.7 M1393.1 900.7 L1393.9 903.8 M1393.9 903.8 L1395.4 905.5 M1393.9 903.8 L1393.3 906.0 M1393.1 900.7 L1390.9 903.1 M1390.9 903.1 L1390.3 905.2 M1390.9 903.1 L1388.8 903.8 M1394.3 896.1 L1389.8 897.6 M1389.8 897.6 L1387.6 899.9 M1387.6 899.9 L1387.0 902.1 M1387.6 899.9 L1385.5 900.6 M1389.8 897.6 L1386.6 897.0 M1386.6 897.0 L1384.5 897.7 M1386.6 897.0 L1384.9 895.6 M1576.0 834.4 L1574.9 841.3 M1574.9 841.3 L1576.4 845.8 M1576.4 845.8 L1578.8 847.9 M1578.8 847.9 L1581.0 848.5 M1578.8 847.9 L1579.5 850.0 M1576.4 845.8 L1575.9 849.0 M1575.9 849.0 L1576.6 851.0 M1575.9 849.0 L1574.5 850.7 M1574.9 841.3 L1571.9 845.0 M1571.9 845.0 L1571.4 848.2 M1571.4 848.2 L1572.1 850.3 M1571.4 848.2 L1570.0 849.9 M1571.9 845.0 L1568.9 846.3 M1568.9 846.3 L1567.6 848.0 M1568.9 846.3 L1566.8 846.1 M1207.1 943.1 L1206.4 950.0 M1206.4 950.0 L1208.2 954.4 M1208.2 954.4 L1210.8 956.4 M1210.8 956.4 L1212.9 956.8 M1210.8 956.4 L1211.6 958.4 M1208.2 954.4 L1207.9 957.6 M1207.9 957.6 L1208.8 959.7 M1207.9 957.6 L1206.7 959.4 M1206.4 950.0 L1203.7 953.9 M1203.7 953.9 L1203.4 957.2 M1203.4 957.2 L1204.2 959.2 M1203.4 957.2 L1202.1 959.0 M1203.7 953.9 L1200.8 955.4 M1200.8 955.4 L1199.6 957.2 M1200.8 955.4 L1198.6 955.4 M1380.4 948.5 L1381.2 941.5 M1381.2 941.5 L1379.4 937.1 M1379.4 937.1 L1376.9 935.1 M1376.9 935.1 L1374.7 934.7 M1376.9 935.1 L1376.1 933.0 M1379.4 937.1 L1379.8 933.9 M1379.8 933.9 L1378.9 931.9 M1379.8 933.9 L1381.0 932.1 M1381.2 941.5 L1383.9 937.7 M1383.9 937.7 L1384.3 934.4 M1384.3 934.4 L1383.5 932.4 M1384.3 934.4 L1385.6 932.6 M1383.9 937.7 L1386.8 936.2 M1386.8 936.2 L1388.1 934.4 M1386.8 936.2 L1389.0 936.3 M1500.9 1059.8 L1507.2 1056.7 M1507.2 1056.7 L1509.9 1052.9 M1509.9 1052.9 L1510.3 1049.6 M1510.3 1049.6 L1509.5 1047.6 M1510.3 1049.6 L1511.5 1047.8 M1509.9 1052.9 L1512.8 1051.4 M1512.8 1051.4 L1514.1 1049.6 M1512.8 1051.4 L1515.0 1051.5 M1507.2 1056.7 L1511.9 1057.0 M1511.9 1057.0 L1514.8 1055.5 M1514.8 1055.5 L1516.1 1053.7 M1514.8 1055.5 L1517.0 1055.6 M1511.9 1057.0 L1514.7 1058.6 M1514.7 1058.6 L1516.9 1058.7 M1514.7 1058.6 L1515.8 1060.5 M1282.7 1145.9 L1277.5 1141.2 M1277.5 1141.2 L1272.8 1140.2 M1272.8 1140.2 L1269.7 1141.1 M1269.7 1141.1 L1268.2 1142.6 M1269.7 1141.1 L1267.6 1140.6 M1272.8 1140.2 L1270.4 1138.0 M1270.4 1138.0 L1268.3 1137.5 M1270.4 1138.0 L1269.7 1136.0 M1277.5 1141.2 L1275.9 1136.7 M1275.9 1136.7 L1273.4 1134.6 M1273.4 1134.6 L1271.3 1134.1 M1273.4 1134.6 L1272.7 1132.5 M1275.9 1136.7 L1276.4 1133.6 M1276.4 1133.6 L1275.6 1131.5 M1276.4 1133.6 L1277.7 1131.8 M1460.8 1203.7 L1464.6 1197.8 M1464.6 1197.8 L1464.9 1193.1 M1464.9 1193.1 L1463.5 1190.2 M1463.5 1190.2 L1461.8 1188.8 M1463.5 1190.2 L1463.7 1188.0 M1464.9 1193.1 L1466.6 1190.4 M1466.6 1190.4 L1466.8 1188.2 M1466.6 1190.4 L1468.6 1189.3 M1464.6 1197.8 L1468.8 1195.5 M1468.8 1195.5 L1470.5 1192.8 M1470.5 1192.8 L1470.6 1190.6 M1470.5 1192.8 L1472.4 1191.7 M1468.8 1195.5 L1472.0 1195.5 M1472.0 1195.5 L1473.9 1194.5 M1472.0 1195.5 L1473.9 1196.6 M112.6 1382.2 L108.9 1388.2 M108.9 1388.2 L108.7 1392.9 M108.7 1392.9 L110.1 1395.8 M110.1 1395.8 L111.9 1397.1 M110.1 1395.8 L110.0 1398.0 M108.7 1392.9 L107.0 1395.7 M107.0 1395.7 L106.9 1397.9 M107.0 1395.7 L105.1 1396.8 M108.9 1388.2 L104.8 1390.5 M104.8 1390.5 L103.1 1393.3 M103.1 1393.3 L103.0 1395.5 M103.1 1393.3 L101.2 1394.4 M104.8 1390.5 L101.6 1390.6 M101.6 1390.6 L99.7 1391.7 M101.6 1390.6 L99.6 1389.6 M505.3 1315.1 L504.1 1321.9 M504.1 1321.9 L505.6 1326.5 M505.6 1326.5 L508.0 1328.7 M508.0 1328.7 L510.1 1329.2 M508.0 1328.7 L508.7 1330.7 M505.6 1326.5 L505.0 1329.6 M505.0 1329.6 L505.7 1331.7 M505.0 1329.6 L503.7 1331.4 M504.1 1321.9 L501.1 1325.6 M501.1 1325.6 L500.5 1328.8 M500.5 1328.8 L501.2 1330.9 M500.5 1328.8 L499.2 1330.5 M501.1 1325.6 L498.1 1326.9 M498.1 1326.9 L496.7 1328.6 M498.1 1326.9 L495.9 1326.7 M784.2 1371.1 L788.4 1365.5 M788.4 1365.5 L789.1 1360.8 M789.1 1360.8 L788.0 1357.8 M788.0 1357.8 L786.4 1356.3 M788.0 1357.8 L788.3 1355.6 M789.1 1360.8 L791.1 1358.2 M791.1 1358.2 L791.4 1356.0 M791.1 1358.2 L793.1 1357.3 M788.4 1365.5 L792.8 1363.5 M792.8 1363.5 L794.7 1361.0 M794.7 1361.0 L795.1 1358.8 M794.7 1361.0 L796.7 1360.0 M792.8 1363.5 L796.0 1363.8 M796.0 1363.8 L798.0 1362.9 M796.0 1363.8 L797.9 1365.0 M969.3 1378.6 L962.9 1375.9 M962.9 1375.9 L958.1 1376.3 M958.1 1376.3 L955.5 1378.2 M955.5 1378.2 L954.5 1380.1 M955.5 1378.2 L953.3 1378.4 M958.1 1376.3 L955.1 1375.1 M955.1 1375.1 L953.0 1375.3 M955.1 1375.1 L953.8 1373.4 M962.9 1375.9 L959.9 1372.1 M959.9 1372.1 L956.9 1370.9 M956.9 1370.9 L954.7 1371.1 M956.9 1370.9 L955.5 1369.2 M959.9 1372.1 L959.3 1368.9 M959.3 1368.9 L958.0 1367.2 M959.3 1368.9 L960.1 1366.9 M1125.6 1395.2 L1130.3 1400.4 M1130.3 1400.4 L1134.8 1401.9 M1134.8 1401.9 L1138.0 1401.4 M1138.0 1401.4 L1139.7 1400.0 M1138.0 1401.4 L1140.1 1402.1 M1134.8 1401.9 L1137.0 1404.3 M1137.0 1404.3 L1139.1 1405.0 M1137.0 1404.3 L1137.5 1406.4 M1130.3 1400.4 L1131.4 1405.0 M1131.4 1405.0 L1133.6 1407.4 M1133.6 1407.4 L1135.7 1408.1 M1133.6 1407.4 L1134.1 1409.5 M1131.4 1405.0 L1130.6 1408.1 M1130.6 1408.1 L1131.1 1410.3 M1130.6 1408.1 L1129.1 1409.7 M1267.4 1366.3 L1260.8 1368.7 M1260.8 1368.7 L1257.7 1372.3 M1257.7 1372.3 L1257.0 1375.4 M1257.0 1375.4 L1257.6 1377.6 M1257.0 1375.4 L1255.5 1377.1 M1257.7 1372.3 L1254.6 1373.4 M1254.6 1373.4 L1253.2 1375.1 M1254.6 1373.4 L1252.5 1373.1 M1260.8 1368.7 L1256.1 1368.0 M1256.1 1368.0 L1253.1 1369.1 M1253.1 1369.1 L1251.6 1370.8 M1253.1 1369.1 L1250.9 1368.8 M1256.1 1368.0 L1253.5 1366.0 M1253.5 1366.0 L1251.4 1365.7 M1253.5 1366.0 L1252.6 1364.0 M1548.9 1348.7 L1555.5 1350.8 M1555.5 1350.8 L1560.2 1349.8 M1560.2 1349.8 L1562.7 1347.7 M1562.7 1347.7 L1563.5 1345.7 M1562.7 1347.7 L1564.8 1347.3 M1560.2 1349.8 L1563.3 1350.8 M1563.3 1350.8 L1565.5 1350.3 M1563.3 1350.8 L1564.8 1352.3 M1555.5 1350.8 L1558.9 1354.2 M1558.9 1354.2 L1562.0 1355.1 M1562.0 1355.1 L1564.1 1354.7 M1562.0 1355.1 L1563.5 1356.7 M1558.9 1354.2 L1559.8 1357.3 M1559.8 1357.3 L1561.3 1358.9 M1559.8 1357.3 L1559.3 1359.4 M82.1 1536.1 L78.0 1530.4 M78.0 1530.4 L73.7 1528.3 M73.7 1528.3 L70.5 1528.5 M70.5 1528.5 L68.6 1529.6 M70.5 1528.5 L68.5 1527.5 M73.7 1528.3 L71.8 1525.7 M71.8 1525.7 L69.8 1524.7 M71.8 1525.7 L71.6 1523.5 M78.0 1530.4 L77.4 1525.7 M77.4 1525.7 L75.5 1523.0 M75.5 1523.0 L73.6 1522.1 M75.5 1523.0 L75.3 1520.9 M77.4 1525.7 L78.6 1522.7 M78.6 1522.7 L78.4 1520.5 M78.6 1522.7 L80.3 1521.3 M332.8 1495.8 L328.4 1501.2 M328.4 1501.2 L327.5 1505.9 M327.5 1505.9 L328.5 1508.9 M328.5 1508.9 L330.1 1510.4 M328.5 1508.9 L328.1 1511.1 M327.5 1505.9 L325.4 1508.4 M325.4 1508.4 L325.0 1510.5 M325.4 1508.4 L323.4 1509.2 M328.4 1501.2 L323.9 1503.0 M323.9 1503.0 L321.9 1505.5 M321.9 1505.5 L321.5 1507.6 M321.9 1505.5 L319.9 1506.3 M323.9 1503.0 L320.7 1502.6 M320.7 1502.6 L318.7 1503.4 M320.7 1502.6 L318.9 1501.3 M390.8 1510.5 L389.8 1517.4 M389.8 1517.4 L391.5 1521.9 M391.5 1521.9 L393.9 1524.0 M393.9 1524.0 L396.1 1524.5 M393.9 1524.0 L394.7 1526.1 M391.5 1521.9 L391.0 1525.1 M391.0 1525.1 L391.8 1527.2 M391.0 1525.1 L389.7 1526.9 M389.8 1517.4 L387.0 1521.2 M387.0 1521.2 L386.5 1524.4 M386.5 1524.4 L387.3 1526.5 M386.5 1524.4 L385.2 1526.2 M387.0 1521.2 L384.0 1522.6 M384.0 1522.6 L382.7 1524.4 M384.0 1522.6 L381.8 1522.4 M571.8 1605.4 L578.8 1605.8 M578.8 1605.8 L583.1 1603.8 M583.1 1603.8 L585.0 1601.2 M585.0 1601.2 L585.3 1599.0 M585.0 1601.2 L587.0 1600.3 M583.1 1603.8 L586.3 1604.0 M586.3 1604.0 L588.3 1603.1 M586.3 1604.0 L588.2 1605.2 M578.8 1605.8 L582.8 1608.4 M582.8 1608.4 L586.0 1608.6 M586.0 1608.6 L588.0 1607.6 M586.0 1608.6 L587.9 1609.8 M582.8 1608.4 L584.4 1611.2 M584.4 1611.2 L586.2 1612.4 M584.4 1611.2 L584.4 1613.4 M836.6 1601.4 L843.2 1599.2 M843.2 1599.2 L846.4 1595.7 M846.4 1595.7 L847.2 1592.5 M847.2 1592.5 L846.7 1590.4 M847.2 1592.5 L848.7 1590.9 M846.4 1595.7 L849.5 1594.6 M849.5 1594.6 L851.0 1593.0 M849.5 1594.6 L851.7 1595.0 M843.2 1599.2 L847.9 1600.0 M847.9 1600.0 L851.0 1598.9 M851.0 1598.9 L852.5 1597.3 M851.0 1598.9 L853.2 1599.3 M847.9 1600.0 L850.5 1602.0 M850.5 1602.0 L852.6 1602.4 M850.5 1602.0 L851.3 1604.0 M962.3 1493.8 L969.0 1495.9 M969.0 1495.9 L973.7 1495.1 M973.7 1495.1 L976.2 1493.0 M976.2 1493.0 L977.0 1491.0 M976.2 1493.0 L978.3 1492.6 M973.7 1495.1 L976.7 1496.1 M976.7 1496.1 L978.9 1495.7 M976.7 1496.1 L978.2 1497.7 M969.0 1495.9 L972.2 1499.4 M972.2 1499.4 L975.3 1500.4 M975.3 1500.4 L977.5 1500.0 M975.3 1500.4 L976.8 1502.0 M972.2 1499.4 L973.0 1502.5 M973.0 1502.5 L974.6 1504.2 M973.0 1502.5 L972.5 1504.7 M1133.3 1521.0 L1135.3 1527.7 M1135.3 1527.7 L1138.8 1531.0 M1138.8 1531.0 L1141.9 1531.9 M1141.9 1531.9 L1144.0 1531.4 M1141.9 1531.9 L1143.4 1533.4 M1138.8 1531.0 L1139.7 1534.1 M1139.7 1534.1 L1141.3 1535.7 M1139.7 1534.1 L1139.3 1536.3 M1135.3 1527.7 L1134.4 1532.4 M1134.4 1532.4 L1135.3 1535.5 M1135.3 1535.5 L1136.9 1537.0 M1135.3 1535.5 L1134.9 1537.6 M1134.4 1532.4 L1132.3 1534.8 M1132.3 1534.8 L1131.9 1537.0 M1132.3 1534.8 L1130.2 1535.6 M1283.8 1502.5 L1277.0 1501.1 M1277.0 1501.1 L1272.4 1502.5 M1272.4 1502.5 L1270.1 1504.8 M1270.1 1504.8 L1269.5 1506.9 M1270.1 1504.8 L1268.0 1505.4 M1272.4 1502.5 L1269.2 1501.8 M1269.2 1501.8 L1267.1 1502.5 M1269.2 1501.8 L1267.5 1500.4 M1277.0 1501.1 L1273.3 1498.0 M1273.3 1498.0 L1270.2 1497.4 M1270.2 1497.4 L1268.0 1498.0 M1270.2 1497.4 L1268.5 1495.9 M1273.3 1498.0 L1272.2 1495.0 M1272.2 1495.0 L1270.5 1493.6 M1272.2 1495.0 L1272.5 1492.8 M1499.2 1517.0 L1492.4 1515.6 M1492.4 1515.6 L1487.8 1517.1 M1487.8 1517.1 L1485.6 1519.4 M1485.6 1519.4 L1485.0 1521.5 M1485.6 1519.4 L1483.5 1520.1 M1487.8 1517.1 L1484.6 1516.5 M1484.6 1516.5 L1482.5 1517.1 M1484.6 1516.5 L1482.9 1515.1 M1492.4 1515.6 L1488.7 1512.6 M1488.7 1512.6 L1485.5 1512.0 M1485.5 1512.0 L1483.4 1512.6 M1485.5 1512.0 L1483.8 1510.6 M1488.7 1512.6 L1487.5 1509.6 M1487.5 1509.6 L1485.8 1508.2 M1487.5 1509.6 L1487.8 1507.4 M23.9 1743.6 L30.6 1745.5 M30.6 1745.5 L35.3 1744.4 M35.3 1744.4 L37.7 1742.3 M37.7 1742.3 L38.4 1740.2 M37.7 1742.3 L39.8 1741.8 M35.3 1744.4 L38.4 1745.3 M38.4 1745.3 L40.5 1744.8 M38.4 1745.3 L40.0 1746.8 M30.6 1745.5 L34.1 1748.8 M34.1 1748.8 L37.2 1749.7 M37.2 1749.7 L39.3 1749.2 M37.2 1749.7 L38.7 1751.2 M34.1 1748.8 L35.0 1751.9 M35.0 1751.9 L36.6 1753.5 M35.0 1751.9 L34.6 1754.1 M261.8 1721.1 L268.8 1721.5 M268.8 1721.5 L273.1 1719.5 M273.1 1719.5 L275.0 1716.8 M275.0 1716.8 L275.3 1714.7 M275.0 1716.8 L277.0 1715.9 M273.1 1719.5 L276.3 1719.6 M276.3 1719.6 L278.3 1718.7 M276.3 1719.6 L278.2 1720.8 M268.8 1721.5 L272.8 1724.0 M272.8 1724.0 L276.0 1724.2 M276.0 1724.2 L278.0 1723.3 M276.0 1724.2 L277.9 1725.4 M272.8 1724.0 L274.4 1726.8 M274.4 1726.8 L276.3 1728.0 M274.4 1726.8 L274.4 1729.0 M506.6 1791.9 L509.1 1785.4 M509.1 1785.4 L508.5 1780.7 M508.5 1780.7 L506.6 1778.1 M506.6 1778.1 L504.6 1777.1 M506.6 1778.1 L506.3 1775.9 M508.5 1780.7 L509.7 1777.7 M509.7 1777.7 L509.4 1775.5 M509.7 1777.7 L511.4 1776.3 M509.1 1785.4 L512.8 1782.3 M512.8 1782.3 L513.9 1779.3 M513.9 1779.3 L513.6 1777.1 M513.9 1779.3 L515.6 1777.9 M512.8 1782.3 L515.9 1781.7 M515.9 1781.7 L517.6 1780.3 M515.9 1781.7 L518.0 1782.3 M676.6 1708.1 L671.6 1703.2 M671.6 1703.2 L667.0 1702.0 M667.0 1702.0 L663.8 1702.7 M663.8 1702.7 L662.2 1704.2 M663.8 1702.7 L661.7 1702.2 M667.0 1702.0 L664.7 1699.7 M664.7 1699.7 L662.5 1699.2 M664.7 1699.7 L664.0 1697.6 M671.6 1703.2 L670.2 1698.7 M670.2 1698.7 L667.8 1696.5 M667.8 1696.5 L665.7 1695.9 M667.8 1696.5 L667.2 1694.4 M670.2 1698.7 L670.8 1695.5 M670.8 1695.5 L670.1 1693.4 M670.8 1695.5 L672.2 1693.8 M776.2 1706.6 L777.4 1699.7 M777.4 1699.7 L775.8 1695.2 M775.8 1695.2 L773.4 1693.0 M773.4 1693.0 L771.3 1692.5 M773.4 1693.0 L772.7 1690.9 M775.8 1695.2 L776.4 1692.0 M776.4 1692.0 L775.7 1689.9 M776.4 1692.0 L777.7 1690.3 M777.4 1699.7 L780.3 1696.0 M780.3 1696.0 L780.9 1692.8 M780.9 1692.8 L780.2 1690.7 M780.9 1692.8 L782.2 1691.1 M780.3 1696.0 L783.3 1694.7 M783.3 1694.7 L784.7 1693.0 M783.3 1694.7 L785.5 1694.9 M937.8 1774.2 L943.9 1777.5 M943.9 1777.5 L948.7 1777.5 M948.7 1777.5 L951.5 1775.9 M951.5 1775.9 L952.7 1774.0 M951.5 1775.9 L953.7 1775.9 M948.7 1777.5 L951.5 1779.0 M951.5 1779.0 L953.7 1779.0 M951.5 1779.0 L952.8 1780.8 M943.9 1777.5 L946.5 1781.5 M946.5 1781.5 L949.4 1783.0 M949.4 1783.0 L951.6 1783.0 M949.4 1783.0 L950.6 1784.9 M946.5 1781.5 L946.8 1784.7 M946.8 1784.7 L948.0 1786.6 M946.8 1784.7 L945.9 1786.7 M1089.5 1694.7 L1084.9 1699.9 M1084.9 1699.9 L1083.9 1704.6 M1083.9 1704.6 L1084.8 1707.7 M1084.8 1707.7 L1086.3 1709.2 M1084.8 1707.7 L1084.3 1709.8 M1083.9 1704.6 L1081.7 1707.0 M1081.7 1707.0 L1081.2 1709.1 M1081.7 1707.0 L1079.7 1707.7 M1084.9 1699.9 L1080.4 1701.5 M1080.4 1701.5 L1078.3 1704.0 M1078.3 1704.0 L1077.8 1706.1 M1078.3 1704.0 L1076.2 1704.7 M1080.4 1701.5 L1077.2 1701.1 M1077.2 1701.1 L1075.2 1701.8 M1077.2 1701.1 L1075.5 1699.7 M1316.7 1804.6 L1321.4 1799.3 M1321.4 1799.3 L1322.4 1794.7 M1322.4 1794.7 L1321.5 1791.6 M1321.5 1791.6 L1320.0 1790.0 M1321.5 1791.6 L1322.0 1789.4 M1322.4 1794.7 L1324.6 1792.3 M1324.6 1792.3 L1325.0 1790.1 M1324.6 1792.3 L1326.6 1791.5 M1321.4 1799.3 L1325.8 1797.7 M1325.8 1797.7 L1328.0 1795.3 M1328.0 1795.3 L1328.5 1793.2 M1328.0 1795.3 L1330.1 1794.6 M1325.8 1797.7 L1329.0 1798.2 M1329.0 1798.2 L1331.1 1797.5 M1329.0 1798.2 L1330.8 1799.6 M1485.5 1746.3 L1487.7 1739.6 M1487.7 1739.6 L1486.9 1734.9 M1486.9 1734.9 L1484.8 1732.4 M1484.8 1732.4 L1482.8 1731.6 M1484.8 1732.4 L1484.5 1730.2 M1486.9 1734.9 L1487.9 1731.9 M1487.9 1731.9 L1487.5 1729.7 M1487.9 1731.9 L1489.5 1730.4 M1487.7 1739.6 L1491.2 1736.4 M1491.2 1736.4 L1492.2 1733.3 M1492.2 1733.3 L1491.8 1731.1 M1492.2 1733.3 L1493.8 1731.8 M1491.2 1736.4 L1494.3 1735.6 M1494.3 1735.6 L1496.0 1734.1 M1494.3 1735.6 L1496.5 1736.1 M43.6 1933.2 L41.0 1926.7 M41.0 1926.7 L37.3 1923.7 M37.3 1923.7 L34.1 1923.0 M34.1 1923.0 L32.0 1923.7 M34.1 1923.0 L32.4 1921.7 M37.3 1923.7 L36.1 1920.6 M36.1 1920.6 L34.4 1919.3 M36.1 1920.6 L36.3 1918.5 M41.0 1926.7 L41.5 1921.9 M41.5 1921.9 L40.3 1918.9 M40.3 1918.9 L38.6 1917.5 M40.3 1918.9 L40.6 1916.8 M41.5 1921.9 L43.4 1919.3 M43.4 1919.3 L43.7 1917.1 M43.4 1919.3 L45.4 1918.3 M309.0 1853.9 L311.6 1860.4 M311.6 1860.4 L315.2 1863.4 M315.2 1863.4 L318.4 1864.1 M318.4 1864.1 L320.5 1863.4 M318.4 1864.1 L320.1 1865.5 M315.2 1863.4 L316.4 1866.4 M316.4 1866.4 L318.1 1867.8 M316.4 1866.4 L316.1 1868.6 M311.6 1860.4 L311.0 1865.1 M311.0 1865.1 L312.1 1868.1 M312.1 1868.1 L313.8 1869.5 M312.1 1868.1 L311.9 1870.3 M311.0 1865.1 L309.1 1867.7 M309.1 1867.7 L308.8 1869.9 M309.1 1867.7 L307.1 1868.7 M509.8 1894.1 L516.7 1892.7 M516.7 1892.7 L520.3 1889.7 M520.3 1889.7 L521.5 1886.7 M521.5 1886.7 L521.3 1884.5 M521.5 1886.7 L523.2 1885.3 M520.3 1889.7 L523.5 1889.1 M523.5 1889.1 L525.2 1887.6 M523.5 1889.1 L525.6 1889.7 M516.7 1892.7 L521.2 1894.2 M521.2 1894.2 L524.4 1893.5 M524.4 1893.5 L526.1 1892.1 M524.4 1893.5 L526.5 1894.2 M521.2 1894.2 L523.5 1896.5 M523.5 1896.5 L525.6 1897.1 M523.5 1896.5 L524.1 1898.6 M566.1 1852.5 L569.9 1846.6 M569.9 1846.6 L570.3 1841.9 M570.3 1841.9 L568.9 1838.9 M568.9 1838.9 L567.2 1837.6 M568.9 1838.9 L569.1 1836.7 M570.3 1841.9 L572.0 1839.1 M572.0 1839.1 L572.2 1837.0 M572.0 1839.1 L574.0 1838.1 M569.9 1846.6 L574.1 1844.3 M574.1 1844.3 L575.9 1841.6 M575.9 1841.6 L576.0 1839.4 M575.9 1841.6 L577.8 1840.6 M574.1 1844.3 L577.3 1844.4 M577.3 1844.4 L579.3 1843.3 M577.3 1844.4 L579.3 1845.4 M797.0 1945.2 L791.2 1949.2 M791.2 1949.2 L789.1 1953.5 M789.1 1953.5 L789.2 1956.7 M789.2 1956.7 L790.3 1958.6 M789.2 1956.7 L788.2 1958.7 M789.1 1953.5 L786.4 1955.3 M786.4 1955.3 L785.4 1957.3 M786.4 1955.3 L784.2 1955.5 M791.2 1949.2 L786.5 1949.7 M786.5 1949.7 L783.8 1951.6 M783.8 1951.6 L782.8 1953.5 M783.8 1951.6 L781.6 1951.8 M786.5 1949.7 L783.5 1948.5 M783.5 1948.5 L781.3 1948.7 M783.5 1948.5 L782.1 1946.8 M1027.3 1925.7 L1020.8 1928.4 M1020.8 1928.4 L1017.9 1932.1 M1017.9 1932.1 L1017.3 1935.3 M1017.3 1935.3 L1018.0 1937.4 M1017.3 1935.3 L1015.9 1937.0 M1017.9 1932.1 L1014.9 1933.4 M1014.9 1933.4 L1013.5 1935.1 M1014.9 1933.4 L1012.7 1933.1 M1020.8 1928.4 L1016.1 1927.9 M1016.1 1927.9 L1013.1 1929.2 M1013.1 1929.2 L1011.7 1930.9 M1013.1 1929.2 L1010.9 1928.9 M1016.1 1927.9 L1013.5 1926.1 M1013.5 1926.1 L1011.3 1925.8 M1013.5 1926.1 L1012.5 1924.1 M1165.0 1971.6 L1165.3 1978.6 M1165.3 1978.6 L1167.8 1982.7 M1167.8 1982.7 L1170.6 1984.3 M1170.6 1984.3 L1172.8 1984.3 M1170.6 1984.3 L1171.7 1986.2 M1167.8 1982.7 L1167.9 1985.9 M1167.9 1985.9 L1169.1 1987.8 M1167.9 1985.9 L1167.0 1987.9 M1165.3 1978.6 L1163.2 1982.8 M1163.2 1982.8 L1163.4 1986.1 M1163.4 1986.1 L1164.5 1988.0 M1163.4 1986.1 L1162.4 1988.1 M1163.2 1982.8 L1160.6 1984.7 M1160.6 1984.7 L1159.6 1986.7 M1160.6 1984.7 L1158.4 1985.0 M1350.9 1971.4 L1344.7 1968.2 M1344.7 1968.2 L1340.0 1968.3 M1340.0 1968.3 L1337.2 1969.9 M1337.2 1969.9 L1336.0 1971.7 M1337.2 1969.9 L1335.0 1969.9 M1340.0 1968.3 L1337.1 1966.8 M1337.1 1966.8 L1334.9 1966.8 M1337.1 1966.8 L1335.9 1964.9 M1344.7 1968.2 L1342.1 1964.2 M1342.1 1964.2 L1339.2 1962.7 M1339.2 1962.7 L1337.0 1962.8 M1339.2 1962.7 L1338.0 1960.9 M1342.1 1964.2 L1341.8 1961.0 M1341.8 1961.0 L1340.6 1959.2 M1341.8 1961.0 L1342.7 1959.0 M1560.0 1934.1 L1565.1 1938.9 M1565.1 1938.9 L1569.7 1940.1 M1569.7 1940.1 L1572.9 1939.3 M1572.9 1939.3 L1574.5 1937.8 M1572.9 1939.3 L1575.0 1939.8 M1569.7 1940.1 L1572.1 1942.3 M1572.1 1942.3 L1574.2 1942.8 M1572.1 1942.3 L1572.8 1944.4 M1565.1 1938.9 L1566.6 1943.4 M1566.6 1943.4 L1569.0 1945.6 M1569.0 1945.6 L1571.1 1946.2 M1569.0 1945.6 L1569.7 1947.7 M1566.6 1943.4 L1566.0 1946.6 M1566.0 1946.6 L1566.7 1948.7 M1566.0 1946.6 L1564.6 1948.3 M56.8 2113.4 L54.5 2106.8 M54.5 2106.8 L51.0 2103.6 M51.0 2103.6 L47.9 2102.9 M47.9 2102.9 L45.7 2103.4 M47.9 2102.9 L46.2 2101.4 M51.0 2103.6 L49.9 2100.6 M49.9 2100.6 L48.3 2099.1 M49.9 2100.6 L50.3 2098.4 M54.5 2106.8 L55.3 2102.1 M55.3 2102.1 L54.3 2099.1 M54.3 2099.1 L52.6 2097.6 M54.3 2099.1 L54.6 2096.9 M55.3 2102.1 L57.3 2099.6 M57.3 2099.6 L57.7 2097.4 M57.3 2099.6 L59.3 2098.7 M328.8 2105.3 L322.6 2108.4 M322.6 2108.4 L319.9 2112.4 M319.9 2112.4 L319.5 2115.6 M319.5 2115.6 L320.4 2117.6 M319.5 2115.6 L318.3 2117.4 M319.9 2112.4 L317.0 2113.8 M317.0 2113.8 L315.7 2115.6 M317.0 2113.8 L314.8 2113.8 M322.6 2108.4 L317.8 2108.3 M317.8 2108.3 L314.9 2109.8 M314.9 2109.8 L313.7 2111.6 M314.9 2109.8 L312.7 2109.7 M317.8 2108.3 L315.0 2106.7 M315.0 2106.7 L312.8 2106.6 M315.0 2106.7 L313.9 2104.8 M403.8 2056.5 L405.1 2063.4 M405.1 2063.4 L408.1 2067.0 M408.1 2067.0 L411.1 2068.3 M411.1 2068.3 L413.3 2068.0 M411.1 2068.3 L412.5 2070.0 M408.1 2067.0 L408.7 2070.2 M408.7 2070.2 L410.1 2071.9 M408.7 2070.2 L408.0 2072.3 M405.1 2063.4 L403.6 2067.9 M403.6 2067.9 L404.2 2071.1 M404.2 2071.1 L405.6 2072.8 M404.2 2071.1 L403.6 2073.2 M403.6 2067.9 L401.3 2070.1 M401.3 2070.1 L400.6 2072.2 M401.3 2070.1 L399.2 2070.7 M629.4 2062.7 L623.2 2066.0 M623.2 2066.0 L620.6 2070.0 M620.6 2070.0 L620.4 2073.3 M620.4 2073.3 L621.3 2075.3 M620.4 2073.3 L619.2 2075.1 M620.6 2070.0 L617.8 2071.6 M617.8 2071.6 L616.6 2073.4 M617.8 2071.6 L615.6 2071.6 M623.2 2066.0 L618.5 2066.0 M618.5 2066.0 L615.6 2067.6 M615.6 2067.6 L614.4 2069.4 M615.6 2067.6 L613.4 2067.6 M618.5 2066.0 L615.6 2064.5 M615.6 2064.5 L613.4 2064.5 M615.6 2064.5 L614.4 2062.6 M815.8 2153.0 L817.6 2146.2 M817.6 2146.2 L816.4 2141.6 M816.4 2141.6 L814.2 2139.2 M814.2 2139.2 L812.1 2138.5 M814.2 2139.2 L813.7 2137.1 M816.4 2141.6 L817.2 2138.4 M817.2 2138.4 L816.7 2136.3 M817.2 2138.4 L818.7 2136.8 M817.6 2146.2 L820.8 2142.7 M820.8 2142.7 L821.6 2139.6 M821.6 2139.6 L821.1 2137.4 M821.6 2139.6 L823.1 2138.0 M820.8 2142.7 L823.9 2141.7 M823.9 2141.7 L825.4 2140.1 M823.9 2141.7 L826.1 2142.1 M934.2 2145.6 L927.3 2144.3 M927.3 2144.3 L922.8 2145.7 M922.8 2145.7 L920.5 2148.0 M920.5 2148.0 L920.0 2150.2 M920.5 2148.0 L918.4 2148.7 M922.8 2145.7 L919.6 2145.1 M919.6 2145.1 L917.5 2145.7 M919.6 2145.1 L917.9 2143.7 M927.3 2144.3 L923.7 2141.2 M923.7 2141.2 L920.5 2140.6 M920.5 2140.6 L918.4 2141.3 M920.5 2140.6 L918.8 2139.2 M923.7 2141.2 L922.5 2138.2 M922.5 2138.2 L920.8 2136.8 M922.5 2138.2 L922.7 2136.0 M1178.0 2077.4 L1171.3 2075.4 M1171.3 2075.4 L1166.6 2076.3 M1166.6 2076.3 L1164.1 2078.4 M1164.1 2078.4 L1163.3 2080.4 M1164.1 2078.4 L1162.0 2078.8 M1166.6 2076.3 L1163.5 2075.3 M1163.5 2075.3 L1161.4 2075.8 M1163.5 2075.3 L1162.0 2073.8 M1171.3 2075.4 L1168.0 2071.9 M1168.0 2071.9 L1164.9 2071.0 M1164.9 2071.0 L1162.7 2071.4 M1164.9 2071.0 L1163.3 2069.4 M1168.0 2071.9 L1167.1 2068.8 M1167.1 2068.8 L1165.6 2067.2 M1167.1 2068.8 L1167.6 2066.7 M1297.1 2160.5 L1290.1 2160.7 M1290.1 2160.7 L1286.0 2163.1 M1286.0 2163.1 L1284.3 2165.9 M1284.3 2165.9 L1284.2 2168.1 M1284.3 2165.9 L1282.4 2167.0 M1286.0 2163.1 L1282.7 2163.2 M1282.7 2163.2 L1280.8 2164.3 M1282.7 2163.2 L1280.8 2162.2 M1290.1 2160.7 L1285.8 2158.5 M1285.8 2158.5 L1282.6 2158.6 M1282.6 2158.6 L1280.7 2159.7 M1282.6 2158.6 L1280.6 2157.6 M1285.8 2158.5 L1284.0 2155.9 M1284.0 2155.9 L1282.0 2154.9 M1284.0 2155.9 L1283.8 2153.7 M1542.5 2095.5 L1536.9 2099.6 M1536.9 2099.6 L1534.9 2103.9 M1534.9 2103.9 L1535.1 2107.2 M1535.1 2107.2 L1536.3 2109.0 M1535.1 2107.2 L1534.1 2109.2 M1534.9 2103.9 L1532.3 2105.9 M1532.3 2105.9 L1531.3 2107.9 M1532.3 2105.9 L1530.1 2106.2 M1536.9 2099.6 L1532.2 2100.3 M1532.2 2100.3 L1529.6 2102.2 M1529.6 2102.2 L1528.6 2104.2 M1529.6 2102.2 L1527.4 2102.5 M1532.2 2100.3 L1529.1 2099.1 M1529.1 2099.1 L1526.9 2099.4 M1529.1 2099.1 L1527.7 2097.5 M141.3 2274.8 L135.1 2278.0 M135.1 2278.0 L132.5 2282.0 M132.5 2282.0 L132.2 2285.2 M132.2 2285.2 L133.1 2287.2 M132.2 2285.2 L131.0 2287.0 M132.5 2282.0 L129.6 2283.5 M129.6 2283.5 L128.4 2285.3 M129.6 2283.5 L127.4 2283.4 M135.1 2278.0 L130.4 2277.9 M130.4 2277.9 L127.5 2279.4 M127.5 2279.4 L126.3 2281.3 M127.5 2279.4 L125.3 2279.4 M130.4 2277.9 L127.5 2276.3 M127.5 2276.3 L125.3 2276.3 M127.5 2276.3 L126.4 2274.5 M310.1 2278.9 L316.9 2280.6 M316.9 2280.6 L321.5 2279.5 M321.5 2279.5 L323.9 2277.3 M323.9 2277.3 L324.6 2275.2 M323.9 2277.3 L326.0 2276.7 M321.5 2279.5 L324.6 2280.3 M324.6 2280.3 L326.8 2279.7 M324.6 2280.3 L326.2 2281.8 M316.9 2280.6 L320.3 2283.9 M320.3 2283.9 L323.5 2284.7 M323.5 2284.7 L325.6 2284.2 M323.5 2284.7 L325.1 2286.2 M320.3 2283.9 L321.4 2287.0 M321.4 2287.0 L323.0 2288.5 M321.4 2287.0 L321.0 2289.1 M606.4 2309.3 L601.9 2303.9 M601.9 2303.9 L597.5 2302.2 M597.5 2302.2 L594.2 2302.6 M594.2 2302.6 L592.5 2303.9 M594.2 2302.6 L592.2 2301.8 M597.5 2302.2 L595.4 2299.7 M595.4 2299.7 L593.3 2298.9 M595.4 2299.7 L595.0 2297.5 M601.9 2303.9 L601.0 2299.3 M601.0 2299.3 L598.9 2296.8 M598.9 2296.8 L596.9 2296.0 M598.9 2296.8 L598.5 2294.6 M601.0 2299.3 L601.9 2296.2 M601.9 2296.2 L601.5 2294.0 M601.9 2296.2 L603.5 2294.7 M762.8 2322.4 L758.4 2317.0 M758.4 2317.0 L754.0 2315.2 M754.0 2315.2 L750.8 2315.6 M750.8 2315.6 L749.0 2316.8 M750.8 2315.6 L748.8 2314.7 M754.0 2315.2 L752.0 2312.7 M752.0 2312.7 L750.0 2311.9 M752.0 2312.7 L751.6 2310.5 M758.4 2317.0 L757.6 2312.3 M757.6 2312.3 L755.5 2309.8 M755.5 2309.8 L753.5 2309.0 M755.5 2309.8 L755.1 2307.6 M757.6 2312.3 L758.6 2309.2 M758.6 2309.2 L758.2 2307.1 M758.6 2309.2 L760.2 2307.7 M970.9 2311.7 L967.1 2305.8 M967.1 2305.8 L962.9 2303.5 M962.9 2303.5 L959.7 2303.6 M959.7 2303.6 L957.7 2304.6 M959.7 2303.6 L957.7 2302.5 M962.9 2303.5 L961.1 2300.8 M961.1 2300.8 L959.2 2299.8 M961.1 2300.8 L961.0 2298.6 M967.1 2305.8 L966.7 2301.0 M966.7 2301.0 L965.0 2298.3 M965.0 2298.3 L963.0 2297.3 M965.0 2298.3 L964.8 2296.1 M966.7 2301.0 L968.1 2298.1 M968.1 2298.1 L967.9 2295.9 M968.1 2298.1 L969.8 2296.8 M1213.9 2338.4 L1207.9 2342.1 M1207.9 2342.1 L1205.5 2346.2 M1205.5 2346.2 L1205.5 2349.5 M1205.5 2349.5 L1206.5 2351.4 M1205.5 2349.5 L1204.4 2351.4 M1205.5 2346.2 L1202.8 2347.9 M1202.8 2347.9 L1201.7 2349.8 M1202.8 2347.9 L1200.6 2348.0 M1207.9 2342.1 L1203.2 2342.3 M1203.2 2342.3 L1200.4 2344.0 M1200.4 2344.0 L1199.3 2345.9 M1200.4 2344.0 L1198.2 2344.1 M1203.2 2342.3 L1200.3 2340.9 M1200.3 2340.9 L1198.1 2341.0 M1200.3 2340.9 L1199.0 2339.1 M1381.0 2271.8 L1379.4 2265.0 M1379.4 2265.0 L1376.2 2261.5 M1376.2 2261.5 L1373.1 2260.4 M1373.1 2260.4 L1371.0 2260.8 M1373.1 2260.4 L1371.6 2258.8 M1376.2 2261.5 L1375.4 2258.3 M1375.4 2258.3 L1373.9 2256.7 M1375.4 2258.3 L1376.0 2256.2 M1379.4 2265.0 L1380.6 2260.4 M1380.6 2260.4 L1379.9 2257.3 M1379.9 2257.3 L1378.4 2255.6 M1379.9 2257.3 L1380.4 2255.1 M1380.6 2260.4 L1382.9 2258.1 M1382.9 2258.1 L1383.4 2256.0 M1382.9 2258.1 L1385.0 2257.4 M1472.5 2224.6 L1479.2 2226.6 M1479.2 2226.6 L1483.9 2225.7 M1483.9 2225.7 L1486.3 2223.5 M1486.3 2223.5 L1487.1 2221.5 M1486.3 2223.5 L1488.5 2223.1 M1483.9 2225.7 L1487.0 2226.6 M1487.0 2226.6 L1489.1 2226.1 M1487.0 2226.6 L1488.5 2228.1 M1479.2 2226.6 L1482.5 2230.0 M1482.5 2230.0 L1485.6 2231.0 M1485.6 2231.0 L1487.8 2230.5 M1485.6 2231.0 L1487.2 2232.5 M1482.5 2230.0 L1483.4 2233.1 M1483.4 2233.1 L1485.0 2234.7 M1483.4 2233.1 L1482.9 2235.3 M48.8 2493.8 L48.4 2486.8 M48.4 2486.8 L45.8 2482.8 M45.8 2482.8 L43.0 2481.2 M43.0 2481.2 L40.8 2481.2 M43.0 2481.2 L41.8 2479.4 M45.8 2482.8 L45.6 2479.6 M45.6 2479.6 L44.4 2477.7 M45.6 2479.6 L46.5 2477.6 M48.4 2486.8 L50.3 2482.5 M50.3 2482.5 L50.1 2479.3 M50.1 2479.3 L48.9 2477.4 M50.1 2479.3 L51.1 2477.3 M50.3 2482.5 L52.9 2480.6 M52.9 2480.6 L53.9 2478.6 M52.9 2480.6 L55.1 2480.3 M763.9 2464.1 L757.3 2461.8 M757.3 2461.8 L752.6 2462.6 M752.6 2462.6 L750.1 2464.6 M750.1 2464.6 L749.2 2466.7 M750.1 2464.6 L747.9 2465.0 M752.6 2462.6 L749.6 2461.6 M749.6 2461.6 L747.4 2462.0 M749.6 2461.6 L748.1 2460.0 M757.3 2461.8 L754.1 2458.3 M754.1 2458.3 L751.0 2457.3 M751.0 2457.3 L748.9 2457.6 M751.0 2457.3 L749.5 2455.6 M754.1 2458.3 L753.3 2455.2 M753.3 2455.2 L751.8 2453.5 M753.3 2455.2 L753.9 2453.0 M995.8 2515.9 L1001.1 2520.5 M1001.1 2520.5 L1005.7 2521.6 M1005.7 2521.6 L1008.8 2520.7 M1008.8 2520.7 L1010.4 2519.1 M1008.8 2520.7 L1011.0 2521.1 M1005.7 2521.6 L1008.2 2523.7 M1008.2 2523.7 L1010.3 2524.2 M1008.2 2523.7 L1008.9 2525.8 M1001.1 2520.5 L1002.7 2525.0 M1002.7 2525.0 L1005.1 2527.1 M1005.1 2527.1 L1007.3 2527.6 M1005.1 2527.1 L1005.9 2529.2 M1002.7 2525.0 L1002.2 2528.2 M1002.2 2528.2 L1003.0 2530.2 M1002.2 2528.2 L1000.9 2529.9 M1194.1 2409.1 L1187.5 2406.7 M1187.5 2406.7 L1182.8 2407.4 M1182.8 2407.4 L1180.2 2409.3 M1180.2 2409.3 L1179.3 2411.3 M1180.2 2409.3 L1178.0 2409.6 M1182.8 2407.4 L1179.8 2406.2 M1179.8 2406.2 L1177.6 2406.6 M1179.8 2406.2 L1178.3 2404.6 M1187.5 2406.7 L1184.4 2403.1 M1184.4 2403.1 L1181.3 2402.0 M1181.3 2402.0 L1179.2 2402.3 M1181.3 2402.0 L1179.9 2400.3 M1184.4 2403.1 L1183.7 2399.9 M1183.7 2399.9 L1182.2 2398.3 M1183.7 2399.9 L1184.3 2397.8 M1380.0 2431.5 L1385.1 2426.7 M1385.1 2426.7 L1386.7 2422.2 M1386.7 2422.2 L1386.1 2419.1 M1386.1 2419.1 L1384.8 2417.3 M1386.1 2419.1 L1386.9 2417.0 M1386.7 2422.2 L1389.1 2420.1 M1389.1 2420.1 L1389.8 2418.0 M1389.1 2420.1 L1391.2 2419.5 M1385.1 2426.7 L1389.8 2425.6 M1389.8 2425.6 L1392.2 2423.4 M1392.2 2423.4 L1392.9 2421.3 M1392.2 2423.4 L1394.3 2422.9 M1389.8 2425.6 L1392.9 2426.4 M1392.9 2426.4 L1395.0 2425.9 M1392.9 2426.4 L1394.5 2428.0 M1564.5 2518.0 L1564.5 2511.0 M1564.5 2511.0 L1562.3 2506.8 M1562.3 2506.8 L1559.6 2505.0 M1559.6 2505.0 L1557.4 2504.8 M1559.6 2505.0 L1558.6 2503.1 M1562.3 2506.8 L1562.3 2503.5 M1562.3 2503.5 L1561.3 2501.6 M1562.3 2503.5 L1563.4 2501.6 M1564.5 2511.0 L1566.9 2506.8 M1566.9 2506.8 L1566.9 2503.6 M1566.9 2503.6 L1565.9 2501.6 M1566.9 2503.6 L1568.0 2501.7 M1566.9 2506.8 L1569.6 2505.1 M1569.6 2505.1 L1570.7 2503.2 M1569.6 2505.1 L1571.8 2505.0" stroke-width="0.7" opacity="0.017"/><path d="M73.4 92.0 L65.1 100.7 M65.1 100.7 L63.0 108.5 M63.0 108.5 L64.3 113.9 M64.3 113.9 L66.9 116.7 M64.3 113.9 L63.4 117.6 M63.0 108.5 L59.2 112.6 M59.2 112.6 L58.2 116.2 M59.2 112.6 L55.6 113.7 M65.1 100.7 L57.4 103.1 M57.4 103.1 L53.5 107.2 M53.5 107.2 L52.6 110.8 M53.5 107.2 L49.9 108.3 M57.4 103.1 L51.9 102.1 M51.9 102.1 L48.3 103.2 M51.9 102.1 L49.0 99.7 M834.8 132.1 L846.7 130.4 M846.7 130.4 L853.3 125.5 M853.3 125.5 L855.6 120.5 M855.6 120.5 L855.3 116.7 M855.6 120.5 L858.6 118.3 M853.3 125.5 L858.8 124.8 M858.8 124.8 L861.8 122.5 M858.8 124.8 L862.3 126.1 M846.7 130.4 L854.3 133.3 M854.3 133.3 L859.8 132.5 M859.8 132.5 L862.9 130.3 M859.8 132.5 L863.4 133.9 M854.3 133.3 L857.9 137.5 M857.9 137.5 L861.5 138.8 M857.9 137.5 L858.7 141.2 M1493.3 68.1 L1504.6 64.1 M1504.6 64.1 L1510.1 58.0 M1510.1 58.0 L1511.3 52.6 M1511.3 52.6 L1510.3 49.0 M1511.3 52.6 L1513.9 49.8 M1510.1 58.0 L1515.3 56.2 M1515.3 56.2 L1517.8 53.4 M1515.3 56.2 L1519.0 56.8 M1504.6 64.1 L1512.7 65.4 M1512.7 65.4 L1517.9 63.6 M1517.9 63.6 L1520.4 60.7 M1517.9 63.6 L1521.6 64.2 M1512.7 65.4 L1517.1 68.8 M1517.1 68.8 L1520.8 69.4 M1517.1 68.8 L1518.6 72.3 M1541.0 308.8 L1534.6 318.9 M1534.6 318.9 L1534.1 327.1 M1534.1 327.1 L1536.5 332.1 M1536.5 332.1 L1539.5 334.3 M1536.5 332.1 L1536.2 335.9 M1534.1 327.1 L1531.2 331.8 M1531.2 331.8 L1530.9 335.5 M1531.2 331.8 L1527.9 333.6 M1534.6 318.9 L1527.5 322.9 M1527.5 322.9 L1524.5 327.6 M1524.5 327.6 L1524.3 331.4 M1524.5 327.6 L1521.3 329.4 M1527.5 322.9 L1522.0 323.0 M1522.0 323.0 L1518.7 324.8 M1522.0 323.0 L1518.6 321.2 M1437.6 670.8 L1445.6 679.8 M1445.6 679.8 L1453.3 682.5 M1453.3 682.5 L1458.8 681.6 M1458.8 681.6 L1461.8 679.2 M1458.8 681.6 L1462.4 682.8 M1453.3 682.5 L1457.0 686.6 M1457.0 686.6 L1460.6 687.8 M1457.0 686.6 L1457.9 690.3 M1445.6 679.8 L1447.5 687.7 M1447.5 687.7 L1451.2 691.8 M1451.2 691.8 L1454.8 693.1 M1451.2 691.8 L1452.1 695.5 M1447.5 687.7 L1446.1 693.1 M1446.1 693.1 L1446.9 696.7 M1446.1 693.1 L1443.4 695.8 M1554.4 868.6 L1544.4 875.3 M1544.4 875.3 L1540.7 882.5 M1540.7 882.5 L1540.8 888.1 M1540.8 888.1 L1542.7 891.3 M1540.8 888.1 L1539.1 891.4 M1540.7 882.5 L1536.1 885.6 M1536.1 885.6 L1534.4 889.0 M1536.1 885.6 L1532.3 886.0 M1544.4 875.3 L1536.3 876.0 M1536.3 876.0 L1531.7 879.1 M1531.7 879.1 L1530.0 882.5 M1531.7 879.1 L1528.0 879.5 M1536.3 876.0 L1531.2 873.9 M1531.2 873.9 L1527.5 874.2 M1531.2 873.9 L1528.9 870.9 M1247.9 1094.7 L1254.5 1084.7 M1254.5 1084.7 L1255.2 1076.6 M1255.2 1076.6 L1252.9 1071.5 M1252.9 1071.5 L1249.9 1069.2 M1252.9 1071.5 L1253.2 1067.8 M1255.2 1076.6 L1258.2 1071.9 M1258.2 1071.9 L1258.5 1068.2 M1258.2 1071.9 L1261.5 1070.2 M1254.5 1084.7 L1261.7 1080.9 M1261.7 1080.9 L1264.8 1076.2 M1264.8 1076.2 L1265.1 1072.5 M1264.8 1076.2 L1268.1 1074.5 M1261.7 1080.9 L1267.3 1080.9 M1267.3 1080.9 L1270.6 1079.2 M1267.3 1080.9 L1270.6 1082.8 M1445.7 1100.4 L1452.7 1090.7 M1452.7 1090.7 L1453.7 1082.6 M1453.7 1082.6 L1451.6 1077.4 M1451.6 1077.4 L1448.7 1075.0 M1451.6 1077.4 L1452.1 1073.7 M1453.7 1082.6 L1456.9 1078.1 M1456.9 1078.1 L1457.4 1074.3 M1456.9 1078.1 L1460.3 1076.4 M1452.7 1090.7 L1460.0 1087.1 M1460.0 1087.1 L1463.3 1082.6 M1463.3 1082.6 L1463.7 1078.9 M1463.3 1082.6 L1466.7 1081.0 M1460.0 1087.1 L1465.6 1087.4 M1465.6 1087.4 L1469.0 1085.8 M1465.6 1087.4 L1468.8 1089.4 M386.7 1394.5 L392.3 1405.1 M392.3 1405.1 L399.1 1409.6 M399.1 1409.6 L404.6 1410.1 M404.6 1410.1 L408.1 1408.6 M404.6 1410.1 L407.7 1412.2 M399.1 1409.6 L401.6 1414.6 M401.6 1414.6 L404.8 1416.7 M401.6 1414.6 L401.6 1418.3 M392.3 1405.1 L392.1 1413.3 M392.1 1413.3 L394.7 1418.2 M394.7 1418.2 L397.9 1420.3 M394.7 1418.2 L394.6 1422.0 M392.1 1413.3 L389.4 1418.1 M389.4 1418.1 L389.3 1421.9 M389.4 1418.1 L386.2 1420.1 M716.7 1482.7 L728.5 1485.2 M728.5 1485.2 L736.3 1482.9 M736.3 1482.9 L740.2 1478.9 M740.2 1478.9 L741.2 1475.3 M740.2 1478.9 L743.8 1477.8 M736.3 1482.9 L741.7 1484.0 M741.7 1484.0 L745.3 1482.9 M741.7 1484.0 L744.6 1486.5 M728.5 1485.2 L734.7 1490.5 M734.7 1490.5 L740.1 1491.7 M740.1 1491.7 L743.7 1490.6 M740.1 1491.7 L742.9 1494.1 M734.7 1490.5 L736.6 1495.7 M736.6 1495.7 L739.5 1498.2 M736.6 1495.7 L736.1 1499.4 M837.9 1441.3 L842.9 1452.2 M842.9 1452.2 L849.5 1457.0 M849.5 1457.0 L855.0 1457.8 M855.0 1457.8 L858.5 1456.4 M855.0 1457.8 L858.0 1460.0 M849.5 1457.0 L851.8 1462.1 M851.8 1462.1 L854.8 1464.3 M851.8 1462.1 L851.5 1465.8 M842.9 1452.2 L842.4 1460.3 M842.4 1460.3 L844.7 1465.3 M844.7 1465.3 L847.7 1467.6 M844.7 1465.3 L844.4 1469.1 M842.4 1460.3 L839.4 1465.0 M839.4 1465.0 L839.1 1468.7 M839.4 1465.0 L836.1 1466.8 M1274.5 1403.1 L1269.4 1413.9 M1269.4 1413.9 L1269.9 1422.1 M1269.9 1422.1 L1272.9 1426.8 M1272.9 1426.8 L1276.2 1428.6 M1272.9 1426.8 L1273.1 1430.5 M1269.9 1422.1 L1267.6 1427.1 M1267.6 1427.1 L1267.8 1430.9 M1267.6 1427.1 L1264.5 1429.3 M1269.4 1413.9 L1262.8 1418.8 M1262.8 1418.8 L1260.5 1423.8 M1260.5 1423.8 L1260.7 1427.5 M1260.5 1423.8 L1257.4 1426.0 M1262.8 1418.8 L1257.3 1419.5 M1257.3 1419.5 L1254.3 1421.7 M1257.3 1419.5 L1253.8 1418.1 M1516.6 1373.0 L1505.7 1368.0 M1505.7 1368.0 L1497.6 1368.6 M1497.6 1368.6 L1492.9 1371.6 M1492.9 1371.6 L1491.1 1374.9 M1492.9 1371.6 L1489.1 1371.8 M1497.6 1368.6 L1492.6 1366.3 M1492.6 1366.3 L1488.8 1366.5 M1492.6 1366.3 L1490.3 1363.2 M1505.7 1368.0 L1500.9 1361.5 M1500.9 1361.5 L1495.8 1359.1 M1495.8 1359.1 L1492.1 1359.4 M1495.8 1359.1 L1493.6 1356.1 M1500.9 1361.5 L1500.1 1356.0 M1500.1 1356.0 L1497.9 1352.9 M1500.1 1356.0 L1501.4 1352.4 M109.4 1636.6 L110.4 1648.6 M110.4 1648.6 L114.9 1655.4 M114.9 1655.4 L119.8 1658.0 M119.8 1658.0 L123.6 1657.9 M119.8 1658.0 L121.9 1661.1 M114.9 1655.4 L115.3 1660.9 M115.3 1660.9 L117.4 1664.1 M115.3 1660.9 L113.8 1664.4 M110.4 1648.6 L107.1 1656.1 M107.1 1656.1 L107.5 1661.6 M107.5 1661.6 L109.6 1664.7 M107.5 1661.6 L106.0 1665.0 M107.1 1656.1 L102.7 1659.4 M102.7 1659.4 L101.2 1662.9 M102.7 1659.4 L98.9 1660.0 M474.0 1667.3 L483.7 1674.3 M483.7 1674.3 L491.8 1675.4 M491.8 1675.4 L497.0 1673.4 M497.0 1673.4 L499.4 1670.5 M497.0 1673.4 L500.7 1673.9 M491.8 1675.4 L496.3 1678.7 M496.3 1678.7 L500.0 1679.1 M496.3 1678.7 L497.9 1682.1 M483.7 1674.3 L487.2 1681.7 M487.2 1681.7 L491.7 1685.0 M491.7 1685.0 L495.4 1685.5 M491.7 1685.0 L493.3 1688.4 M487.2 1681.7 L486.9 1687.3 M486.9 1687.3 L488.5 1690.7 M486.9 1687.3 L484.9 1690.5 M592.9 1603.8 L604.9 1604.3 M604.9 1604.3 L612.2 1600.6 M612.2 1600.6 L615.3 1596.1 M615.3 1596.1 L615.8 1592.3 M615.3 1596.1 L618.7 1594.4 M612.2 1600.6 L617.7 1600.9 M617.7 1600.9 L621.1 1599.2 M617.7 1600.9 L620.9 1602.8 M604.9 1604.3 L611.9 1608.5 M611.9 1608.5 L617.4 1608.7 M617.4 1608.7 L620.8 1607.0 M617.4 1608.7 L620.6 1610.6 M611.9 1608.5 L614.7 1613.2 M614.7 1613.2 L617.9 1615.2 M614.7 1613.2 L614.8 1617.0 M856.3 1658.3 L845.0 1654.2 M845.0 1654.2 L837.0 1655.4 M837.0 1655.4 L832.6 1658.7 M832.6 1658.7 L831.0 1662.2 M832.6 1658.7 L828.8 1659.3 M837.0 1655.4 L831.8 1653.5 M831.8 1653.5 L828.0 1654.0 M831.8 1653.5 L829.3 1650.7 M845.0 1654.2 L839.7 1648.0 M839.7 1648.0 L834.4 1646.1 M834.4 1646.1 L830.7 1646.7 M834.4 1646.1 L832.0 1643.3 M839.7 1648.0 L838.4 1642.6 M838.4 1642.6 L836.0 1639.8 M838.4 1642.6 L839.5 1639.0 M1300.0 1590.2 L1303.1 1601.8 M1303.1 1601.8 L1308.7 1607.7 M1308.7 1607.7 L1314.0 1609.4 M1314.0 1609.4 L1317.7 1608.6 M1314.0 1609.4 L1316.6 1612.1 M1308.7 1607.7 L1310.2 1613.0 M1310.2 1613.0 L1312.8 1615.8 M1310.2 1613.0 L1309.3 1616.7 M1303.1 1601.8 L1301.2 1609.7 M1301.2 1609.7 L1302.6 1615.1 M1302.6 1615.1 L1305.2 1617.8 M1302.6 1615.1 L1301.7 1618.7 M1301.2 1609.7 L1297.5 1613.8 M1297.5 1613.8 L1296.6 1617.5 M1297.5 1613.8 L1293.9 1615.1 M1509.1 1619.3 L1520.6 1615.8 M1520.6 1615.8 L1526.3 1609.9 M1526.3 1609.9 L1527.8 1604.6 M1527.8 1604.6 L1526.9 1600.9 M1527.8 1604.6 L1530.4 1601.9 M1526.3 1609.9 L1531.6 1608.3 M1531.6 1608.3 L1534.2 1605.6 M1531.6 1608.3 L1535.3 1609.0 M1520.6 1615.8 L1528.6 1617.4 M1528.6 1617.4 L1533.9 1615.8 M1533.9 1615.8 L1536.5 1613.1 M1533.9 1615.8 L1537.6 1616.5 M1528.6 1617.4 L1532.8 1621.0 M1532.8 1621.0 L1536.5 1621.7 M1532.8 1621.0 L1534.2 1624.5 M99.7 1881.2 L87.7 1881.0 M87.7 1881.0 L80.4 1884.8 M80.4 1884.8 L77.4 1889.4 M77.4 1889.4 L77.0 1893.1 M77.4 1889.4 L74.0 1891.1 M80.4 1884.8 L74.9 1884.7 M74.9 1884.7 L71.6 1886.4 M74.9 1884.7 L71.6 1882.8 M87.7 1881.0 L80.6 1876.9 M80.6 1876.9 L75.1 1876.8 M75.1 1876.8 L71.7 1878.6 M75.1 1876.8 L71.8 1875.0 M80.6 1876.9 L77.7 1872.2 M77.7 1872.2 L74.4 1870.3 M77.7 1872.2 L77.5 1868.5 M473.8 1889.8 L472.4 1901.7 M472.4 1901.7 L475.5 1909.3 M475.5 1909.3 L479.8 1912.8 M479.8 1912.8 L483.5 1913.5 M479.8 1912.8 L481.2 1916.3 M475.5 1909.3 L474.8 1914.8 M474.8 1914.8 L476.2 1918.3 M474.8 1914.8 L472.6 1917.9 M472.4 1901.7 L467.7 1908.4 M467.7 1908.4 L467.1 1913.9 M467.1 1913.9 L468.5 1917.4 M467.1 1913.9 L464.9 1917.0 M467.7 1908.4 L462.7 1910.8 M462.7 1910.8 L460.5 1913.9 M462.7 1910.8 L458.9 1910.6 M580.2 1956.7 L568.4 1959.1 M568.4 1959.1 L562.1 1964.3 M562.1 1964.3 L560.1 1969.5 M560.1 1969.5 L560.6 1973.2 M560.1 1969.5 L557.2 1971.9 M562.1 1964.3 L556.7 1965.4 M556.7 1965.4 L553.8 1967.8 M556.7 1965.4 L553.1 1964.3 M568.4 1959.1 L560.6 1956.6 M560.6 1956.6 L555.2 1957.7 M555.2 1957.7 L552.3 1960.2 M555.2 1957.7 L551.6 1956.6 M560.6 1956.6 L556.8 1952.7 M556.8 1952.7 L553.1 1951.5 M556.8 1952.7 L555.7 1949.0 M893.4 1992.1 L884.4 1984.1 M884.4 1984.1 L876.5 1982.2 M876.5 1982.2 L871.1 1983.7 M871.1 1983.7 L868.4 1986.3 M871.1 1983.7 L867.5 1982.9 M876.5 1982.2 L872.3 1978.5 M872.3 1978.5 L868.7 1977.7 M872.3 1978.5 L871.1 1975.0 M884.4 1984.1 L881.7 1976.4 M881.7 1976.4 L877.5 1972.7 M877.5 1972.7 L873.9 1971.8 M877.5 1972.7 L876.3 1969.1 M881.7 1976.4 L882.6 1970.9 M882.6 1970.9 L881.3 1967.3 M882.6 1970.9 L884.9 1967.9 M1289.7 1861.5 L1278.0 1859.2 M1278.0 1859.2 L1270.2 1861.6 M1270.2 1861.6 L1266.3 1865.6 M1266.3 1865.6 L1265.3 1869.2 M1266.3 1865.6 L1262.7 1866.7 M1270.2 1861.6 L1264.7 1860.5 M1264.7 1860.5 L1261.1 1861.7 M1264.7 1860.5 L1261.8 1858.1 M1278.0 1859.2 L1271.7 1853.9 M1271.7 1853.9 L1266.3 1852.9 M1266.3 1852.9 L1262.7 1854.0 M1266.3 1852.9 L1263.4 1850.4 M1271.7 1853.9 L1269.7 1848.8 M1269.7 1848.8 L1266.8 1846.4 M1269.7 1848.8 L1270.2 1845.0 M1529.7 1975.4 L1522.5 1985.0 M1522.5 1985.0 L1521.3 1993.1 M1521.3 1993.1 L1523.3 1998.3 M1523.3 1998.3 L1526.1 2000.7 M1523.3 1998.3 L1522.7 2002.0 M1521.3 1993.1 L1518.0 1997.5 M1518.0 1997.5 L1517.5 2001.2 M1518.0 1997.5 L1514.6 1999.1 M1522.5 1985.0 L1515.1 1988.4 M1515.1 1988.4 L1511.7 1992.8 M1511.7 1992.8 L1511.2 1996.6 M1511.7 1992.8 L1508.3 1994.4 M1515.1 1988.4 L1509.5 1988.0 M1509.5 1988.0 L1506.1 1989.6 M1509.5 1988.0 L1506.4 1985.9 M120.9 2084.0 L108.9 2083.4 M108.9 2083.4 L101.5 2087.0 M101.5 2087.0 L98.3 2091.5 M98.3 2091.5 L97.9 2095.2 M98.3 2091.5 L94.9 2093.1 M101.5 2087.0 L96.0 2086.7 M96.0 2086.7 L92.6 2088.4 M96.0 2086.7 L92.8 2084.7 M108.9 2083.4 L101.9 2079.2 M101.9 2079.2 L96.4 2078.9 M96.4 2078.9 L93.0 2080.5 M96.4 2078.9 L93.1 2076.9 M101.9 2079.2 L99.1 2074.4 M99.1 2074.4 L95.9 2072.4 M99.1 2074.4 L99.1 2070.6 M718.7 2098.3 L707.3 2094.6 M707.3 2094.6 L699.2 2096.1 M699.2 2096.1 L694.9 2099.6 M694.9 2099.6 L693.5 2103.1 M694.9 2099.6 L691.2 2100.3 M699.2 2096.1 L694.0 2094.4 M694.0 2094.4 L690.3 2095.1 M694.0 2094.4 L691.4 2091.6 M707.3 2094.6 L701.6 2088.6 M701.6 2088.6 L696.4 2086.9 M696.4 2086.9 L692.7 2087.6 M696.4 2086.9 L693.8 2084.2 M701.6 2088.6 L700.2 2083.3 M700.2 2083.3 L697.6 2080.5 M700.2 2083.3 L701.1 2079.6 M911.0 2093.7 L916.8 2104.2 M916.8 2104.2 L923.7 2108.6 M923.7 2108.6 L929.2 2108.9 M929.2 2108.9 L932.7 2107.3 M929.2 2108.9 L932.4 2110.9 M923.7 2108.6 L926.4 2113.4 M926.4 2113.4 L929.6 2115.4 M926.4 2113.4 L926.4 2117.2 M916.8 2104.2 L916.9 2112.4 M916.9 2112.4 L919.6 2117.2 M919.6 2117.2 L922.8 2119.2 M919.6 2117.2 L919.6 2121.0 M916.9 2112.4 L914.2 2117.3 M914.2 2117.3 L914.3 2121.0 M914.2 2117.3 L911.1 2119.3 M1146.3 2166.4 L1146.7 2178.4 M1146.7 2178.4 L1150.8 2185.4 M1150.8 2185.4 L1155.6 2188.2 M1155.6 2188.2 L1159.4 2188.4 M1155.6 2188.2 L1157.5 2191.5 M1150.8 2185.4 L1151.0 2190.9 M1151.0 2190.9 L1153.0 2194.2 M1151.0 2190.9 L1149.3 2194.3 M1146.7 2178.4 L1143.0 2185.7 M1143.0 2185.7 L1143.2 2191.2 M1143.2 2191.2 L1145.1 2194.5 M1143.2 2191.2 L1141.5 2194.6 M1143.0 2185.7 L1138.5 2188.8 M1138.5 2188.8 L1136.8 2192.2 M1138.5 2188.8 L1134.7 2189.2 M1509.9 2132.7 L1498.3 2135.8 M1498.3 2135.8 L1492.4 2141.4 M1492.4 2141.4 L1490.7 2146.7 M1490.7 2146.7 L1491.4 2150.4 M1490.7 2146.7 L1487.9 2149.3 M1492.4 2141.4 L1487.0 2142.8 M1487.0 2142.8 L1484.3 2145.4 M1487.0 2142.8 L1483.4 2141.9 M1498.3 2135.8 L1490.4 2133.8 M1490.4 2133.8 L1485.0 2135.2 M1485.0 2135.2 L1482.3 2137.8 M1485.0 2135.2 L1481.4 2134.3 M1490.4 2133.8 L1486.3 2130.1 M1486.3 2130.1 L1482.6 2129.2 M1486.3 2130.1 L1485.1 2126.5 M737.6 2500.7 L738.5 2488.7 M738.5 2488.7 L735.2 2481.3 M735.2 2481.3 L730.8 2477.9 M730.8 2477.9 L727.0 2477.4 M730.8 2477.9 L729.2 2474.5 M735.2 2481.3 L735.6 2475.7 M735.6 2475.7 L734.1 2472.3 M735.6 2475.7 L737.7 2472.6 M738.5 2488.7 L743.0 2481.9 M743.0 2481.9 L743.4 2476.4 M743.4 2476.4 L741.9 2472.9 M743.4 2476.4 L745.5 2473.2 M743.0 2481.9 L747.9 2479.3 M747.9 2479.3 L749.9 2476.1 M747.9 2479.3 L751.6 2479.3 M942.0 2401.2 L953.5 2397.5 M953.5 2397.5 L959.1 2391.5 M959.1 2391.5 L960.5 2386.2 M960.5 2386.2 L959.6 2382.5 M960.5 2386.2 L963.1 2383.4 M959.1 2391.5 L964.3 2389.8 M964.3 2389.8 L966.9 2387.1 M964.3 2389.8 L968.0 2390.5 M953.5 2397.5 L961.5 2399.0 M961.5 2399.0 L966.7 2397.3 M966.7 2397.3 L969.3 2394.5 M966.7 2397.3 L970.5 2398.0 M961.5 2399.0 L965.8 2402.5 M965.8 2402.5 L969.5 2403.2 M965.8 2402.5 L967.2 2406.0 M1217.2 2424.7 L1226.0 2416.6 M1226.0 2416.6 L1228.7 2408.9 M1228.7 2408.9 L1227.8 2403.4 M1227.8 2403.4 L1225.5 2400.4 M1227.8 2403.4 L1229.0 2399.8 M1228.7 2408.9 L1232.8 2405.2 M1232.8 2405.2 L1234.1 2401.6 M1232.8 2405.2 L1236.5 2404.3 M1226.0 2416.6 L1234.0 2414.7 M1234.0 2414.7 L1238.1 2410.9 M1238.1 2410.9 L1239.3 2407.4 M1238.1 2410.9 L1241.8 2410.1 M1234.0 2414.7 L1239.3 2416.1 M1239.3 2416.1 L1243.0 2415.2 M1239.3 2416.1 L1242.1 2418.7 M1406.6 2438.1 L1418.6 2438.2 M1418.6 2438.2 L1425.8 2434.4 M1425.8 2434.4 L1428.9 2429.8 M1428.9 2429.8 L1429.2 2426.0 M1428.9 2429.8 L1432.2 2428.0 M1425.8 2434.4 L1431.4 2434.5 M1431.4 2434.5 L1434.7 2432.7 M1431.4 2434.5 L1434.7 2436.3 M1418.6 2438.2 L1425.7 2442.2 M1425.7 2442.2 L1431.3 2442.3 M1431.3 2442.3 L1434.6 2440.5 M1431.3 2442.3 L1434.6 2444.2 M1425.7 2442.2 L1428.7 2446.9 M1428.7 2446.9 L1431.9 2448.8 M1428.7 2446.9 L1428.9 2450.7" stroke-width="0.8" opacity="0.028"/><path d="M93.8 104.8 L76.3 97.3 M76.3 97.3 L63.4 98.5 M63.4 98.5 L56.2 103.5 M56.2 103.5 L53.4 108.8 M53.4 108.8 L53.5 112.8 M53.4 108.8 L50.1 111.0 M56.2 103.5 L50.2 104.0 M50.2 104.0 L46.8 106.3 M50.2 104.0 L46.5 102.4 M63.4 98.5 L55.4 95.1 M55.4 95.1 L49.4 95.6 M49.4 95.6 L46.1 97.9 M49.4 95.6 L45.7 94.0 M55.4 95.1 L51.7 90.4 M51.7 90.4 L48.0 88.8 M51.7 90.4 L51.0 86.4 M76.3 97.3 L68.3 87.2 M68.3 87.2 L60.3 83.7 M60.3 83.7 L54.3 84.2 M54.3 84.2 L50.9 86.5 M54.3 84.2 L50.6 82.6 M60.3 83.7 L56.6 79.0 M56.6 79.0 L52.8 77.4 M56.6 79.0 L55.9 75.0 M68.3 87.2 L66.9 78.5 M66.9 78.5 L63.2 73.8 M63.2 73.8 L59.5 72.2 M63.2 73.8 L62.5 69.8 M66.9 78.5 L68.9 72.8 M68.9 72.8 L68.2 68.8 M68.9 72.8 L71.9 70.1 M917.1 93.6 L906.3 109.2 M906.3 109.2 L905.0 122.1 M905.0 122.1 L908.4 130.2 M908.4 130.2 L913.1 133.9 M913.1 133.9 L917.1 134.6 M913.1 133.9 L914.7 137.6 M908.4 130.2 L907.8 136.1 M907.8 136.1 L909.4 139.9 M907.8 136.1 L905.5 139.5 M905.0 122.1 L900.1 129.3 M900.1 129.3 L899.4 135.3 M899.4 135.3 L901.0 139.0 M899.4 135.3 L897.2 138.6 M900.1 129.3 L894.7 132.0 M894.7 132.0 L892.4 135.4 M894.7 132.0 L890.7 131.9 M906.3 109.2 L894.8 115.1 M894.8 115.1 L889.8 122.3 M889.8 122.3 L889.2 128.3 M889.2 128.3 L890.8 132.0 M889.2 128.3 L886.9 131.6 M889.8 122.3 L884.5 125.0 M884.5 125.0 L882.2 128.4 M884.5 125.0 L880.4 124.9 M894.8 115.1 L886.0 114.8 M886.0 114.8 L880.7 117.5 M880.7 117.5 L878.4 120.9 M880.7 117.5 L876.6 117.4 M886.0 114.8 L880.9 111.8 M880.9 111.8 L876.8 111.7 M880.9 111.8 L878.8 108.3 M1128.5 68.5 L1113.6 56.6 M1113.6 56.6 L1100.9 54.3 M1100.9 54.3 L1092.6 57.1 M1092.6 57.1 L1088.5 61.5 M1088.5 61.5 L1087.5 65.4 M1088.5 61.5 L1084.7 62.8 M1092.6 57.1 L1086.7 56.0 M1086.7 56.0 L1082.9 57.3 M1086.7 56.0 L1083.5 53.5 M1100.9 54.3 L1094.1 48.8 M1094.1 48.8 L1088.2 47.7 M1088.2 47.7 L1084.3 49.0 M1088.2 47.7 L1085.0 45.2 M1094.1 48.8 L1091.8 43.3 M1091.8 43.3 L1088.6 40.7 M1091.8 43.3 L1092.2 39.2 M1113.6 56.6 L1108.7 44.6 M1108.7 44.6 L1101.8 39.1 M1101.8 39.1 L1095.9 38.1 M1095.9 38.1 L1092.1 39.4 M1095.9 38.1 L1092.8 35.5 M1101.8 39.1 L1099.5 33.6 M1099.5 33.6 L1096.4 31.1 M1099.5 33.6 L1100.0 29.6 M1108.7 44.6 L1109.6 35.9 M1109.6 35.9 L1107.3 30.4 M1107.3 30.4 L1104.1 27.8 M1107.3 30.4 L1107.7 26.3 M1109.6 35.9 L1113.0 31.0 M1113.0 31.0 L1113.4 26.9 M1113.0 31.0 L1116.6 29.2 M1373.6 82.9 L1384.9 98.1 M1384.9 98.1 L1396.6 103.5 M1396.6 103.5 L1405.4 102.9 M1405.4 102.9 L1410.4 99.7 M1410.4 99.7 L1412.4 96.2 M1410.4 99.7 L1414.5 99.4 M1405.4 102.9 L1410.8 105.4 M1410.8 105.4 L1414.9 105.2 M1410.8 105.4 L1413.2 108.7 M1396.6 103.5 L1401.8 110.6 M1401.8 110.6 L1407.3 113.1 M1407.3 113.1 L1411.3 112.8 M1407.3 113.1 L1409.7 116.3 M1401.8 110.6 L1402.7 116.5 M1402.7 116.5 L1405.1 119.8 M1402.7 116.5 L1401.2 120.3 M1384.9 98.1 L1386.7 110.9 M1386.7 110.9 L1391.9 118.0 M1391.9 118.0 L1397.3 120.5 M1397.3 120.5 L1401.4 120.2 M1397.3 120.5 L1399.7 123.7 M1391.9 118.0 L1392.7 123.9 M1392.7 123.9 L1395.1 127.1 M1392.7 123.9 L1391.3 127.7 M1386.7 110.9 L1383.6 119.1 M1383.6 119.1 L1384.4 125.0 M1384.4 125.0 L1386.8 128.3 M1384.4 125.0 L1382.9 128.8 M1383.6 119.1 L1379.0 123.0 M1379.0 123.0 L1377.6 126.8 M1379.0 123.0 L1375.0 123.9 M1547.3 570.6 L1561.2 583.6 M1561.2 583.6 L1573.7 586.8 M1573.7 586.8 L1582.2 584.7 M1582.2 584.7 L1586.6 580.7 M1586.6 580.7 L1587.9 576.8 M1586.6 580.7 L1590.5 579.7 M1582.2 584.7 L1588.0 586.2 M1588.0 586.2 L1591.9 585.2 M1588.0 586.2 L1590.9 589.0 M1573.7 586.8 L1580.1 592.9 M1580.1 592.9 L1585.9 594.4 M1585.9 594.4 L1589.8 593.4 M1585.9 594.4 L1588.8 597.1 M1580.1 592.9 L1581.9 598.5 M1581.9 598.5 L1584.9 601.3 M1581.9 598.5 L1581.2 602.5 M1561.2 583.6 L1565.2 595.9 M1565.2 595.9 L1571.6 601.9 M1571.6 601.9 L1577.4 603.4 M1577.4 603.4 L1581.3 602.4 M1577.4 603.4 L1580.3 606.2 M1571.6 601.9 L1573.4 607.6 M1573.4 607.6 L1576.4 610.3 M1573.4 607.6 L1572.7 611.6 M1565.2 595.9 L1563.6 604.5 M1563.6 604.5 L1565.4 610.2 M1565.4 610.2 L1568.4 613.0 M1565.4 610.2 L1564.7 614.2 M1563.6 604.5 L1559.8 609.1 M1559.8 609.1 L1559.1 613.1 M1559.8 609.1 L1556.0 610.7 M1503.3 841.2 L1487.2 831.1 M1487.2 831.1 L1474.3 830.4 M1474.3 830.4 L1466.3 834.2 M1466.3 834.2 L1462.8 839.0 M1462.8 839.0 L1462.3 843.1 M1462.8 839.0 L1459.2 840.8 M1466.3 834.2 L1460.4 833.9 M1460.4 833.9 L1456.7 835.6 M1460.4 833.9 L1456.9 831.7 M1474.3 830.4 L1466.8 825.8 M1466.8 825.8 L1460.8 825.5 M1460.8 825.5 L1457.2 827.2 M1460.8 825.5 L1457.4 823.3 M1466.8 825.8 L1463.9 820.6 M1463.9 820.6 L1460.4 818.4 M1463.9 820.6 L1463.8 816.5 M1487.2 831.1 L1480.8 819.9 M1480.8 819.9 L1473.3 815.3 M1473.3 815.3 L1467.4 814.9 M1467.4 814.9 L1463.7 816.7 M1467.4 814.9 L1463.9 812.8 M1473.3 815.3 L1470.4 810.1 M1470.4 810.1 L1466.9 807.9 M1470.4 810.1 L1470.3 806.0 M1480.8 819.9 L1480.7 811.1 M1480.7 811.1 L1477.7 805.9 M1477.7 805.9 L1474.3 803.8 M1477.7 805.9 L1477.7 801.8 M1480.7 811.1 L1483.5 805.8 M1483.5 805.8 L1483.4 801.8 M1483.5 805.8 L1486.8 803.6 M1516.2 1081.7 L1529.3 1095.5 M1529.3 1095.5 L1541.6 1099.5 M1541.6 1099.5 L1550.2 1097.8 M1550.2 1097.8 L1554.8 1094.0 M1554.8 1094.0 L1556.4 1090.3 M1554.8 1094.0 L1558.8 1093.3 M1550.2 1097.8 L1555.9 1099.7 M1555.9 1099.7 L1559.9 1098.9 M1555.9 1099.7 L1558.7 1102.6 M1541.6 1099.5 L1547.7 1105.9 M1547.7 1105.9 L1553.3 1107.7 M1553.3 1107.7 L1557.3 1106.9 M1553.3 1107.7 L1556.1 1110.6 M1547.7 1105.9 L1549.2 1111.6 M1549.2 1111.6 L1552.0 1114.6 M1549.2 1111.6 L1548.2 1115.6 M1529.3 1095.5 L1532.6 1108.0 M1532.6 1108.0 L1538.7 1114.4 M1538.7 1114.4 L1544.4 1116.2 M1544.4 1116.2 L1548.4 1115.4 M1544.4 1116.2 L1547.2 1119.2 M1538.7 1114.4 L1540.2 1120.2 M1540.2 1120.2 L1543.0 1123.1 M1540.2 1120.2 L1539.2 1124.1 M1532.6 1108.0 L1530.5 1116.5 M1530.5 1116.5 L1532.1 1122.3 M1532.1 1122.3 L1534.9 1125.3 M1532.1 1122.3 L1531.1 1126.3 M1530.5 1116.5 L1526.5 1121.0 M1526.5 1121.0 L1525.5 1124.9 M1526.5 1121.0 L1522.7 1122.3 M234.5 1385.9 L252.9 1390.7 M252.9 1390.7 L265.4 1387.6 M265.4 1387.6 L271.9 1381.7 M271.9 1381.7 L273.8 1376.0 M273.8 1376.0 L273.1 1372.0 M273.8 1376.0 L276.8 1373.3 M271.9 1381.7 L277.7 1380.3 M277.7 1380.3 L280.7 1377.5 M277.7 1380.3 L281.6 1381.3 M265.4 1387.6 L273.9 1389.9 M273.9 1389.9 L279.7 1388.4 M279.7 1388.4 L282.7 1385.7 M279.7 1388.4 L283.6 1389.5 M273.9 1389.9 L278.3 1394.0 M278.3 1394.0 L282.2 1395.0 M278.3 1394.0 L279.5 1397.8 M252.9 1390.7 L262.3 1399.6 M262.3 1399.6 L270.8 1401.8 M270.8 1401.8 L276.6 1400.4 M276.6 1400.4 L279.6 1397.7 M276.6 1400.4 L280.5 1401.4 M270.8 1401.8 L275.1 1405.9 M275.1 1405.9 L279.0 1407.0 M275.1 1405.9 L276.3 1409.8 M262.3 1399.6 L265.0 1408.0 M265.0 1408.0 L269.3 1412.1 M269.3 1412.1 L273.2 1413.1 M269.3 1412.1 L270.5 1415.9 M265.0 1408.0 L263.8 1413.8 M263.8 1413.8 L265.1 1417.7 M263.8 1413.8 L261.3 1417.0 M373.4 1427.2 L384.7 1411.9 M384.7 1411.9 L386.5 1399.1 M386.5 1399.1 L383.4 1390.9 M383.4 1390.9 L378.8 1387.0 M378.8 1387.0 L374.8 1386.2 M378.8 1387.0 L377.4 1383.2 M383.4 1390.9 L384.2 1385.0 M384.2 1385.0 L382.7 1381.2 M384.2 1385.0 L386.6 1381.7 M386.5 1399.1 L391.7 1392.0 M391.7 1392.0 L392.5 1386.1 M392.5 1386.1 L391.1 1382.3 M392.5 1386.1 L394.9 1382.9 M391.7 1392.0 L397.1 1389.5 M397.1 1389.5 L399.5 1386.3 M397.1 1389.5 L401.2 1389.8 M384.7 1411.9 L396.5 1406.5 M396.5 1406.5 L401.7 1399.4 M401.7 1399.4 L402.5 1393.5 M402.5 1393.5 L401.0 1389.7 M402.5 1393.5 L404.9 1390.2 M401.7 1399.4 L407.1 1396.9 M407.1 1396.9 L409.5 1393.6 M407.1 1396.9 L411.2 1397.2 M396.5 1406.5 L405.2 1407.0 M405.2 1407.0 L410.6 1404.5 M410.6 1404.5 L413.1 1401.3 M410.6 1404.5 L414.7 1404.8 M405.2 1407.0 L410.3 1410.2 M410.3 1410.2 L414.3 1410.5 M410.3 1410.2 L412.2 1413.8 M788.6 1412.4 L781.6 1430.1 M781.6 1430.1 L783.2 1442.9 M783.2 1442.9 L788.4 1450.1 M788.4 1450.1 L793.8 1452.6 M793.8 1452.6 L797.8 1452.4 M793.8 1452.6 L796.1 1455.9 M788.4 1450.1 L789.1 1456.0 M789.1 1456.0 L791.5 1459.3 M789.1 1456.0 L787.6 1459.8 M783.2 1442.9 L780.0 1451.1 M780.0 1451.1 L780.8 1457.0 M780.8 1457.0 L783.1 1460.3 M780.8 1457.0 L779.3 1460.8 M780.0 1451.1 L775.4 1454.9 M775.4 1454.9 L773.9 1458.7 M775.4 1454.9 L771.5 1455.7 M781.6 1430.1 L771.7 1438.4 M771.7 1438.4 L768.5 1446.6 M768.5 1446.6 L769.2 1452.5 M769.2 1452.5 L771.6 1455.8 M769.2 1452.5 L767.8 1456.3 M768.5 1446.6 L763.9 1450.4 M763.9 1450.4 L762.4 1454.2 M763.9 1450.4 L759.9 1451.2 M771.7 1438.4 L763.1 1440.1 M763.1 1440.1 L758.5 1443.9 M758.5 1443.9 L757.0 1447.7 M758.5 1443.9 L754.5 1444.7 M763.1 1440.1 L757.4 1438.3 M757.4 1438.3 L753.4 1439.1 M757.4 1438.3 L754.6 1435.4 M1013.8 1393.1 L995.2 1389.2 M995.2 1389.2 L982.8 1393.0 M982.8 1393.0 L976.7 1399.2 M976.7 1399.2 L975.0 1405.0 M975.0 1405.0 L975.9 1409.0 M975.0 1405.0 L972.2 1407.9 M976.7 1399.2 L970.9 1401.0 M970.9 1401.0 L968.1 1403.9 M970.9 1401.0 L967.0 1400.1 M982.8 1393.0 L974.2 1391.2 M974.2 1391.2 L968.5 1392.9 M968.5 1392.9 L965.7 1395.8 M968.5 1392.9 L964.5 1392.1 M974.2 1391.2 L969.7 1387.3 M969.7 1387.3 L965.7 1386.5 M969.7 1387.3 L968.2 1383.5 M995.2 1389.2 L985.4 1380.9 M985.4 1380.9 L976.8 1379.1 M976.8 1379.1 L971.0 1380.8 M971.0 1380.8 L968.2 1383.7 M971.0 1380.8 L967.1 1380.0 M976.8 1379.1 L972.2 1375.2 M972.2 1375.2 L968.2 1374.3 M972.2 1375.2 L970.8 1371.4 M985.4 1380.9 L982.2 1372.6 M982.2 1372.6 L977.7 1368.8 M977.7 1368.8 L973.7 1367.9 M977.7 1368.8 L976.2 1365.0 M982.2 1372.6 L983.0 1366.7 M983.0 1366.7 L981.6 1362.9 M983.0 1366.7 L985.4 1363.5 M1456.4 1439.9 L1451.6 1458.3 M1451.6 1458.3 L1454.8 1470.8 M1454.8 1470.8 L1460.7 1477.3 M1460.7 1477.3 L1466.4 1479.2 M1466.4 1479.2 L1470.4 1478.5 M1466.4 1479.2 L1469.1 1482.2 M1460.7 1477.3 L1462.2 1483.1 M1462.2 1483.1 L1464.9 1486.1 M1462.2 1483.1 L1461.2 1487.0 M1454.8 1470.8 L1452.6 1479.3 M1452.6 1479.3 L1454.0 1485.1 M1454.0 1485.1 L1456.8 1488.1 M1454.0 1485.1 L1453.0 1489.1 M1452.6 1479.3 L1448.5 1483.7 M1448.5 1483.7 L1447.4 1487.6 M1448.5 1483.7 L1444.6 1485.0 M1451.6 1458.3 L1442.8 1467.7 M1442.8 1467.7 L1440.6 1476.2 M1440.6 1476.2 L1442.0 1482.0 M1442.0 1482.0 L1444.8 1485.0 M1442.0 1482.0 L1441.0 1485.9 M1440.6 1476.2 L1436.5 1480.6 M1436.5 1480.6 L1435.4 1484.5 M1436.5 1480.6 L1432.6 1481.8 M1442.8 1467.7 L1434.4 1470.4 M1434.4 1470.4 L1430.3 1474.8 M1430.3 1474.8 L1429.3 1478.7 M1430.3 1474.8 L1426.5 1476.1 M1434.4 1470.4 L1428.6 1469.4 M1428.6 1469.4 L1424.7 1470.6 M1428.6 1469.4 L1425.4 1466.8 M88.1 1786.6 L107.1 1786.0 M107.1 1786.0 L118.2 1779.4 M118.2 1779.4 L122.7 1771.8 M122.7 1771.8 L122.9 1765.9 M122.9 1765.9 L121.1 1762.2 M122.9 1765.9 L125.0 1762.4 M122.7 1771.8 L127.8 1768.8 M127.8 1768.8 L129.9 1765.3 M127.8 1768.8 L131.9 1768.7 M118.2 1779.4 L127.0 1779.1 M127.0 1779.1 L132.1 1776.1 M132.1 1776.1 L134.2 1772.6 M132.1 1776.1 L136.2 1775.9 M127.0 1779.1 L132.3 1781.8 M132.3 1781.8 L136.4 1781.6 M132.3 1781.8 L134.6 1785.1 M107.1 1786.0 L118.6 1791.8 M118.6 1791.8 L127.4 1791.5 M127.4 1791.5 L132.6 1788.4 M132.6 1788.4 L134.6 1784.9 M132.6 1788.4 L136.6 1788.3 M127.4 1791.5 L132.8 1794.2 M132.8 1794.2 L136.8 1794.0 M132.8 1794.2 L135.1 1797.5 M118.6 1791.8 L123.6 1799.0 M123.6 1799.0 L129.0 1801.7 M129.0 1801.7 L133.0 1801.5 M129.0 1801.7 L131.3 1805.0 M123.6 1799.0 L124.3 1804.9 M124.3 1804.9 L126.6 1808.3 M124.3 1804.9 L122.7 1808.7 M432.9 1800.1 L432.1 1819.1 M432.1 1819.1 L437.9 1830.7 M437.9 1830.7 L445.1 1835.7 M445.1 1835.7 L451.0 1836.4 M451.0 1836.4 L454.8 1834.8 M451.0 1836.4 L454.4 1838.7 M445.1 1835.7 L447.8 1841.1 M447.8 1841.1 L451.1 1843.4 M447.8 1841.1 L447.6 1845.1 M437.9 1830.7 L437.6 1839.5 M437.6 1839.5 L440.2 1844.8 M440.2 1844.8 L443.5 1847.1 M440.2 1844.8 L440.0 1848.9 M437.6 1839.5 L434.5 1844.6 M434.5 1844.6 L434.3 1848.7 M434.5 1844.6 L431.0 1846.7 M432.1 1819.1 L425.5 1830.2 M425.5 1830.2 L425.2 1839.0 M425.2 1839.0 L427.8 1844.3 M427.8 1844.3 L431.2 1846.7 M427.8 1844.3 L427.7 1848.4 M425.2 1839.0 L422.1 1844.1 M422.1 1844.1 L421.9 1848.2 M422.1 1844.1 L418.6 1846.2 M425.5 1830.2 L417.9 1834.7 M417.9 1834.7 L414.9 1839.8 M414.9 1839.8 L414.7 1843.8 M414.9 1839.8 L411.4 1841.8 M417.9 1834.7 L412.0 1834.8 M412.0 1834.8 L408.5 1836.9 M412.0 1834.8 L408.3 1833.0 M830.6 1879.8 L819.2 1895.0 M819.2 1895.0 L817.4 1907.8 M817.4 1907.8 L820.4 1916.0 M820.4 1916.0 L825.0 1919.9 M825.0 1919.9 L828.9 1920.8 M825.0 1919.9 L826.4 1923.7 M820.4 1916.0 L819.6 1921.9 M819.6 1921.9 L821.0 1925.7 M819.6 1921.9 L817.2 1925.2 M817.4 1907.8 L812.1 1914.8 M812.1 1914.8 L811.3 1920.7 M811.3 1920.7 L812.7 1924.5 M811.3 1920.7 L808.8 1924.0 M812.1 1914.8 L806.7 1917.3 M806.7 1917.3 L804.2 1920.6 M806.7 1917.3 L802.6 1917.0 M819.2 1895.0 L807.4 1900.4 M807.4 1900.4 L802.2 1907.4 M802.2 1907.4 L801.3 1913.3 M801.3 1913.3 L802.8 1917.1 M801.3 1913.3 L798.9 1916.6 M802.2 1907.4 L796.8 1909.9 M796.8 1909.9 L794.3 1913.1 M796.8 1909.9 L792.7 1909.6 M807.4 1900.4 L798.7 1899.7 M798.7 1899.7 L793.2 1902.2 M793.2 1902.2 L790.8 1905.5 M793.2 1902.2 L789.2 1901.9 M798.7 1899.7 L793.7 1896.5 M793.7 1896.5 L789.6 1896.2 M793.7 1896.5 L791.7 1893.0 M1175.9 1762.7 L1157.2 1759.2 M1157.2 1759.2 L1144.9 1763.3 M1144.9 1763.3 L1138.9 1769.7 M1138.9 1769.7 L1137.4 1775.5 M1137.4 1775.5 L1138.4 1779.4 M1137.4 1775.5 L1134.7 1778.5 M1138.9 1769.7 L1133.2 1771.6 M1133.2 1771.6 L1130.5 1774.5 M1133.2 1771.6 L1129.2 1770.8 M1144.9 1763.3 L1136.3 1761.7 M1136.3 1761.7 L1130.6 1763.6 M1130.6 1763.6 L1127.8 1766.5 M1130.6 1763.6 L1126.6 1762.8 M1136.3 1761.7 L1131.6 1757.9 M1131.6 1757.9 L1127.6 1757.2 M1131.6 1757.9 L1130.1 1754.2 M1157.2 1759.2 L1147.2 1751.1 M1147.2 1751.1 L1138.5 1749.5 M1138.5 1749.5 L1132.8 1751.4 M1132.8 1751.4 L1130.1 1754.4 M1132.8 1751.4 L1128.8 1750.7 M1138.5 1749.5 L1133.9 1745.8 M1133.9 1745.8 L1129.9 1745.0 M1133.9 1745.8 L1132.3 1742.0 M1147.2 1751.1 L1143.8 1743.0 M1143.8 1743.0 L1139.2 1739.2 M1139.2 1739.2 L1135.2 1738.5 M1139.2 1739.2 L1137.6 1735.5 M1143.8 1743.0 L1144.5 1737.0 M1144.5 1737.0 L1142.9 1733.3 M1144.5 1737.0 L1146.8 1733.7 M1425.5 1650.6 L1425.0 1669.6 M1425.0 1669.6 L1430.9 1681.1 M1430.9 1681.1 L1438.2 1686.0 M1438.2 1686.0 L1444.1 1686.6 M1444.1 1686.6 L1447.9 1685.0 M1444.1 1686.6 L1447.5 1688.9 M1438.2 1686.0 L1440.9 1691.3 M1440.9 1691.3 L1444.3 1693.6 M1440.9 1691.3 L1440.8 1695.4 M1430.9 1681.1 L1430.7 1689.9 M1430.7 1689.9 L1433.4 1695.2 M1433.4 1695.2 L1436.8 1697.5 M1433.4 1695.2 L1433.3 1699.2 M1430.7 1689.9 L1427.7 1695.0 M1427.7 1695.0 L1427.6 1699.1 M1427.7 1695.0 L1424.2 1697.1 M1425.0 1669.6 L1418.5 1680.7 M1418.5 1680.7 L1418.3 1689.5 M1418.3 1689.5 L1421.0 1694.8 M1421.0 1694.8 L1424.4 1697.1 M1421.0 1694.8 L1420.9 1698.9 M1418.3 1689.5 L1415.3 1694.7 M1415.3 1694.7 L1415.2 1698.8 M1415.3 1694.7 L1411.8 1696.8 M1418.5 1680.7 L1411.0 1685.3 M1411.0 1685.3 L1408.0 1690.5 M1408.0 1690.5 L1407.9 1694.5 M1408.0 1690.5 L1404.5 1692.6 M1411.0 1685.3 L1405.0 1685.6 M1405.0 1685.6 L1401.6 1687.7 M1405.0 1685.6 L1401.4 1683.8 M178.5 2066.9 L191.9 2053.4 M191.9 2053.4 L195.5 2041.0 M195.5 2041.0 L193.6 2032.4 M193.6 2032.4 L189.7 2027.9 M189.7 2027.9 L185.9 2026.5 M189.7 2027.9 L188.8 2023.9 M193.6 2032.4 L195.3 2026.7 M195.3 2026.7 L194.4 2022.7 M195.3 2026.7 L198.1 2023.8 M195.5 2041.0 L201.7 2034.8 M201.7 2034.8 L203.4 2029.0 M203.4 2029.0 L202.5 2025.0 M203.4 2029.0 L206.2 2026.1 M201.7 2034.8 L207.4 2033.1 M207.4 2033.1 L210.3 2030.2 M207.4 2033.1 L211.4 2033.9 M191.9 2053.4 L204.3 2049.7 M204.3 2049.7 L210.5 2043.5 M210.5 2043.5 L212.1 2037.7 M212.1 2037.7 L211.3 2033.8 M212.1 2037.7 L215.0 2034.9 M210.5 2043.5 L216.2 2041.8 M216.2 2041.8 L219.1 2038.9 M216.2 2041.8 L220.2 2042.6 M204.3 2049.7 L212.9 2051.6 M212.9 2051.6 L218.6 2049.9 M218.6 2049.9 L221.5 2047.0 M218.6 2049.9 L222.6 2050.7 M212.9 2051.6 L217.4 2055.5 M217.4 2055.5 L221.4 2056.3 M217.4 2055.5 L218.8 2059.3 M554.7 2002.4 L538.7 1992.3 M538.7 1992.3 L525.8 1991.4 M525.8 1991.4 L517.8 1995.1 M517.8 1995.1 L514.3 1999.9 M514.3 1999.9 L513.7 2004.0 M514.3 1999.9 L510.6 2001.6 M517.8 1995.1 L511.9 1994.7 M511.9 1994.7 L508.2 1996.5 M511.9 1994.7 L508.4 1992.6 M525.8 1991.4 L518.4 1986.7 M518.4 1986.7 L512.4 1986.3 M512.4 1986.3 L508.7 1988.0 M512.4 1986.3 L509.0 1984.2 M518.4 1986.7 L515.5 1981.5 M515.5 1981.5 L512.0 1979.3 M515.5 1981.5 L515.4 1977.4 M538.7 1992.3 L532.4 1981.0 M532.4 1981.0 L525.0 1976.3 M525.0 1976.3 L519.0 1975.9 M519.0 1975.9 L515.3 1977.6 M519.0 1975.9 L515.6 1973.7 M525.0 1976.3 L522.1 1971.0 M522.1 1971.0 L518.7 1968.9 M522.1 1971.0 L522.1 1967.0 M532.4 1981.0 L532.4 1972.2 M532.4 1972.2 L529.5 1966.9 M529.5 1966.9 L526.0 1964.8 M529.5 1966.9 L529.4 1962.9 M532.4 1972.2 L535.2 1966.9 M535.2 1966.9 L535.2 1962.9 M535.2 1966.9 L538.6 1964.7 M870.9 1976.9 L866.2 1958.5 M866.2 1958.5 L857.3 1949.0 M857.3 1949.0 L849.0 1946.3 M849.0 1946.3 L843.1 1947.4 M843.1 1947.4 L839.9 1949.9 M843.1 1947.4 L839.2 1946.1 M849.0 1946.3 L844.9 1941.9 M844.9 1941.9 L841.0 1940.7 M844.9 1941.9 L843.9 1938.0 M857.3 1949.0 L855.1 1940.5 M855.1 1940.5 L851.0 1936.2 M851.0 1936.2 L847.2 1934.9 M851.0 1936.2 L850.0 1932.2 M855.1 1940.5 L856.6 1934.7 M856.6 1934.7 L855.6 1930.8 M856.6 1934.7 L859.3 1931.8 M866.2 1958.5 L869.3 1945.9 M869.3 1945.9 L867.1 1937.4 M867.1 1937.4 L863.0 1933.1 M863.0 1933.1 L859.2 1931.8 M863.0 1933.1 L862.0 1929.2 M867.1 1937.4 L868.6 1931.7 M868.6 1931.7 L867.6 1927.7 M868.6 1931.7 L871.3 1928.7 M869.3 1945.9 L875.3 1939.5 M875.3 1939.5 L876.8 1933.7 M876.8 1933.7 L875.7 1929.8 M876.8 1933.7 L879.5 1930.7 M875.3 1939.5 L881.0 1937.6 M881.0 1937.6 L883.7 1934.6 M881.0 1937.6 L885.0 1938.3 M1221.1 2047.3 L1206.1 2059.0 M1206.1 2059.0 L1201.0 2070.9 M1201.0 2070.9 L1201.8 2079.6 M1201.8 2079.6 L1205.2 2084.6 M1205.2 2084.6 L1208.8 2086.5 M1205.2 2084.6 L1205.5 2088.6 M1201.8 2079.6 L1199.5 2085.1 M1199.5 2085.1 L1199.8 2089.2 M1199.5 2085.1 L1196.3 2087.6 M1201.0 2070.9 L1194.1 2076.3 M1194.1 2076.3 L1191.7 2081.8 M1191.7 2081.8 L1192.1 2085.8 M1191.7 2081.8 L1188.5 2084.3 M1194.1 2076.3 L1188.2 2077.3 M1188.2 2077.3 L1185.0 2079.8 M1188.2 2077.3 L1184.4 2075.9 M1206.1 2059.0 L1193.4 2061.1 M1193.4 2061.1 L1186.5 2066.5 M1186.5 2066.5 L1184.1 2072.0 M1184.1 2072.0 L1184.5 2076.1 M1184.1 2072.0 L1180.9 2074.5 M1186.5 2066.5 L1180.6 2067.5 M1180.6 2067.5 L1177.4 2070.0 M1180.6 2067.5 L1176.7 2066.2 M1193.4 2061.1 L1185.1 2058.2 M1185.1 2058.2 L1179.2 2059.2 M1179.2 2059.2 L1176.0 2061.7 M1179.2 2059.2 L1175.4 2057.8 M1185.1 2058.2 L1181.1 2053.8 M1181.1 2053.8 L1177.3 2052.4 M1181.1 2053.8 L1180.2 2049.8 M1544.5 2010.2 L1526.2 2015.2 M1526.2 2015.2 L1516.9 2024.2 M1516.9 2024.2 L1514.3 2032.6 M1514.3 2032.6 L1515.5 2038.5 M1515.5 2038.5 L1518.1 2041.6 M1515.5 2038.5 L1514.3 2042.4 M1514.3 2032.6 L1510.0 2036.8 M1510.0 2036.8 L1508.8 2040.7 M1510.0 2036.8 L1506.1 2037.9 M1516.9 2024.2 L1508.4 2026.6 M1508.4 2026.6 L1504.1 2030.7 M1504.1 2030.7 L1502.9 2034.6 M1504.1 2030.7 L1500.2 2031.8 M1508.4 2026.6 L1502.6 2025.2 M1502.6 2025.2 L1498.7 2026.3 M1502.6 2025.2 L1499.6 2022.5 M1526.2 2015.2 L1513.6 2012.3 M1513.6 2012.3 L1505.1 2014.6 M1505.1 2014.6 L1500.9 2018.8 M1500.9 2018.8 L1499.6 2022.7 M1500.9 2018.8 L1496.9 2019.9 M1505.1 2014.6 L1499.3 2013.3 M1499.3 2013.3 L1495.4 2014.4 M1499.3 2013.3 L1496.3 2010.6 M1513.6 2012.3 L1507.1 2006.4 M1507.1 2006.4 L1501.3 2005.1 M1501.3 2005.1 L1497.3 2006.1 M1501.3 2005.1 L1498.2 2002.4 M1507.1 2006.4 L1505.1 2000.8 M1505.1 2000.8 L1502.0 1998.1 M1505.1 2000.8 L1505.7 1996.8 M829.4 2288.1 L844.9 2299.0 M844.9 2299.0 L857.8 2300.4 M857.8 2300.4 L865.9 2297.1 M865.9 2297.1 L869.7 2292.5 M869.7 2292.5 L870.4 2288.5 M869.7 2292.5 L873.4 2290.9 M865.9 2297.1 L871.8 2297.8 M871.8 2297.8 L875.6 2296.2 M871.8 2297.8 L875.2 2300.1 M857.8 2300.4 L865.0 2305.5 M865.0 2305.5 L870.9 2306.1 M870.9 2306.1 L874.7 2304.6 M870.9 2306.1 L874.2 2308.5 M865.0 2305.5 L867.6 2310.8 M867.6 2310.8 L871.0 2313.2 M867.6 2310.8 L867.5 2314.9 M844.9 2299.0 L850.7 2310.6 M850.7 2310.6 L857.9 2315.6 M857.9 2315.6 L863.8 2316.3 M863.8 2316.3 L867.6 2314.7 M863.8 2316.3 L867.1 2318.6 M857.9 2315.6 L860.5 2321.0 M860.5 2321.0 L863.9 2323.3 M860.5 2321.0 L860.4 2325.0 M850.7 2310.6 L850.3 2319.4 M850.3 2319.4 L853.0 2324.7 M853.0 2324.7 L856.3 2327.1 M853.0 2324.7 L852.8 2328.8 M850.3 2319.4 L847.3 2324.5 M847.3 2324.5 L847.1 2328.6 M847.3 2324.5 L843.8 2326.6 M1136.4 2296.8 L1137.1 2315.8 M1137.1 2315.8 L1143.7 2326.9 M1143.7 2326.9 L1151.3 2331.4 M1151.3 2331.4 L1157.2 2331.6 M1157.2 2331.6 L1160.9 2329.8 M1157.2 2331.6 L1160.7 2333.6 M1151.3 2331.4 L1154.3 2336.5 M1154.3 2336.5 L1157.8 2338.6 M1154.3 2336.5 L1154.5 2340.6 M1143.7 2326.9 L1144.0 2335.7 M1144.0 2335.7 L1147.1 2340.8 M1147.1 2340.8 L1150.6 2342.9 M1147.1 2340.8 L1147.2 2344.9 M1144.0 2335.7 L1141.4 2341.0 M1141.4 2341.0 L1141.5 2345.1 M1141.4 2341.0 L1138.0 2343.4 M1137.1 2315.8 L1131.3 2327.4 M1131.3 2327.4 L1131.6 2336.2 M1131.6 2336.2 L1134.7 2341.3 M1134.7 2341.3 L1138.2 2343.4 M1134.7 2341.3 L1134.9 2345.3 M1131.6 2336.2 L1129.0 2341.5 M1129.0 2341.5 L1129.1 2345.6 M1129.0 2341.5 L1125.6 2343.8 M1131.3 2327.4 L1124.1 2332.4 M1124.1 2332.4 L1121.4 2337.7 M1121.4 2337.7 L1121.6 2341.8 M1121.4 2337.7 L1118.1 2340.1 M1124.1 2332.4 L1118.2 2333.0 M1118.2 2333.0 L1114.8 2335.4 M1118.2 2333.0 L1114.4 2331.5 M1324.3 2412.8 L1327.1 2394.1 M1327.1 2394.1 L1322.6 2381.9 M1322.6 2381.9 L1316.0 2376.2 M1316.0 2376.2 L1310.1 2374.9 M1310.1 2374.9 L1306.2 2376.0 M1310.1 2374.9 L1307.1 2372.2 M1316.0 2376.2 L1313.9 2370.5 M1313.9 2370.5 L1310.9 2367.9 M1313.9 2370.5 L1314.5 2366.5 M1322.6 2381.9 L1323.9 2373.2 M1323.9 2373.2 L1321.8 2367.6 M1321.8 2367.6 L1318.8 2365.0 M1321.8 2367.6 L1322.4 2363.6 M1323.9 2373.2 L1327.5 2368.5 M1327.5 2368.5 L1328.1 2364.5 M1327.5 2368.5 L1331.2 2366.8 M1327.1 2394.1 L1334.9 2383.7 M1334.9 2383.7 L1336.1 2375.1 M1336.1 2375.1 L1334.1 2369.5 M1334.1 2369.5 L1331.0 2366.8 M1334.1 2369.5 L1334.7 2365.4 M1336.1 2375.1 L1339.7 2370.3 M1339.7 2370.3 L1340.3 2366.3 M1339.7 2370.3 L1343.4 2368.6 M1334.9 2383.7 L1342.9 2380.1 M1342.9 2380.1 L1346.5 2375.4 M1346.5 2375.4 L1347.1 2371.4 M1346.5 2375.4 L1350.2 2373.7 M1342.9 2380.1 L1348.8 2380.6 M1348.8 2380.6 L1352.5 2378.9 M1348.8 2380.6 L1352.2 2382.8" stroke-width="0.9" opacity="0.041"/></g>
  <text x="152" y="588" text-anchor="start" font-family="Fraunces Display" font-size="268" fill="#ECE6DA" letter-spacing="-1.34"><tspan x="152" dy="0">Nature of</tspan><tspan x="152" dy="241">Product</tspan></text>
  <line x1="152" y1="942" x2="312" y2="942" stroke="#9A7B4F" stroke-width="2"/>
  <text x="152" y="1151" text-anchor="start" font-family="Fraunces Text" font-size="49" fill="#9A7B4F" opacity="1" letter-spacing="0.49"><tspan x="152" dy="0">How to Build Products So Valuable</tspan><tspan x="152" dy="70">They Look Like Magic</tspan></text>
  <text x="152" y="2408" text-anchor="start" font-family="Fraunces Text Medium" font-size="38" fill="#ECE6DA" opacity="0.66" letter-spacing="5.32">IVAN ZAMESIN</text>
</svg>