<svg xmlns="http://www.w3.org/2000/svg" width="1600" height="2560" viewBox="0 0 1600 2560">
  <defs></defs>
  <rect width="1600" height="2560" fill="#16181A"/>
  <g>
    <path d="M172.9 1414.3 L188.3 1605.2 M188.3 1605.2 L230.3 1716.3 M230.3 1716.3 L288.0 1761.9 M288.0 1761.9 L330.9 1777.6 M330.9 1777.6 L358.8 1773.3 M330.9 1777.6 L357.4 1787.4 M330.9 1777.6 L349.6 1798.8 M288.0 1761.9 L315.7 1798.2 M315.7 1798.2 L342.0 1808.6 M315.7 1798.2 L333.6 1820.1 M315.7 1798.2 L316.1 1826.5 M230.3 1716.3 L259.4 1783.9 M259.4 1783.9 L290.1 1817.6 M290.1 1817.6 L317.7 1823.8 M290.1 1817.6 L309.9 1837.9 M290.1 1817.6 L295.1 1845.5 M259.4 1783.9 L263.3 1829.3 M263.3 1829.3 L278.3 1853.3 M263.3 1829.3 L265.4 1857.6 M263.3 1829.3 L250.0 1854.3 M230.3 1716.3 L214.1 1788.1 M214.1 1788.1 L215.6 1833.7 M215.6 1833.7 L222.5 1861.1 M215.6 1833.7 L211.1 1861.6 M214.1 1788.1 L194.8 1829.4 M194.8 1829.4 L190.6 1857.4 M194.8 1829.4 L178.2 1852.4 M188.3 1605.2 L174.0 1723.1 M174.0 1723.1 L187.1 1795.5 M187.1 1795.5 L207.3 1836.4 M207.3 1836.4 L225.4 1858.1 M207.3 1836.4 L211.5 1864.4 M187.1 1795.5 L184.0 1841.1 M184.0 1841.1 L191.7 1868.3 M184.0 1841.1 L176.3 1868.3 M174.0 1723.1 L140.7 1788.7 M140.7 1788.7 L146.9 1833.9 M146.9 1833.9 L158.9 1859.5 M146.9 1833.9 L145.3 1862.2 M140.7 1788.7 L118.7 1828.7 M118.7 1828.7 L112.1 1856.2 M118.7 1828.7 L97.7 1847.6 M140.7 1788.7 L101.2 1811.5 M101.2 1811.5 L82.8 1833.1 M101.2 1811.5 L73.7 1818.3 M172.9 1414.3 L82.4 1583.1 M82.4 1583.1 L47.2 1696.5 M47.2 1696.5 L44.1 1770.0 M44.1 1770.0 L50.8 1815.1 M50.8 1815.1 L61.0 1841.6 M50.8 1815.1 L49.8 1843.4 M44.1 1770.0 L29.7 1813.3 M29.7 1813.3 L35.0 1841.1 M29.7 1813.3 L20.6 1840.1 M29.7 1813.3 L7.3 1830.5 M47.2 1696.5 L2.0 1754.6 M2.0 1754.6 L-17.6 1795.8 M-17.6 1795.8 L-23.1 1823.5 M-17.6 1795.8 L-37.2 1816.2 M2.0 1754.6 L-35.0 1781.3 M-35.0 1781.3 L-44.7 1807.9 M-35.0 1781.3 L-56.4 1799.8 M-35.0 1781.3 L-62.9 1785.8 M82.4 1583.1 L-6.6 1661.6 M-6.6 1661.6 L-48.0 1722.6 M-48.0 1722.6 L-51.0 1768.1 M-51.0 1768.1 L-46.3 1796.0 M-51.0 1768.1 L-62.9 1793.8 M-48.0 1722.6 L-72.0 1761.3 M-72.0 1761.3 L-80.6 1788.3 M-72.0 1761.3 L-94.0 1779.2 M-48.0 1722.6 L-89.9 1740.4 M-89.9 1740.4 L-110.8 1759.6 M-89.9 1740.4 L-118.2 1741.5 M-6.6 1661.6 L-73.0 1693.5 M-73.0 1693.5 L-105.4 1725.7 M-105.4 1725.7 L-117.9 1751.0 M-105.4 1725.7 L-130.8 1738.0 M-73.0 1693.5 L-118.4 1698.4 M-118.4 1698.4 L-144.9 1708.1 M-118.4 1698.4 L-145.8 1691.2 M821.0 1483.4 L848.0 1673.0 M848.0 1673.0 L890.2 1784.0 M890.2 1784.0 L937.3 1840.5 M937.3 1840.5 L975.0 1866.2 M975.0 1866.2 L1002.3 1873.6 M975.0 1866.2 L994.1 1887.1 M937.3 1840.5 L956.3 1882.0 M956.3 1882.0 L975.9 1902.4 M956.3 1882.0 L963.1 1909.5 M890.2 1784.0 L901.0 1856.8 M901.0 1856.8 L932.7 1889.6 M932.7 1889.6 L955.8 1905.9 M932.7 1889.6 L948.0 1913.4 M901.0 1856.8 L910.3 1901.5 M910.3 1901.5 L923.4 1926.5 M910.3 1901.5 L907.1 1929.6 M901.0 1856.8 L884.1 1899.2 M884.1 1899.2 L879.7 1927.1 M884.1 1899.2 L866.0 1921.0 M848.0 1673.0 L825.9 1789.6 M825.9 1789.6 L828.3 1863.2 M828.3 1863.2 L841.7 1906.8 M841.7 1906.8 L862.8 1925.7 M841.7 1906.8 L848.7 1934.3 M841.7 1906.8 L836.7 1934.7 M828.3 1863.2 L819.4 1908.0 M819.4 1908.0 L820.0 1936.2 M819.4 1908.0 L805.3 1932.5 M825.9 1789.6 L793.8 1855.9 M793.8 1855.9 L782.5 1900.1 M782.5 1900.1 L791.5 1926.9 M782.5 1900.1 L775.6 1927.6 M782.5 1900.1 L761.1 1918.6 M793.8 1855.9 L764.2 1890.6 M764.2 1890.6 L752.1 1916.2 M764.2 1890.6 L740.8 1906.6 M821.0 1483.4 L741.5 1657.6 M741.5 1657.6 L727.8 1775.5 M727.8 1775.5 L738.5 1848.4 M738.5 1848.4 L754.5 1891.1 M754.5 1891.1 L771.6 1913.7 M754.5 1891.1 L755.9 1919.3 M738.5 1848.4 L729.1 1893.0 M729.1 1893.0 L730.3 1921.3 M729.1 1893.0 L717.6 1918.9 M727.8 1775.5 L697.4 1842.6 M697.4 1842.6 L689.6 1887.6 M689.6 1887.6 L693.2 1915.6 M689.6 1887.6 L678.4 1913.5 M697.4 1842.6 L670.6 1879.5 M670.6 1879.5 L659.7 1905.7 M670.6 1879.5 L647.0 1895.2 M741.5 1657.6 L667.7 1750.7 M667.7 1750.7 L664.6 1824.2 M664.6 1824.2 L671.7 1869.3 M671.7 1869.3 L682.0 1895.6 M671.7 1869.3 L666.0 1897.0 M664.6 1824.2 L652.5 1868.2 M652.5 1868.2 L653.8 1896.5 M652.5 1868.2 L637.7 1892.3 M667.7 1750.7 L623.2 1809.2 M623.2 1809.2 L604.5 1850.9 M604.5 1850.9 L599.2 1878.7 M604.5 1850.9 L585.8 1872.1 M623.2 1809.2 L586.2 1836.1 M586.2 1836.1 L573.9 1861.5 M586.2 1836.1 L563.4 1852.8 M586.2 1836.1 L558.2 1840.1 M667.7 1750.7 L597.7 1773.2 M597.7 1773.2 L559.4 1798.0 M559.4 1798.0 L539.2 1817.9 M559.4 1798.0 L531.7 1804.1 M597.7 1773.2 L552.2 1777.6 M552.2 1777.6 L530.4 1795.5 M552.2 1777.6 L524.1 1780.3 M552.2 1777.6 L526.6 1765.7 M1412.1 1495.8 L1469.2 1678.6 M1469.2 1678.6 L1526.2 1782.7 M1526.2 1782.7 L1574.9 1837.9 M1574.9 1837.9 L1617.4 1854.5 M1617.4 1854.5 L1645.4 1858.9 M1617.4 1854.5 L1641.4 1869.4 M1574.9 1837.9 L1607.1 1870.2 M1607.1 1870.2 L1632.7 1882.3 M1607.1 1870.2 L1622.6 1893.9 M1574.9 1837.9 L1579.4 1883.3 M1579.4 1883.3 L1596.1 1906.1 M1579.4 1883.3 L1583.4 1911.3 M1579.4 1883.3 L1565.7 1908.1 M1526.2 1782.7 L1539.9 1855.0 M1539.9 1855.0 L1570.8 1888.5 M1570.8 1888.5 L1596.0 1901.5 M1570.8 1888.5 L1585.5 1912.7 M1539.9 1855.0 L1549.3 1899.7 M1549.3 1899.7 L1561.5 1925.2 M1549.3 1899.7 L1548.5 1928.0 M1539.9 1855.0 L1523.6 1897.7 M1523.6 1897.7 L1529.0 1925.5 M1523.6 1897.7 L1513.9 1924.2 M1523.6 1897.7 L1501.1 1914.8 M1469.2 1678.6 L1479.5 1796.8 M1479.5 1796.8 L1508.1 1864.7 M1508.1 1864.7 L1534.3 1902.0 M1534.3 1902.0 L1560.9 1911.7 M1534.3 1902.0 L1549.7 1925.8 M1534.3 1902.0 L1534.1 1930.3 M1508.1 1864.7 L1515.4 1909.7 M1515.4 1909.7 L1526.7 1935.7 M1515.4 1909.7 L1513.2 1937.9 M1479.5 1796.8 L1471.1 1870.0 M1471.1 1870.0 L1486.7 1912.9 M1486.7 1912.9 L1504.2 1935.1 M1486.7 1912.9 L1488.6 1941.1 M1471.1 1870.0 L1469.4 1915.6 M1469.4 1915.6 L1476.5 1943.0 M1469.4 1915.6 L1459.4 1942.0 M1471.1 1870.0 L1445.2 1907.5 M1445.2 1907.5 L1437.7 1934.8 M1445.2 1907.5 L1424.3 1926.6 M1412.1 1495.8 L1367.7 1682.1 M1367.7 1682.1 L1382.6 1799.8 M1382.6 1799.8 L1423.9 1860.7 M1423.9 1860.7 L1458.9 1890.0 M1458.9 1890.0 L1484.3 1902.6 M1458.9 1890.0 L1476.2 1912.4 M1423.9 1860.7 L1438.2 1904.1 M1438.2 1904.1 L1459.4 1922.8 M1438.2 1904.1 L1445.9 1931.3 M1438.2 1904.1 L1430.0 1931.2 M1382.6 1799.8 L1397.4 1871.9 M1397.4 1871.9 L1419.3 1912.0 M1419.3 1912.0 L1442.8 1927.8 M1419.3 1912.0 L1433.9 1936.2 M1419.3 1912.0 L1419.7 1940.3 M1397.4 1871.9 L1395.9 1917.6 M1395.9 1917.6 L1408.6 1942.9 M1395.9 1917.6 L1393.3 1945.7 M1395.9 1917.6 L1378.8 1940.1 M1382.6 1799.8 L1349.0 1865.4 M1349.0 1865.4 L1337.1 1909.4 M1337.1 1909.4 L1336.3 1937.7 M1337.1 1909.4 L1321.7 1933.2 M1349.0 1865.4 L1319.1 1899.8 M1319.1 1899.8 L1306.3 1925.1 M1319.1 1899.8 L1295.9 1916.1 M1367.7 1682.1 L1314.7 1788.3 M1314.7 1788.3 L1299.7 1860.4 M1299.7 1860.4 L1303.5 1905.9 M1303.5 1905.9 L1314.7 1931.9 M1303.5 1905.9 L1296.9 1933.4 M1299.7 1860.4 L1278.5 1900.8 M1278.5 1900.8 L1273.2 1928.6 M1278.5 1900.8 L1257.9 1920.2 M1314.7 1788.3 L1269.0 1846.0 M1269.0 1846.0 L1251.2 1888.0 M1251.2 1888.0 L1246.9 1916.0 M1251.2 1888.0 L1235.2 1911.4 M1269.0 1846.0 L1232.4 1873.3 M1232.4 1873.3 L1214.4 1895.1 M1232.4 1873.3 L1206.0 1883.4" fill="none" stroke="#EEE4D0" stroke-width="0.5" opacity="0.06"/>
    <g fill="#EEE4D0" opacity="0.09"><circle cx="172.9" cy="1414.3" r="2.00"/><circle cx="188.3" cy="1605.2" r="1.80"/><circle cx="230.3" cy="1716.3" r="1.60"/><circle cx="288.0" cy="1761.9" r="1.40"/><circle cx="330.9" cy="1777.6" r="1.20"/><circle cx="358.8" cy="1773.3" r="1.00"/><circle cx="357.4" cy="1787.4" r="1.00"/><circle cx="349.6" cy="1798.8" r="1.00"/><circle cx="315.7" cy="1798.2" r="1.20"/><circle cx="342.0" cy="1808.6" r="1.00"/><circle cx="333.6" cy="1820.1" r="1.00"/><circle cx="316.1" cy="1826.5" r="1.00"/><circle cx="259.4" cy="1783.9" r="1.40"/><circle cx="290.1" cy="1817.6" r="1.20"/><circle cx="317.7" cy="1823.8" r="1.00"/><circle cx="309.9" cy="1837.9" r="1.00"/><circle cx="295.1" cy="1845.5" r="1.00"/><circle cx="263.3" cy="1829.3" r="1.20"/><circle cx="278.3" cy="1853.3" r="1.00"/><circle cx="265.4" cy="1857.6" r="1.00"/><circle cx="250.0" cy="1854.3" r="1.00"/><circle cx="214.1" cy="1788.1" r="1.40"/><circle cx="215.6" cy="1833.7" r="1.20"/><circle cx="222.5" cy="1861.1" r="1.00"/><circle cx="211.1" cy="1861.6" r="1.00"/><circle cx="194.8" cy="1829.4" r="1.20"/><circle cx="190.6" cy="1857.4" r="1.00"/><circle cx="178.2" cy="1852.4" r="1.00"/><circle cx="174.0" cy="1723.1" r="1.60"/><circle cx="187.1" cy="1795.5" r="1.40"/><circle cx="207.3" cy="1836.4" r="1.20"/><circle cx="225.4" cy="1858.1" r="1.00"/><circle cx="211.5" cy="1864.4" r="1.00"/><circle cx="184.0" cy="1841.1" r="1.20"/><circle cx="191.7" cy="1868.3" r="1.00"/><circle cx="176.3" cy="1868.3" r="1.00"/><circle cx="140.7" cy="1788.7" r="1.40"/><circle cx="146.9" cy="1833.9" r="1.20"/><circle cx="158.9" cy="1859.5" r="1.00"/><circle cx="145.3" cy="1862.2" r="1.00"/><circle cx="118.7" cy="1828.7" r="1.20"/><circle cx="112.1" cy="1856.2" r="1.00"/><circle cx="97.7" cy="1847.6" r="1.00"/><circle cx="101.2" cy="1811.5" r="1.20"/><circle cx="82.8" cy="1833.1" r="1.00"/><circle cx="73.7" cy="1818.3" r="1.00"/><circle cx="82.4" cy="1583.1" r="1.80"/><circle cx="47.2" cy="1696.5" r="1.60"/><circle cx="44.1" cy="1770.0" r="1.40"/><circle cx="50.8" cy="1815.1" r="1.20"/><circle cx="61.0" cy="1841.6" r="1.00"/><circle cx="49.8" cy="1843.4" r="1.00"/><circle cx="29.7" cy="1813.3" r="1.20"/><circle cx="35.0" cy="1841.1" r="1.00"/><circle cx="20.6" cy="1840.1" r="1.00"/><circle cx="7.3" cy="1830.5" r="1.00"/><circle cx="2.0" cy="1754.6" r="1.40"/><circle cx="-17.6" cy="1795.8" r="1.20"/><circle cx="-23.1" cy="1823.5" r="1.00"/><circle cx="-37.2" cy="1816.2" r="1.00"/><circle cx="-35.0" cy="1781.3" r="1.20"/><circle cx="-44.7" cy="1807.9" r="1.00"/><circle cx="-56.4" cy="1799.8" r="1.00"/><circle cx="-62.9" cy="1785.8" r="1.00"/><circle cx="-6.6" cy="1661.6" r="1.60"/><circle cx="-48.0" cy="1722.6" r="1.40"/><circle cx="-51.0" cy="1768.1" r="1.20"/><circle cx="-46.3" cy="1796.0" r="1.00"/><circle cx="-62.9" cy="1793.8" r="1.00"/><circle cx="-72.0" cy="1761.3" r="1.20"/><circle cx="-80.6" cy="1788.3" r="1.00"/><circle cx="-94.0" cy="1779.2" r="1.00"/><circle cx="-89.9" cy="1740.4" r="1.20"/><circle cx="-110.8" cy="1759.6" r="1.00"/><circle cx="-118.2" cy="1741.5" r="1.00"/><circle cx="-73.0" cy="1693.5" r="1.40"/><circle cx="-105.4" cy="1725.7" r="1.20"/><circle cx="-117.9" cy="1751.0" r="1.00"/><circle cx="-130.8" cy="1738.0" r="1.00"/><circle cx="-118.4" cy="1698.4" r="1.20"/><circle cx="-144.9" cy="1708.1" r="1.00"/><circle cx="-145.8" cy="1691.2" r="1.00"/><circle cx="821.0" cy="1483.4" r="2.00"/><circle cx="848.0" cy="1673.0" r="1.80"/><circle cx="890.2" cy="1784.0" r="1.60"/><circle cx="937.3" cy="1840.5" r="1.40"/><circle cx="975.0" cy="1866.2" r="1.20"/><circle cx="1002.3" cy="1873.6" r="1.00"/><circle cx="994.1" cy="1887.1" r="1.00"/><circle cx="956.3" cy="1882.0" r="1.20"/><circle cx="975.9" cy="1902.4" r="1.00"/><circle cx="963.1" cy="1909.5" r="1.00"/><circle cx="901.0" cy="1856.8" r="1.40"/><circle cx="932.7" cy="1889.6" r="1.20"/><circle cx="955.8" cy="1905.9" r="1.00"/><circle cx="948.0" cy="1913.4" r="1.00"/><circle cx="910.3" cy="1901.5" r="1.20"/><circle cx="923.4" cy="1926.5" r="1.00"/><circle cx="907.1" cy="1929.6" r="1.00"/><circle cx="884.1" cy="1899.2" r="1.20"/><circle cx="879.7" cy="1927.1" r="1.00"/><circle cx="866.0" cy="1921.0" r="1.00"/><circle cx="825.9" cy="1789.6" r="1.60"/><circle cx="828.3" cy="1863.2" r="1.40"/><circle cx="841.7" cy="1906.8" r="1.20"/><circle cx="862.8" cy="1925.7" r="1.00"/><circle cx="848.7" cy="1934.3" r="1.00"/><circle cx="836.7" cy="1934.7" r="1.00"/><circle cx="819.4" cy="1908.0" r="1.20"/><circle cx="820.0" cy="1936.2" r="1.00"/><circle cx="805.3" cy="1932.5" r="1.00"/><circle cx="793.8" cy="1855.9" r="1.40"/><circle cx="782.5" cy="1900.1" r="1.20"/><circle cx="791.5" cy="1926.9" r="1.00"/><circle cx="775.6" cy="1927.6" r="1.00"/><circle cx="761.1" cy="1918.6" r="1.00"/><circle cx="764.2" cy="1890.6" r="1.20"/><circle cx="752.1" cy="1916.2" r="1.00"/><circle cx="740.8" cy="1906.6" r="1.00"/><circle cx="741.5" cy="1657.6" r="1.80"/><circle cx="727.8" cy="1775.5" r="1.60"/><circle cx="738.5" cy="1848.4" r="1.40"/><circle cx="754.5" cy="1891.1" r="1.20"/><circle cx="771.6" cy="1913.7" r="1.00"/><circle cx="755.9" cy="1919.3" r="1.00"/><circle cx="729.1" cy="1893.0" r="1.20"/><circle cx="730.3" cy="1921.3" r="1.00"/><circle cx="717.6" cy="1918.9" r="1.00"/><circle cx="697.4" cy="1842.6" r="1.40"/><circle cx="689.6" cy="1887.6" r="1.20"/><circle cx="693.2" cy="1915.6" r="1.00"/><circle cx="678.4" cy="1913.5" r="1.00"/><circle cx="670.6" cy="1879.5" r="1.20"/><circle cx="659.7" cy="1905.7" r="1.00"/><circle cx="647.0" cy="1895.2" r="1.00"/><circle cx="667.7" cy="1750.7" r="1.60"/><circle cx="664.6" cy="1824.2" r="1.40"/><circle cx="671.7" cy="1869.3" r="1.20"/><circle cx="682.0" cy="1895.6" r="1.00"/><circle cx="666.0" cy="1897.0" r="1.00"/><circle cx="652.5" cy="1868.2" r="1.20"/><circle cx="653.8" cy="1896.5" r="1.00"/><circle cx="637.7" cy="1892.3" r="1.00"/><circle cx="623.2" cy="1809.2" r="1.40"/><circle cx="604.5" cy="1850.9" r="1.20"/><circle cx="599.2" cy="1878.7" r="1.00"/><circle cx="585.8" cy="1872.1" r="1.00"/><circle cx="586.2" cy="1836.1" r="1.20"/><circle cx="573.9" cy="1861.5" r="1.00"/><circle cx="563.4" cy="1852.8" r="1.00"/><circle cx="558.2" cy="1840.1" r="1.00"/><circle cx="597.7" cy="1773.2" r="1.40"/><circle cx="559.4" cy="1798.0" r="1.20"/><circle cx="539.2" cy="1817.9" r="1.00"/><circle cx="531.7" cy="1804.1" r="1.00"/><circle cx="552.2" cy="1777.6" r="1.20"/><circle cx="530.4" cy="1795.5" r="1.00"/><circle cx="524.1" cy="1780.3" r="1.00"/><circle cx="526.6" cy="1765.7" r="1.00"/><circle cx="1412.1" cy="1495.8" r="2.00"/><circle cx="1469.2" cy="1678.6" r="1.80"/><circle cx="1526.2" cy="1782.7" r="1.60"/><circle cx="1574.9" cy="1837.9" r="1.40"/><circle cx="1617.4" cy="1854.5" r="1.20"/><circle cx="1645.4" cy="1858.9" r="1.00"/><circle cx="1641.4" cy="1869.4" r="1.00"/><circle cx="1607.1" cy="1870.2" r="1.20"/><circle cx="1632.7" cy="1882.3" r="1.00"/><circle cx="1622.6" cy="1893.9" r="1.00"/><circle cx="1579.4" cy="1883.3" r="1.20"/><circle cx="1596.1" cy="1906.1" r="1.00"/><circle cx="1583.4" cy="1911.3" r="1.00"/><circle cx="1565.7" cy="1908.1" r="1.00"/><circle cx="1539.9" cy="1855.0" r="1.40"/><circle cx="1570.8" cy="1888.5" r="1.20"/><circle cx="1596.0" cy="1901.5" r="1.00"/><circle cx="1585.5" cy="1912.7" r="1.00"/><circle cx="1549.3" cy="1899.7" r="1.20"/><circle cx="1561.5" cy="1925.2" r="1.00"/><circle cx="1548.5" cy="1928.0" r="1.00"/><circle cx="1523.6" cy="1897.7" r="1.20"/><circle cx="1529.0" cy="1925.5" r="1.00"/><circle cx="1513.9" cy="1924.2" r="1.00"/><circle cx="1501.1" cy="1914.8" r="1.00"/><circle cx="1479.5" cy="1796.8" r="1.60"/><circle cx="1508.1" cy="1864.7" r="1.40"/><circle cx="1534.3" cy="1902.0" r="1.20"/><circle cx="1560.9" cy="1911.7" r="1.00"/><circle cx="1549.7" cy="1925.8" r="1.00"/><circle cx="1534.1" cy="1930.3" r="1.00"/><circle cx="1515.4" cy="1909.7" r="1.20"/><circle cx="1526.7" cy="1935.7" r="1.00"/><circle cx="1513.2" cy="1937.9" r="1.00"/><circle cx="1471.1" cy="1870.0" r="1.40"/><circle cx="1486.7" cy="1912.9" r="1.20"/><circle cx="1504.2" cy="1935.1" r="1.00"/><circle cx="1488.6" cy="1941.1" r="1.00"/><circle cx="1469.4" cy="1915.6" r="1.20"/><circle cx="1476.5" cy="1943.0" r="1.00"/><circle cx="1459.4" cy="1942.0" r="1.00"/><circle cx="1445.2" cy="1907.5" r="1.20"/><circle cx="1437.7" cy="1934.8" r="1.00"/><circle cx="1424.3" cy="1926.6" r="1.00"/><circle cx="1367.7" cy="1682.1" r="1.80"/><circle cx="1382.6" cy="1799.8" r="1.60"/><circle cx="1423.9" cy="1860.7" r="1.40"/><circle cx="1458.9" cy="1890.0" r="1.20"/><circle cx="1484.3" cy="1902.6" r="1.00"/><circle cx="1476.2" cy="1912.4" r="1.00"/><circle cx="1438.2" cy="1904.1" r="1.20"/><circle cx="1459.4" cy="1922.8" r="1.00"/><circle cx="1445.9" cy="1931.3" r="1.00"/><circle cx="1430.0" cy="1931.2" r="1.00"/><circle cx="1397.4" cy="1871.9" r="1.40"/><circle cx="1419.3" cy="1912.0" r="1.20"/><circle cx="1442.8" cy="1927.8" r="1.00"/><circle cx="1433.9" cy="1936.2" r="1.00"/><circle cx="1419.7" cy="1940.3" r="1.00"/><circle cx="1395.9" cy="1917.6" r="1.20"/><circle cx="1408.6" cy="1942.9" r="1.00"/><circle cx="1393.3" cy="1945.7" r="1.00"/><circle cx="1378.8" cy="1940.1" r="1.00"/><circle cx="1349.0" cy="1865.4" r="1.40"/><circle cx="1337.1" cy="1909.4" r="1.20"/><circle cx="1336.3" cy="1937.7" r="1.00"/><circle cx="1321.7" cy="1933.2" r="1.00"/><circle cx="1319.1" cy="1899.8" r="1.20"/><circle cx="1306.3" cy="1925.1" r="1.00"/><circle cx="1295.9" cy="1916.1" r="1.00"/><circle cx="1314.7" cy="1788.3" r="1.60"/><circle cx="1299.7" cy="1860.4" r="1.40"/><circle cx="1303.5" cy="1905.9" r="1.20"/><circle cx="1314.7" cy="1931.9" r="1.00"/><circle cx="1296.9" cy="1933.4" r="1.00"/><circle cx="1278.5" cy="1900.8" r="1.20"/><circle cx="1273.2" cy="1928.6" r="1.00"/><circle cx="1257.9" cy="1920.2" r="1.00"/><circle cx="1269.0" cy="1846.0" r="1.40"/><circle cx="1251.2" cy="1888.0" r="1.20"/><circle cx="1246.9" cy="1916.0" r="1.00"/><circle cx="1235.2" cy="1911.4" r="1.00"/><circle cx="1232.4" cy="1873.3" r="1.20"/><circle cx="1214.4" cy="1895.1" r="1.00"/><circle cx="1206.0" cy="1883.4" r="1.00"/></g>
  </g>
  <text x="152" y="588" text-anchor="start" font-family="Fraunces Display Book" font-size="268" fill="#ECE6DA" letter-spacing="-1.34"><tspan x="152" dy="0">Nature of</tspan><tspan x="152" dy="241">Product</tspan></text>
  <line x1="152" y1="942" x2="312" y2="942" stroke="#9A7B4F" stroke-width="2"/>
  <text x="152" y="1151" text-anchor="start" font-family="Fraunces Text" font-size="49" fill="#9A7B4F" opacity="1" letter-spacing="0.49"><tspan x="152" dy="0">How to Build Products So Valuable</tspan><tspan x="152" dy="70">They Look Like Magic</tspan></text>
  <text x="152" y="2408" text-anchor="start" font-family="Fraunces Text Medium" font-size="38" fill="#ECE6DA" opacity="0.66" letter-spacing="5.32">IVAN ZAMESIN</text>
</svg>