<svg xmlns="http://www.w3.org/2000/svg" width="1600" height="2560" viewBox="0 0 1600 2560">
  <defs></defs>
  <rect width="1600" height="2560" fill="#16181A"/>
  <g>
    <path d="M306.2 1414.3 L316.8 1605.5 M316.8 1605.5 L353.2 1718.5 M353.2 1718.5 L391.8 1781.2 M391.8 1781.2 L426.0 1811.5 M391.8 1781.2 L408.1 1823.9 M353.2 1718.5 L354.3 1792.2 M354.3 1792.2 L368.5 1835.5 M354.3 1792.2 L344.6 1836.8 M316.8 1605.5 L298.2 1722.8 M298.2 1722.8 L307.7 1795.8 M307.7 1795.8 L326.5 1837.4 M307.7 1795.8 L299.2 1840.6 M298.2 1722.8 L272.9 1791.9 M272.9 1791.9 L271.1 1837.5 M272.9 1791.9 L248.5 1830.5 M306.2 1414.3 L223.1 1586.8 M223.1 1586.8 L208.5 1704.6 M208.5 1704.6 L217.2 1777.7 M217.2 1777.7 L232.2 1820.8 M217.2 1777.7 L207.4 1822.3 M208.5 1704.6 L180.2 1772.6 M180.2 1772.6 L170.9 1817.3 M180.2 1772.6 L155.8 1811.2 M223.1 1586.8 L152.1 1682.0 M152.1 1682.0 L125.0 1750.4 M125.0 1750.4 L122.5 1796.0 M125.0 1750.4 L96.4 1786.0 M152.1 1682.0 L95.9 1729.6 M95.9 1729.6 L69.7 1767.0 M95.9 1729.6 L53.5 1746.2 M1239.0 1478.5 L1310.5 1656.1 M1310.5 1656.1 L1373.5 1756.8 M1373.5 1756.8 L1429.4 1804.6 M1429.4 1804.6 L1471.0 1823.5 M1429.4 1804.6 L1458.7 1839.6 M1373.5 1756.8 L1393.5 1827.6 M1393.5 1827.6 L1416.0 1867.3 M1393.5 1827.6 L1391.9 1873.3 M1310.5 1656.1 L1323.0 1774.2 M1323.0 1774.2 L1353.2 1841.3 M1353.2 1841.3 L1380.7 1877.7 M1353.2 1841.3 L1357.9 1886.7 M1323.0 1774.2 L1306.3 1845.9 M1306.3 1845.9 L1306.6 1891.5 M1306.3 1845.9 L1282.0 1884.5 M1239.0 1478.5 L1188.6 1663.2 M1188.6 1663.2 L1179.9 1781.6 M1179.9 1781.6 L1192.6 1854.1 M1192.6 1854.1 L1209.6 1896.4 M1192.6 1854.1 L1188.7 1899.6 M1179.9 1781.6 L1153.3 1850.2 M1153.3 1850.2 L1147.4 1895.5 M1153.3 1850.2 L1124.7 1885.8 M1188.6 1663.2 L1131.3 1767.2 M1131.3 1767.2 L1109.8 1837.6 M1109.8 1837.6 L1109.2 1883.2 M1109.8 1837.6 L1087.9 1877.6 M1131.3 1767.2 L1085.9 1825.1 M1085.9 1825.1 L1064.2 1865.2 M1085.9 1825.1 L1048.1 1850.7" fill="none" stroke="#EEE4D0" stroke-width="0.5" opacity="0.06"/>
    <g fill="#EEE4D0" opacity="0.09"><circle cx="306.2" cy="1414.3" r="2.00"/><circle cx="316.8" cy="1605.5" r="1.75"/><circle cx="353.2" cy="1718.5" r="1.50"/><circle cx="391.8" cy="1781.2" r="1.25"/><circle cx="426.0" cy="1811.5" r="1.00"/><circle cx="408.1" cy="1823.9" r="1.00"/><circle cx="354.3" cy="1792.2" r="1.25"/><circle cx="368.5" cy="1835.5" r="1.00"/><circle cx="344.6" cy="1836.8" r="1.00"/><circle cx="298.2" cy="1722.8" r="1.50"/><circle cx="307.7" cy="1795.8" r="1.25"/><circle cx="326.5" cy="1837.4" r="1.00"/><circle cx="299.2" cy="1840.6" r="1.00"/><circle cx="272.9" cy="1791.9" r="1.25"/><circle cx="271.1" cy="1837.5" r="1.00"/><circle cx="248.5" cy="1830.5" r="1.00"/><circle cx="223.1" cy="1586.8" r="1.75"/><circle cx="208.5" cy="1704.6" r="1.50"/><circle cx="217.2" cy="1777.7" r="1.25"/><circle cx="232.2" cy="1820.8" r="1.00"/><circle cx="207.4" cy="1822.3" r="1.00"/><circle cx="180.2" cy="1772.6" r="1.25"/><circle cx="170.9" cy="1817.3" r="1.00"/><circle cx="155.8" cy="1811.2" r="1.00"/><circle cx="152.1" cy="1682.0" r="1.50"/><circle cx="125.0" cy="1750.4" r="1.25"/><circle cx="122.5" cy="1796.0" r="1.00"/><circle cx="96.4" cy="1786.0" r="1.00"/><circle cx="95.9" cy="1729.6" r="1.25"/><circle cx="69.7" cy="1767.0" r="1.00"/><circle cx="53.5" cy="1746.2" r="1.00"/><circle cx="1239.0" cy="1478.5" r="2.00"/><circle cx="1310.5" cy="1656.1" r="1.75"/><circle cx="1373.5" cy="1756.8" r="1.50"/><circle cx="1429.4" cy="1804.6" r="1.25"/><circle cx="1471.0" cy="1823.5" r="1.00"/><circle cx="1458.7" cy="1839.6" r="1.00"/><circle cx="1393.5" cy="1827.6" r="1.25"/><circle cx="1416.0" cy="1867.3" r="1.00"/><circle cx="1391.9" cy="1873.3" r="1.00"/><circle cx="1323.0" cy="1774.2" r="1.50"/><circle cx="1353.2" cy="1841.3" r="1.25"/><circle cx="1380.7" cy="1877.7" r="1.00"/><circle cx="1357.9" cy="1886.7" r="1.00"/><circle cx="1306.3" cy="1845.9" r="1.25"/><circle cx="1306.6" cy="1891.5" r="1.00"/><circle cx="1282.0" cy="1884.5" r="1.00"/><circle cx="1188.6" cy="1663.2" r="1.75"/><circle cx="1179.9" cy="1781.6" r="1.50"/><circle cx="1192.6" cy="1854.1" r="1.25"/><circle cx="1209.6" cy="1896.4" r="1.00"/><circle cx="1188.7" cy="1899.6" r="1.00"/><circle cx="1153.3" cy="1850.2" r="1.25"/><circle cx="1147.4" cy="1895.5" r="1.00"/><circle cx="1124.7" cy="1885.8" r="1.00"/><circle cx="1131.3" cy="1767.2" r="1.50"/><circle cx="1109.8" cy="1837.6" r="1.25"/><circle cx="1109.2" cy="1883.2" r="1.00"/><circle cx="1087.9" cy="1877.6" r="1.00"/><circle cx="1085.9" cy="1825.1" r="1.25"/><circle cx="1064.2" cy="1865.2" r="1.00"/><circle cx="1048.1" cy="1850.7" r="1.00"/></g>
  </g>
  <text x="152" y="588" text-anchor="start" font-family="Fraunces Display Book" font-size="268" fill="#ECE6DA" letter-spacing="-1.34"><tspan x="152" dy="0">Nature of</tspan><tspan x="152" dy="241">Product</tspan></text>
  <line x1="152" y1="942" x2="312" y2="942" stroke="#9A7B4F" stroke-width="2"/>
  <text x="152" y="1151" text-anchor="start" font-family="Fraunces Text" font-size="49" fill="#9A7B4F" opacity="1" letter-spacing="0.49"><tspan x="152" dy="0">How to Build Products So Valuable</tspan><tspan x="152" dy="70">They Look Like Magic</tspan></text>
  <text x="152" y="2408" text-anchor="start" font-family="Fraunces Text Medium" font-size="38" fill="#ECE6DA" opacity="0.66" letter-spacing="5.32">IVAN ZAMESIN</text>
</svg>