<svg xmlns="http://www.w3.org/2000/svg" width="1600" height="2560" viewBox="0 0 1600 2560">
  <defs><radialGradient id="lp-B1" cx="50%" cy="50%" r="50%">
    <stop offset="0%" stop-color="#65635f" stop-opacity="0.55"/>
    <stop offset="100%" stop-color="#65635f" stop-opacity="0"/>
  </radialGradient><filter id="hz-B1" x="-20%" y="-20%" width="140%" height="140%"><feGaussianBlur stdDeviation="3"/></filter></defs>
  <rect width="1600" height="2560" fill="#15120D"/>
  <ellipse cx="832" cy="1894.4" rx="960" ry="1075.2" fill="url(#lp-B1)"/><g filter="url(#hz-B1)" opacity="0.13" stroke="#ECE3D1" stroke-width="1.4" fill="none" stroke-linecap="round">
    <path d="M238.6 2548.0 L260.6 2140.2 M260.6 2140.2 L180.9 1843.2 M180.9 1843.2 L66.7 1630.8 M66.7 1630.8 L-47.3 1501.1 M-47.3 1501.1 L-163.3 1448.2 M-163.3 1448.2 L-256.4 1422.8 M-256.4 1422.8 L-331.3 1420.2 M-331.3 1420.2 L-377.3 1446.4 M-331.3 1420.2 L-385.7 1413.6 M-331.3 1420.2 L-381.1 1396.6 M-256.4 1422.8 L-322.0 1385.0 M-322.0 1385.0 L-377.9 1384.7 M-322.0 1385.0 L-375.5 1359.3 M-322.0 1385.0 L-351.9 1338.7 M-163.3 1448.2 L-232.0 1389.7 M-232.0 1389.7 L-291.6 1354.9 M-291.6 1354.9 L-340.0 1340.0 M-291.6 1354.9 L-329.4 1320.5 M-232.0 1389.7 L-272.1 1334.4 M-272.1 1334.4 L-318.3 1319.6 M-272.1 1334.4 L-299.7 1294.4 M-272.1 1334.4 L-283.8 1281.6 M-47.3 1501.1 L-129.6 1403.0 M-129.6 1403.0 L-206.1 1349.2 M-206.1 1349.2 L-265.3 1315.3 M-265.3 1315.3 L-316.4 1301.3 M-265.3 1315.3 L-300.4 1281.7 M-206.1 1349.2 L-253.1 1292.4 M-253.1 1292.4 L-297.7 1258.7 M-253.1 1292.4 L-281.7 1243.8 M-129.6 1403.0 L-163.5 1310.4 M-163.5 1310.4 L-213.4 1249.5 M-213.4 1249.5 L-272.3 1233.5 M-213.4 1249.5 L-253.0 1208.0 M-213.4 1249.5 L-223.4 1190.3 M-163.5 1310.4 L-185.7 1241.7 M-185.7 1241.7 L-223.6 1206.3 M-185.7 1241.7 L-198.6 1187.2 M-185.7 1241.7 L-185.8 1185.0 M-163.5 1310.4 L-150.4 1236.2 M-150.4 1236.2 L-166.0 1184.6 M-150.4 1236.2 L-145.2 1183.1 M-150.4 1236.2 L-108.1 1196.5 M-47.3 1501.1 L-57.7 1363.6 M-57.7 1363.6 L-100.1 1270.9 M-100.1 1270.9 L-149.2 1218.2 M-149.2 1218.2 L-194.9 1186.5 M-149.2 1218.2 L-178.0 1171.8 M-100.1 1270.9 L-109.6 1197.1 M-109.6 1197.1 L-125.2 1145.0 M-109.6 1197.1 L-102.1 1145.6 M-57.7 1363.6 L-72.3 1256.8 M-72.3 1256.8 L-128.8 1196.9 M-128.8 1196.9 L-177.0 1163.9 M-128.8 1196.9 L-159.3 1145.9 M-72.3 1256.8 L-84.8 1181.3 M-84.8 1181.3 L-106.4 1127.4 M-84.8 1181.3 L-76.6 1125.4 M-72.3 1256.8 L-44.7 1184.2 M-44.7 1184.2 L-58.2 1127.0 M-44.7 1184.2 L-20.3 1131.1 M-44.7 1184.2 L-0.1 1146.4 M-57.7 1363.6 L-11.8 1263.6 M-11.8 1263.6 L-25.4 1177.5 M-25.4 1177.5 L-49.6 1117.3 M-25.4 1177.5 L-27.8 1115.6 M-11.8 1263.6 L28.7 1191.1 M28.7 1191.1 L51.2 1136.7 M28.7 1191.1 L68.9 1148.3 M-11.8 1263.6 L47.8 1212.5 M47.8 1212.5 L80.2 1162.4 M47.8 1212.5 L94.8 1178.9 M47.8 1212.5 L103.6 1200.5 M66.7 1630.8 L35.6 1457.5 M35.6 1457.5 L-21.7 1343.6 M-21.7 1343.6 L-85.4 1268.3 M-85.4 1268.3 L-153.8 1233.3 M-153.8 1233.3 L-208.6 1219.2 M-153.8 1233.3 L-192.1 1192.1 M-85.4 1268.3 L-134.7 1218.1 M-134.7 1218.1 L-184.7 1193.4 M-134.7 1218.1 L-163.6 1170.6 M-85.4 1268.3 L-102.4 1195.5 M-102.4 1195.5 L-130.3 1149.4 M-102.4 1195.5 L-101.3 1138.0 M-21.7 1343.6 L-44.9 1255.9 M-44.9 1255.9 L-82.3 1194.2 M-82.3 1194.2 L-119.3 1158.0 M-82.3 1194.2 L-97.9 1144.2 M-44.9 1255.9 L-47.5 1189.4 M-47.5 1189.4 L-62.8 1138.7 M-47.5 1189.4 L-34.6 1140.9 M35.6 1457.5 L36.0 1318.3 M36.0 1318.3 L-14.4 1224.2 M-14.4 1224.2 L-61.4 1162.4 M-61.4 1162.4 L-107.4 1128.0 M-61.4 1162.4 L-95.8 1115.8 M-61.4 1162.4 L-80.1 1110.8 M-14.4 1224.2 L-30.0 1146.6 M-30.0 1146.6 L-55.5 1092.1 M-30.0 1146.6 L-33.6 1086.9 M36.0 1318.3 L40.3 1212.3 M40.3 1212.3 L19.9 1139.9 M19.9 1139.9 L-10.3 1095.4 M19.9 1139.9 L-0.4 1084.6 M19.9 1139.9 L30.1 1085.4 M40.3 1212.3 L52.9 1130.5 M52.9 1130.5 L47.7 1072.5 M52.9 1130.5 L73.9 1076.3 M36.0 1318.3 L97.6 1238.6 M97.6 1238.6 L114.5 1169.7 M114.5 1169.7 L115.4 1117.3 M114.5 1169.7 L140.5 1124.9 M97.6 1238.6 L146.4 1178.7 M146.4 1178.7 L154.8 1122.1 M146.4 1178.7 L185.7 1138.2 M146.4 1178.7 L199.4 1152.9 M97.6 1238.6 L160.3 1201.6 M160.3 1201.6 L198.3 1157.9 M160.3 1201.6 L209.9 1184.3 M180.9 1843.2 L174.0 1624.0 M174.0 1624.0 L135.0 1472.1 M135.0 1472.1 L83.7 1368.8 M83.7 1368.8 L18.4 1316.4 M18.4 1316.4 L-41.6 1298.7 M-41.6 1298.7 L-89.4 1306.8 M-41.6 1298.7 L-86.8 1288.1 M-41.6 1298.7 L-77.2 1270.0 M18.4 1316.4 L-28.1 1277.2 M-28.1 1277.2 L-71.7 1271.5 M-28.1 1277.2 L-63.3 1252.4 M-28.1 1277.2 L-52.5 1238.5 M18.4 1316.4 L-6.3 1256.7 M-6.3 1256.7 L-32.0 1216.2 M-6.3 1256.7 L-12.3 1206.8 M83.7 1368.8 L39.2 1288.9 M39.2 1288.9 L-11.5 1237.8 M-11.5 1237.8 L-61.1 1216.6 M-11.5 1237.8 L-49.4 1197.3 M-11.5 1237.8 L-24.7 1187.7 M39.2 1288.9 L10.5 1225.1 M10.5 1225.1 L-29.9 1191.5 M10.5 1225.1 L-6.1 1178.6 M10.5 1225.1 L8.2 1169.5 M39.2 1288.9 L38.3 1223.5 M38.3 1223.5 L24.2 1173.8 M38.3 1223.5 L52.0 1178.8 M83.7 1368.8 L79.1 1279.0 M79.1 1279.0 L45.6 1222.2 M45.6 1222.2 L8.2 1190.4 M45.6 1222.2 L29.9 1175.9 M79.1 1279.0 L71.2 1213.7 M71.2 1213.7 L38.4 1181.1 M71.2 1213.7 L63.3 1168.2 M71.2 1213.7 L92.9 1171.9 M79.1 1279.0 L104.2 1220.6 M104.2 1220.6 L103.4 1170.2 M104.2 1220.6 L125.6 1177.0 M104.2 1220.6 L141.8 1193.9 M135.0 1472.1 L123.4 1361.1 M123.4 1361.1 L79.5 1294.7 M79.5 1294.7 L37.6 1249.8 M37.6 1249.8 L-2.5 1233.9 M37.6 1249.8 L6.2 1213.4 M37.6 1249.8 L24.4 1206.0 M79.5 1294.7 L55.9 1235.8 M55.9 1235.8 L23.3 1201.2 M55.9 1235.8 L39.3 1188.0 M55.9 1235.8 L57.7 1190.6 M123.4 1361.1 L114.1 1280.7 M114.1 1280.7 L89.8 1227.7 M89.8 1227.7 L64.7 1189.5 M89.8 1227.7 L77.9 1186.3 M114.1 1280.7 L102.9 1218.4 M102.9 1218.4 L70.8 1183.4 M102.9 1218.4 L96.5 1171.5 M102.9 1218.4 L119.1 1176.2 M114.1 1280.7 L139.1 1223.1 M139.1 1223.1 L145.8 1175.3 M139.1 1223.1 L162.8 1183.0 M123.4 1361.1 L156.3 1282.1 M156.3 1282.1 L167.9 1223.3 M167.9 1223.3 L164.6 1178.0 M167.9 1223.3 L182.1 1180.5 M156.3 1282.1 L190.4 1228.8 M190.4 1228.8 L199.7 1180.4 M190.4 1228.8 L217.0 1192.3 M190.4 1228.8 L226.6 1197.2 M174.0 1624.0 L221.4 1473.7 M221.4 1473.7 L194.4 1359.0 M194.4 1359.0 L156.0 1284.9 M156.0 1284.9 L120.4 1235.0 M120.4 1235.0 L78.9 1219.3 M120.4 1235.0 L92.2 1198.2 M120.4 1235.0 L121.2 1190.8 M156.0 1284.9 L144.1 1222.7 M144.1 1222.7 L127.6 1179.1 M144.1 1222.7 L147.3 1174.4 M194.4 1359.0 L183.7 1275.5 M183.7 1275.5 L147.5 1225.0 M147.5 1225.0 L113.2 1194.4 M147.5 1225.0 L130.5 1183.9 M183.7 1275.5 L180.4 1209.5 M180.4 1209.5 L164.7 1159.4 M180.4 1209.5 L194.1 1159.2 M183.7 1275.5 L196.7 1212.3 M196.7 1212.3 L185.9 1164.8 M196.7 1212.3 L203.4 1167.6 M196.7 1212.3 L230.5 1176.4 M221.4 1473.7 L249.1 1364.6 M249.1 1364.6 L245.0 1282.6 M245.0 1282.6 L231.2 1224.1 M231.2 1224.1 L203.2 1188.1 M231.2 1224.1 L222.8 1178.7 M231.2 1224.1 L243.7 1183.0 M245.0 1282.6 L263.9 1221.9 M263.9 1221.9 L256.0 1175.7 M263.9 1221.9 L274.0 1175.1 M263.9 1221.9 L295.1 1182.7 M249.1 1364.6 L298.2 1298.7 M298.2 1298.7 L323.3 1239.0 M323.3 1239.0 L317.0 1188.6 M323.3 1239.0 L338.6 1195.8 M323.3 1239.0 L365.3 1208.8 M298.2 1298.7 L341.4 1255.1 M341.4 1255.1 L367.0 1214.1 M341.4 1255.1 L378.7 1227.9 M221.4 1473.7 L290.6 1377.9 M290.6 1377.9 L318.1 1299.7 M318.1 1299.7 L317.9 1235.2 M317.9 1235.2 L311.1 1190.2 M317.9 1235.2 L325.0 1187.7 M318.1 1299.7 L335.1 1236.0 M335.1 1236.0 L334.3 1189.0 M335.1 1236.0 L351.5 1191.5 M335.1 1236.0 L368.3 1197.6 M318.1 1299.7 L368.9 1260.4 M368.9 1260.4 L395.1 1220.6 M368.9 1260.4 L411.9 1243.0 M290.6 1377.9 L355.7 1318.0 M355.7 1318.0 L387.6 1258.4 M387.6 1258.4 L382.5 1210.8 M387.6 1258.4 L409.9 1209.6 M387.6 1258.4 L426.1 1225.9 M355.7 1318.0 L404.2 1278.7 M404.2 1278.7 L436.8 1241.1 M404.2 1278.7 L445.3 1252.0 M355.7 1318.0 L420.3 1300.4 M420.3 1300.4 L466.8 1276.7 M420.3 1300.4 L472.4 1302.4 M260.6 2140.2 L346.3 1858.1 M346.3 1858.1 L388.5 1638.1 M388.5 1638.1 L376.0 1462.9 M376.0 1462.9 L348.6 1342.6 M348.6 1342.6 L293.9 1264.5 M293.9 1264.5 L233.5 1223.3 M233.5 1223.3 L186.9 1201.6 M233.5 1223.3 L198.1 1183.9 M293.9 1264.5 L248.8 1203.2 M248.8 1203.2 L202.0 1166.1 M248.8 1203.2 L223.6 1147.8 M293.9 1264.5 L289.9 1191.1 M289.9 1191.1 L269.2 1138.1 M289.9 1191.1 L299.4 1138.9 M348.6 1342.6 L322.2 1247.7 M322.2 1247.7 L281.1 1190.7 M281.1 1190.7 L239.3 1154.0 M281.1 1190.7 L263.1 1138.1 M322.2 1247.7 L305.2 1176.5 M305.2 1176.5 L279.0 1126.7 M305.2 1176.5 L304.4 1123.1 M322.2 1247.7 L338.7 1176.3 M338.7 1176.3 L343.3 1120.9 M338.7 1176.3 L359.1 1128.2 M348.6 1342.6 L376.4 1256.8 M376.4 1256.8 L384.9 1191.7 M384.9 1191.7 L377.6 1141.6 M384.9 1191.7 L401.5 1146.3 M376.4 1256.8 L407.6 1198.6 M407.6 1198.6 L417.5 1151.1 M407.6 1198.6 L442.6 1165.5 M376.0 1462.9 L393.3 1325.8 M393.3 1325.8 L379.5 1225.4 M379.5 1225.4 L357.5 1157.0 M357.5 1157.0 L319.9 1120.7 M357.5 1157.0 L339.4 1103.4 M357.5 1157.0 L376.5 1107.2 M379.5 1225.4 L395.1 1151.1 M395.1 1151.1 L389.7 1094.2 M395.1 1151.1 L405.2 1096.4 M395.1 1151.1 L428.2 1109.4 M393.3 1325.8 L438.4 1240.1 M438.4 1240.1 L445.0 1168.2 M445.0 1168.2 L430.7 1116.1 M445.0 1168.2 L458.4 1118.7 M438.4 1240.1 L467.0 1177.9 M467.0 1177.9 L473.8 1130.2 M467.0 1177.9 L489.1 1133.3 M467.0 1177.9 L506.0 1146.7 M438.4 1240.1 L497.7 1200.5 M497.7 1200.5 L534.8 1164.7 M497.7 1200.5 L550.3 1188.8 M388.5 1638.1 L456.2 1496.4 M456.2 1496.4 L435.1 1383.5 M435.1 1383.5 L405.7 1306.5 M405.7 1306.5 L373.0 1250.3 M373.0 1250.3 L332.2 1225.4 M373.0 1250.3 L350.3 1205.5 M373.0 1250.3 L368.1 1202.5 M405.7 1306.5 L396.6 1243.2 M396.6 1243.2 L377.9 1200.1 M396.6 1243.2 L403.0 1192.7 M435.1 1383.5 L434.9 1298.3 M434.9 1298.3 L402.5 1242.4 M402.5 1242.4 L355.9 1221.7 M402.5 1242.4 L375.0 1203.2 M402.5 1242.4 L400.0 1196.9 M434.9 1298.3 L429.2 1232.1 M429.2 1232.1 L405.3 1186.5 M429.2 1232.1 L421.9 1181.1 M429.2 1232.1 L452.2 1184.7 M434.9 1298.3 L461.4 1243.3 M461.4 1243.3 L469.6 1195.3 M461.4 1243.3 L485.9 1205.9 M456.2 1496.4 L507.4 1387.8 M507.4 1387.8 L509.0 1299.4 M509.0 1299.4 L496.8 1234.8 M496.8 1234.8 L483.1 1190.2 M496.8 1234.8 L499.7 1184.4 M509.0 1299.4 L527.8 1233.3 M527.8 1233.3 L512.6 1186.4 M527.8 1233.3 L542.0 1180.8 M527.8 1233.3 L557.5 1193.3 M507.4 1387.8 L547.2 1304.1 M547.2 1304.1 L531.7 1238.9 M531.7 1238.9 L507.9 1193.2 M531.7 1238.9 L525.5 1191.7 M547.2 1304.1 L578.2 1246.3 M578.2 1246.3 L574.1 1194.1 M578.2 1246.3 L600.2 1201.9 M578.2 1246.3 L622.5 1224.8 M547.2 1304.1 L604.7 1259.4 M604.7 1259.4 L643.1 1216.2 M604.7 1259.4 L659.1 1241.2 M507.4 1387.8 L564.4 1324.7 M564.4 1324.7 L593.8 1269.5 M593.8 1269.5 L607.1 1221.6 M593.8 1269.5 L620.0 1234.5 M564.4 1324.7 L618.1 1284.0 M618.1 1284.0 L649.1 1247.0 M618.1 1284.0 L666.5 1262.3 M456.2 1496.4 L551.3 1416.7 M551.3 1416.7 L611.8 1347.7 M611.8 1347.7 L630.8 1283.0 M630.8 1283.0 L633.8 1231.4 M630.8 1283.0 L662.5 1240.0 M611.8 1347.7 L658.9 1299.1 M658.9 1299.1 L687.5 1256.7 M658.9 1299.1 L700.5 1266.3 M611.8 1347.7 L671.6 1307.1 M671.6 1307.1 L702.4 1265.6 M671.6 1307.1 L725.2 1288.5 M551.3 1416.7 L635.5 1374.7 M635.5 1374.7 L690.9 1329.0 M690.9 1329.0 L716.7 1279.3 M690.9 1329.0 L730.7 1297.7 M690.9 1329.0 L743.0 1320.2 M635.5 1374.7 L708.5 1360.3 M708.5 1360.3 L751.6 1329.3 M708.5 1360.3 L762.7 1352.2 M708.5 1360.3 L764.8 1377.0 M346.3 1858.1 L459.8 1681.0 M459.8 1681.0 L510.8 1523.2 M510.8 1523.2 L520.6 1404.5 M520.6 1404.5 L499.9 1317.6 M499.9 1317.6 L462.6 1261.7 M462.6 1261.7 L423.3 1231.8 M462.6 1261.7 L442.9 1212.2 M499.9 1317.6 L488.9 1253.5 M488.9 1253.5 L469.8 1209.1 M488.9 1253.5 L493.4 1208.1 M499.9 1317.6 L518.7 1257.6 M518.7 1257.6 L519.5 1208.0 M518.7 1257.6 L539.2 1216.5 M520.6 1404.5 L542.7 1311.9 M542.7 1311.9 L540.6 1244.1 M540.6 1244.1 L525.3 1198.9 M540.6 1244.1 L552.0 1191.4 M542.7 1311.9 L574.7 1250.4 M574.7 1250.4 L570.8 1195.3 M574.7 1250.4 L595.8 1202.8 M574.7 1250.4 L616.5 1222.2 M510.8 1523.2 L586.0 1429.5 M586.0 1429.5 L611.9 1341.9 M611.9 1341.9 L613.0 1276.3 M613.0 1276.3 L600.3 1230.7 M613.0 1276.3 L630.3 1231.3 M611.9 1341.9 L642.6 1280.1 M642.6 1280.1 L638.0 1231.5 M642.6 1280.1 L662.7 1230.4 M642.6 1280.1 L690.2 1256.5 M586.0 1429.5 L648.9 1360.2 M648.9 1360.2 L684.2 1299.4 M684.2 1299.4 L694.6 1249.5 M684.2 1299.4 L715.2 1254.3 M684.2 1299.4 L731.1 1270.4 M648.9 1360.2 L703.0 1321.5 M703.0 1321.5 L733.7 1284.8 M703.0 1321.5 L744.7 1289.2 M703.0 1321.5 L751.2 1319.3 M586.0 1429.5 L671.6 1393.4 M671.6 1393.4 L710.2 1339.7 M710.2 1339.7 L734.0 1295.5 M710.2 1339.7 L749.1 1307.5 M671.6 1393.4 L742.1 1369.8 M742.1 1369.8 L780.8 1333.3 M742.1 1369.8 L794.8 1347.7 M742.1 1369.8 L798.3 1386.9 M671.6 1393.4 L738.2 1391.5 M738.2 1391.5 L787.3 1379.7 M738.2 1391.5 L783.6 1403.4 M459.8 1681.0 L565.4 1574.7 M565.4 1574.7 L630.1 1479.4 M630.1 1479.4 L662.8 1395.7 M662.8 1395.7 L643.2 1334.6 M643.2 1334.6 L617.9 1291.4 M643.2 1334.6 L633.7 1286.5 M662.8 1395.7 L690.9 1337.7 M690.9 1337.7 L686.7 1287.2 M690.9 1337.7 L714.9 1296.3 M690.9 1337.7 L731.9 1318.1 M662.8 1395.7 L718.2 1353.4 M718.2 1353.4 L735.2 1304.9 M718.2 1353.4 L758.7 1321.7 M718.2 1353.4 L770.7 1350.9 M630.1 1479.4 L696.2 1428.4 M696.2 1428.4 L735.9 1383.5 M735.9 1383.5 L757.5 1347.3 M735.9 1383.5 L771.3 1355.8 M696.2 1428.4 L753.5 1410.2 M753.5 1410.2 L791.4 1383.6 M753.5 1410.2 L797.5 1407.4 M565.4 1574.7 L664.8 1508.0 M664.8 1508.0 L726.1 1442.9 M726.1 1442.9 L761.2 1383.4 M761.2 1383.4 L769.6 1333.8 M761.2 1383.4 L788.6 1337.7 M761.2 1383.4 L803.7 1353.5 M726.1 1442.9 L788.0 1409.3 M788.0 1409.3 L829.9 1378.0 M788.0 1409.3 L836.9 1395.1 M664.8 1508.0 L745.6 1477.0 M745.6 1477.0 L797.1 1441.9 M797.1 1441.9 L825.2 1402.6 M797.1 1441.9 L832.0 1414.0 M797.1 1441.9 L843.7 1437.2 M745.6 1477.0 L809.8 1466.3 M809.8 1466.3 L856.6 1448.7 M809.8 1466.3 L856.2 1464.4 M493.9 2540.9 L424.2 2197.3 M424.2 2197.3 L237.4 2004.7 M237.4 2004.7 L75.4 1881.9 M75.4 1881.9 L-73.2 1843.2 M-73.2 1843.2 L-183.1 1874.2 M-183.1 1874.2 L-249.1 1924.4 M-249.1 1924.4 L-287.1 1975.5 M-287.1 1975.5 L-305.5 2019.9 M-287.1 1975.5 L-323.3 2005.3 M-249.1 1924.4 L-302.1 1948.8 M-302.1 1948.8 L-340.7 1973.9 M-302.1 1948.8 L-348.2 1955.7 M-183.1 1874.2 L-271.4 1896.1 M-271.4 1896.1 L-327.5 1935.6 M-327.5 1935.6 L-361.6 1972.5 M-327.5 1935.6 L-374.5 1949.6 M-271.4 1896.1 L-342.0 1908.2 M-342.0 1908.2 L-386.1 1939.3 M-342.0 1908.2 L-397.0 1917.7 M-342.0 1908.2 L-398.5 1901.2 M-271.4 1896.1 L-332.3 1875.8 M-332.3 1875.8 L-381.8 1885.7 M-332.3 1875.8 L-377.7 1865.0 M-332.3 1875.8 L-368.5 1847.4 M-183.1 1874.2 L-266.3 1853.5 M-266.3 1853.5 L-331.6 1856.5 M-331.6 1856.5 L-379.0 1865.5 M-331.6 1856.5 L-381.5 1842.3 M-266.3 1853.5 L-323.5 1822.6 M-323.5 1822.6 L-374.0 1828.4 M-323.5 1822.6 L-369.0 1797.8 M-323.5 1822.6 L-344.9 1782.4 M-73.2 1843.2 L-191.6 1822.1 M-191.6 1822.1 L-276.0 1847.1 M-276.0 1847.1 L-335.7 1882.7 M-335.7 1882.7 L-367.7 1919.5 M-335.7 1882.7 L-376.0 1910.5 M-335.7 1882.7 L-388.0 1887.5 M-276.0 1847.1 L-345.5 1849.8 M-345.5 1849.8 L-396.8 1866.0 M-345.5 1849.8 L-398.4 1841.5 M-191.6 1822.1 L-281.8 1810.6 M-281.8 1810.6 L-344.5 1826.8 M-344.5 1826.8 L-380.3 1859.0 M-344.5 1826.8 L-391.5 1838.0 M-344.5 1826.8 L-391.1 1809.1 M-281.8 1810.6 L-350.0 1804.3 M-350.0 1804.3 L-403.4 1814.9 M-350.0 1804.3 L-395.8 1782.1 M-281.8 1810.6 L-331.0 1764.9 M-331.0 1764.9 L-376.3 1745.8 M-331.0 1764.9 L-363.7 1729.5 M-331.0 1764.9 L-348.0 1717.6 M-191.6 1822.1 L-268.0 1770.6 M-268.0 1770.6 L-333.8 1748.4 M-333.8 1748.4 L-386.0 1749.5 M-333.8 1748.4 L-383.8 1729.2 M-333.8 1748.4 L-370.6 1713.2 M-268.0 1770.6 L-315.6 1719.6 M-315.6 1719.6 L-362.7 1696.2 M-315.6 1719.6 L-351.3 1685.4 M-315.6 1719.6 L-318.3 1668.8 M-73.2 1843.2 L-166.5 1775.8 M-166.5 1775.8 L-251.8 1750.5 M-251.8 1750.5 L-319.0 1758.6 M-319.0 1758.6 L-366.4 1770.8 M-319.0 1758.6 L-366.6 1748.6 M-251.8 1750.5 L-313.6 1736.7 M-313.6 1736.7 L-361.4 1748.5 M-313.6 1736.7 L-362.4 1725.0 M-313.6 1736.7 L-351.1 1712.1 M-251.8 1750.5 L-304.3 1704.0 M-304.3 1704.0 L-353.5 1696.3 M-304.3 1704.0 L-343.6 1664.6 M-304.3 1704.0 L-334.3 1657.6 M-166.5 1775.8 L-223.4 1710.0 M-223.4 1710.0 L-282.4 1689.0 M-282.4 1689.0 L-329.6 1683.1 M-282.4 1689.0 L-320.0 1661.1 M-223.4 1710.0 L-266.2 1656.7 M-266.2 1656.7 L-300.9 1623.1 M-266.2 1656.7 L-283.3 1605.2 M-223.4 1710.0 L-233.0 1645.2 M-233.0 1645.2 L-261.5 1606.0 M-233.0 1645.2 L-239.8 1595.6 M-233.0 1645.2 L-225.7 1595.2 M75.4 1881.9 L-29.6 1763.0 M-29.6 1763.0 L-128.8 1695.7 M-128.8 1695.7 L-209.0 1662.9 M-209.0 1662.9 L-273.3 1656.5 M-273.3 1656.5 L-316.9 1677.2 M-273.3 1656.5 L-320.9 1652.4 M-273.3 1656.5 L-307.4 1623.0 M-209.0 1662.9 L-264.0 1627.1 M-264.0 1627.1 L-313.6 1610.5 M-264.0 1627.1 L-297.2 1587.1 M-128.8 1695.7 L-184.4 1628.5 M-184.4 1628.5 L-247.7 1609.2 M-247.7 1609.2 L-297.7 1605.1 M-247.7 1609.2 L-291.0 1585.6 M-184.4 1628.5 L-229.3 1579.9 M-229.3 1579.9 L-271.3 1550.4 M-229.3 1579.9 L-252.6 1538.8 M-184.4 1628.5 L-196.7 1563.4 M-196.7 1563.4 L-213.1 1519.7 M-196.7 1563.4 L-196.3 1511.4 M-29.6 1763.0 L-88.0 1665.6 M-88.0 1665.6 L-163.3 1631.0 M-163.3 1631.0 L-222.5 1628.5 M-222.5 1628.5 L-265.4 1633.8 M-222.5 1628.5 L-268.9 1619.2 M-163.3 1631.0 L-220.1 1601.1 M-220.1 1601.1 L-266.7 1588.7 M-220.1 1601.1 L-257.7 1570.5 M-163.3 1631.0 L-206.2 1588.6 M-206.2 1588.6 L-249.4 1569.4 M-206.2 1588.6 L-240.7 1558.7 M-206.2 1588.6 L-223.6 1546.6 M-88.0 1665.6 L-124.6 1594.3 M-124.6 1594.3 L-161.6 1543.3 M-161.6 1543.3 L-199.0 1515.6 M-161.6 1543.3 L-178.5 1497.9 M-124.6 1594.3 L-138.6 1537.2 M-138.6 1537.2 L-163.4 1498.3 M-138.6 1537.2 L-140.2 1495.4 M-88.0 1665.6 L-90.1 1577.8 M-90.1 1577.8 L-106.2 1512.6 M-106.2 1512.6 L-127.7 1470.0 M-106.2 1512.6 L-102.7 1459.1 M-90.1 1577.8 L-80.4 1516.1 M-80.4 1516.1 L-96.5 1474.6 M-80.4 1516.1 L-72.8 1470.4 M-80.4 1516.1 L-55.9 1477.2 M237.4 2004.7 L135.9 1823.4 M135.9 1823.4 L31.6 1699.5 M31.6 1699.5 L-75.5 1646.2 M-75.5 1646.2 L-164.4 1651.1 M-164.4 1651.1 L-220.3 1680.6 M-220.3 1680.6 L-252.0 1717.9 M-220.3 1680.6 L-263.2 1701.3 M-220.3 1680.6 L-266.2 1685.4 M-164.4 1651.1 L-231.3 1649.9 M-231.3 1649.9 L-278.6 1652.9 M-231.3 1649.9 L-280.9 1632.1 M-164.4 1651.1 L-221.7 1619.0 M-221.7 1619.0 L-272.0 1619.9 M-221.7 1619.0 L-265.7 1593.7 M-221.7 1619.0 L-248.2 1574.0 M-75.5 1646.2 L-154.0 1608.3 M-154.0 1608.3 L-214.9 1592.9 M-214.9 1592.9 L-260.3 1585.4 M-214.9 1592.9 L-255.0 1572.6 M-154.0 1608.3 L-209.7 1568.6 M-209.7 1568.6 L-258.0 1550.0 M-209.7 1568.6 L-242.8 1526.7 M-75.5 1646.2 L-139.1 1578.7 M-139.1 1578.7 L-195.4 1538.0 M-195.4 1538.0 L-241.9 1518.1 M-195.4 1538.0 L-227.6 1496.9 M-139.1 1578.7 L-174.2 1521.2 M-174.2 1521.2 L-217.8 1498.8 M-174.2 1521.2 L-200.7 1477.3 M-174.2 1521.2 L-183.3 1474.4 M31.6 1699.5 L-53.4 1606.9 M-53.4 1606.9 L-141.6 1579.2 M-141.6 1579.2 L-210.1 1570.3 M-210.1 1570.3 L-261.9 1577.0 M-210.1 1570.3 L-256.8 1556.1 M-141.6 1579.2 L-202.6 1543.9 M-202.6 1543.9 L-251.9 1527.1 M-202.6 1543.9 L-239.6 1507.7 M-53.4 1606.9 L-117.1 1540.6 M-117.1 1540.6 L-173.1 1495.6 M-173.1 1495.6 L-226.2 1475.9 M-173.1 1495.6 L-205.3 1454.6 M-117.1 1540.6 L-147.9 1479.8 M-147.9 1479.8 L-182.6 1441.8 M-147.9 1479.8 L-173.2 1436.6 M-147.9 1479.8 L-145.5 1426.1 M-53.4 1606.9 L-72.0 1519.1 M-72.0 1519.1 L-100.7 1461.3 M-100.7 1461.3 L-128.5 1423.3 M-100.7 1461.3 L-104.8 1414.2 M-72.0 1519.1 L-60.4 1454.7 M-60.4 1454.7 L-71.0 1407.2 M-60.4 1454.7 L-51.6 1405.0 M-60.4 1454.7 L-30.8 1418.2 M31.6 1699.5 L-11.0 1591.7 M-11.0 1591.7 L-53.7 1513.6 M-53.7 1513.6 L-113.2 1479.3 M-113.2 1479.3 L-161.9 1478.7 M-113.2 1479.3 L-156.6 1455.3 M-113.2 1479.3 L-145.3 1442.1 M-53.7 1513.6 L-85.9 1456.7 M-85.9 1456.7 L-118.6 1419.3 M-85.9 1456.7 L-96.3 1409.8 M-53.7 1513.6 L-61.8 1449.1 M-61.8 1449.1 L-74.5 1399.1 M-61.8 1449.1 L-54.7 1401.9 M-11.0 1591.7 L-29.4 1510.2 M-29.4 1510.2 L-50.9 1453.9 M-50.9 1453.9 L-74.9 1417.1 M-50.9 1453.9 L-61.7 1409.9 M-29.4 1510.2 L-27.4 1451.0 M-27.4 1451.0 L-38.8 1408.0 M-27.4 1451.0 L-16.4 1406.5 M135.9 1823.4 L79.1 1677.1 M79.1 1677.1 L22.3 1581.5 M22.3 1581.5 L-34.1 1524.2 M-34.1 1524.2 L-93.3 1506.4 M-93.3 1506.4 L-140.1 1505.2 M-93.3 1506.4 L-135.0 1488.2 M-34.1 1524.2 L-76.0 1475.8 M-76.0 1475.8 L-116.8 1453.1 M-76.0 1475.8 L-109.2 1443.1 M-76.0 1475.8 L-82.7 1431.4 M-34.1 1524.2 L-55.2 1466.0 M-55.2 1466.0 L-90.2 1436.1 M-55.2 1466.0 L-71.7 1423.0 M-55.2 1466.0 L-53.3 1421.8 M22.3 1581.5 L1.2 1499.1 M1.2 1499.1 L-22.2 1436.9 M-22.2 1436.9 L-48.0 1395.9 M-22.2 1436.9 L-34.1 1390.5 M1.2 1499.1 L1.9 1432.0 M1.9 1432.0 L-6.5 1381.2 M1.9 1432.0 L11.9 1381.0 M79.1 1677.1 L70.5 1558.2 M70.5 1558.2 L44.5 1469.2 M44.5 1469.2 L17.1 1404.8 M17.1 1404.8 L-14.0 1361.8 M17.1 1404.8 L8.6 1351.8 M44.5 1469.2 L43.5 1401.6 M43.5 1401.6 L24.7 1351.2 M43.5 1401.6 L61.5 1353.6 M70.5 1558.2 L99.3 1470.8 M99.3 1470.8 L107.5 1403.0 M107.5 1403.0 L93.1 1351.0 M107.5 1403.0 L110.9 1353.7 M107.5 1403.0 L128.4 1357.7 M99.3 1470.8 L130.4 1410.7 M130.4 1410.7 L126.8 1359.6 M130.4 1410.7 L154.8 1362.5 M130.4 1410.7 L170.4 1380.1 M424.2 2197.3 L366.9 1934.4 M366.9 1934.4 L282.2 1748.8 M282.2 1748.8 L175.4 1650.6 M175.4 1650.6 L69.4 1604.6 M69.4 1604.6 L-14.7 1590.7 M-14.7 1590.7 L-77.4 1614.5 M-77.4 1614.5 L-119.5 1644.2 M-77.4 1614.5 L-129.6 1621.3 M-14.7 1590.7 L-80.5 1585.1 M-80.5 1585.1 L-130.1 1594.2 M-80.5 1585.1 L-130.1 1568.5 M-14.7 1590.7 L-63.1 1547.9 M-63.1 1547.9 L-110.7 1539.1 M-63.1 1547.9 L-99.6 1520.0 M-63.1 1547.9 L-79.0 1503.0 M69.4 1604.6 L0.4 1553.1 M0.4 1553.1 L-59.7 1524.5 M-59.7 1524.5 L-108.2 1518.0 M-59.7 1524.5 L-93.5 1489.6 M0.4 1553.1 L-45.5 1502.8 M-45.5 1502.8 L-89.1 1482.3 M-45.5 1502.8 L-81.3 1465.1 M-45.5 1502.8 L-60.2 1450.5 M175.4 1650.6 L114.5 1555.2 M114.5 1555.2 L40.5 1512.4 M40.5 1512.4 L-24.1 1516.0 M-24.1 1516.0 L-70.3 1530.3 M-24.1 1516.0 L-71.4 1509.3 M40.5 1512.4 L-16.1 1475.1 M-16.1 1475.1 L-66.2 1457.6 M-16.1 1475.1 L-49.1 1436.7 M40.5 1512.4 L3.9 1461.4 M3.9 1461.4 L-41.3 1446.4 M3.9 1461.4 L-23.8 1420.0 M3.9 1461.4 L-12.9 1415.3 M114.5 1555.2 L66.2 1480.2 M66.2 1480.2 L11.4 1434.6 M11.4 1434.6 L-38.6 1414.1 M11.4 1434.6 L-21.8 1391.1 M66.2 1480.2 L42.3 1421.0 M42.3 1421.0 L13.2 1380.0 M42.3 1421.0 L37.6 1376.1 M114.5 1555.2 L105.8 1473.8 M105.8 1473.8 L86.7 1418.6 M86.7 1418.6 L61.9 1382.1 M86.7 1418.6 L83.1 1374.6 M105.8 1473.8 L116.8 1415.3 M116.8 1415.3 L112.9 1369.3 M116.8 1415.3 L137.3 1375.4 M282.2 1748.8 L229.0 1599.7 M229.0 1599.7 L143.6 1524.3 M143.6 1524.3 L65.0 1489.3 M65.0 1489.3 L4.3 1486.3 M4.3 1486.3 L-34.1 1506.0 M4.3 1486.3 L-43.0 1481.4 M4.3 1486.3 L-29.4 1457.6 M65.0 1489.3 L5.7 1457.6 M5.7 1457.6 L-41.9 1460.4 M5.7 1457.6 L-39.9 1435.9 M5.7 1457.6 L-29.6 1421.9 M65.0 1489.3 L23.8 1434.5 M23.8 1434.5 L-21.9 1417.0 M23.8 1434.5 L-4.3 1391.2 M23.8 1434.5 L17.1 1383.5 M143.6 1524.3 L101.9 1451.5 M101.9 1451.5 L58.0 1408.0 M58.0 1408.0 L13.0 1393.8 M58.0 1408.0 L23.9 1377.0 M58.0 1408.0 L35.4 1364.5 M101.9 1451.5 L78.5 1389.0 M78.5 1389.0 L35.4 1362.7 M78.5 1389.0 L59.6 1343.0 M78.5 1389.0 L82.2 1340.3 M229.0 1599.7 L188.3 1484.3 M188.3 1484.3 L147.6 1408.2 M147.6 1408.2 L102.1 1362.7 M102.1 1362.7 L57.5 1345.0 M102.1 1362.7 L68.9 1324.8 M102.1 1362.7 L94.5 1316.6 M147.6 1408.2 L122.2 1345.3 M122.2 1345.3 L83.4 1315.8 M122.2 1345.3 L104.4 1299.9 M122.2 1345.3 L127.2 1293.7 M188.3 1484.3 L172.7 1388.5 M172.7 1388.5 L144.2 1322.8 M144.2 1322.8 L101.4 1293.6 M144.2 1322.8 L120.5 1276.3 M144.2 1322.8 L151.2 1272.5 M172.7 1388.5 L181.2 1318.9 M181.2 1318.9 L181.3 1266.1 M181.2 1318.9 L200.0 1270.9 M229.0 1599.7 L250.1 1480.6 M250.1 1480.6 L239.0 1390.5 M239.0 1390.5 L209.6 1329.0 M209.6 1329.0 L173.4 1295.1 M209.6 1329.0 L184.0 1284.0 M209.6 1329.0 L207.3 1275.1 M239.0 1390.5 L235.0 1322.1 M235.0 1322.1 L219.1 1275.5 M235.0 1322.1 L233.6 1268.0 M235.0 1322.1 L249.2 1272.3 M239.0 1390.5 L252.3 1327.1 M252.3 1327.1 L253.5 1279.7 M252.3 1327.1 L270.0 1280.8 M250.1 1480.6 L266.6 1396.6 M266.6 1396.6 L238.4 1340.3 M238.4 1340.3 L208.9 1299.8 M238.4 1340.3 L226.6 1292.9 M266.6 1396.6 L279.7 1337.8 M279.7 1337.8 L274.8 1290.8 M279.7 1337.8 L287.6 1291.2 M279.7 1337.8 L308.0 1303.2 M266.6 1396.6 L301.3 1347.0 M301.3 1347.0 L306.8 1302.3 M301.3 1347.0 L328.1 1307.7 M301.3 1347.0 L337.5 1321.1 M250.1 1480.6 L300.7 1412.5 M300.7 1412.5 L301.5 1347.2 M301.5 1347.2 L296.2 1300.1 M301.5 1347.2 L314.6 1301.8 M300.7 1412.5 L334.9 1360.7 M334.9 1360.7 L329.2 1311.9 M334.9 1360.7 L360.4 1321.8 M334.9 1360.7 L372.7 1331.9 M300.7 1412.5 L356.6 1380.3 M356.6 1380.3 L394.7 1350.0 M356.6 1380.3 L402.4 1362.3 M282.2 1748.8 L282.9 1587.3 M282.9 1587.3 L227.2 1477.7 M227.2 1477.7 L172.7 1399.3 M172.7 1399.3 L116.2 1349.8 M116.2 1349.8 L66.7 1319.4 M116.2 1349.8 L86.4 1301.7 M172.7 1399.3 L143.7 1336.2 M143.7 1336.2 L99.8 1305.0 M143.7 1336.2 L120.0 1290.5 M143.7 1336.2 L148.5 1284.9 M227.2 1477.7 L205.5 1383.6 M205.5 1383.6 L156.8 1323.5 M156.8 1323.5 L105.6 1303.4 M156.8 1323.5 L117.7 1282.2 M156.8 1323.5 L144.9 1263.9 M205.5 1383.6 L187.2 1317.1 M187.2 1317.1 L146.0 1284.7 M187.2 1317.1 L170.2 1268.5 M187.2 1317.1 L196.7 1266.3 M205.5 1383.6 L212.5 1311.9 M212.5 1311.9 L192.0 1261.0 M212.5 1311.9 L217.7 1259.2 M212.5 1311.9 L240.0 1269.4 M282.9 1587.3 L282.4 1465.3 M282.4 1465.3 L249.3 1375.9 M249.3 1375.9 L214.4 1309.6 M214.4 1309.6 L165.5 1278.6 M214.4 1309.6 L189.5 1263.4 M214.4 1309.6 L219.5 1250.8 M249.3 1375.9 L236.1 1305.3 M236.1 1305.3 L199.5 1265.3 M236.1 1305.3 L226.1 1254.8 M236.1 1305.3 L255.4 1258.6 M282.4 1465.3 L281.3 1371.4 M281.3 1371.4 L257.0 1305.0 M257.0 1305.0 L221.6 1266.6 M257.0 1305.0 L235.1 1255.6 M257.0 1305.0 L253.4 1249.6 M281.3 1371.4 L298.1 1301.7 M298.1 1301.7 L303.0 1245.7 M298.1 1301.7 L326.4 1257.7 M282.4 1465.3 L332.8 1391.2 M332.8 1391.2 L360.3 1331.7 M360.3 1331.7 L356.5 1280.1 M360.3 1331.7 L381.1 1290.6 M360.3 1331.7 L399.6 1302.1 M332.8 1391.2 L384.9 1345.0 M384.9 1345.0 L411.0 1301.1 M384.9 1345.0 L427.4 1319.6 M282.9 1587.3 L342.0 1481.5 M342.0 1481.5 L351.5 1385.1 M351.5 1385.1 L330.0 1311.6 M330.0 1311.6 L305.7 1258.2 M330.0 1311.6 L326.9 1255.2 M351.5 1385.1 L365.5 1310.6 M365.5 1310.6 L363.4 1253.0 M365.5 1310.6 L393.4 1259.2 M351.5 1385.1 L379.9 1318.1 M379.9 1318.1 L378.3 1263.2 M379.9 1318.1 L399.1 1269.8 M379.9 1318.1 L424.4 1281.0 M342.0 1481.5 L390.7 1408.1 M390.7 1408.1 L410.7 1344.3 M410.7 1344.3 L396.7 1295.6 M410.7 1344.3 L425.3 1298.1 M410.7 1344.3 L436.6 1303.0 M390.7 1408.1 L438.2 1366.9 M438.2 1366.9 L456.2 1325.6 M438.2 1366.9 L478.2 1336.9 M438.2 1366.9 L487.2 1361.8 M342.0 1481.5 L423.4 1436.4 M423.4 1436.4 L463.2 1376.4 M463.2 1376.4 L463.7 1319.5 M463.2 1376.4 L493.1 1334.4 M463.2 1376.4 L512.3 1352.2 M423.4 1436.4 L484.0 1408.1 M484.0 1408.1 L514.5 1368.3 M484.0 1408.1 L529.0 1388.6 M484.0 1408.1 L533.8 1416.7 M423.4 1436.4 L494.1 1439.0 M494.1 1439.0 L546.7 1421.2 M494.1 1439.0 L545.3 1444.4 M494.1 1439.0 L536.0 1468.0 M366.9 1934.4 L358.1 1741.7 M358.1 1741.7 L291.2 1621.8 M291.2 1621.8 L210.8 1554.7 M210.8 1554.7 L141.9 1517.3 M141.9 1517.3 L82.0 1500.3 M82.0 1500.3 L37.3 1498.7 M82.0 1500.3 L38.1 1478.2 M141.9 1517.3 L95.1 1485.6 M95.1 1485.6 L56.1 1470.0 M95.1 1485.6 L70.4 1453.3 M210.8 1554.7 L171.1 1491.5 M171.1 1491.5 L121.8 1469.7 M121.8 1469.7 L83.4 1464.3 M121.8 1469.7 L91.2 1443.7 M171.1 1491.5 L138.6 1444.8 M138.6 1444.8 L101.8 1425.1 M138.6 1444.8 L115.8 1408.7 M138.6 1444.8 L126.0 1401.4 M171.1 1491.5 L173.3 1434.9 M173.3 1434.9 L155.5 1394.4 M173.3 1434.9 L172.4 1394.0 M173.3 1434.9 L189.6 1396.8 M291.2 1621.8 L263.2 1526.4 M263.2 1526.4 L216.2 1474.3 M216.2 1474.3 L167.2 1447.2 M167.2 1447.2 L125.3 1434.9 M167.2 1447.2 L132.4 1419.4 M216.2 1474.3 L194.6 1429.1 M194.6 1429.1 L173.3 1400.0 M194.6 1429.1 L188.3 1389.7 M263.2 1526.4 L247.4 1456.3 M247.4 1456.3 L225.9 1407.7 M225.9 1407.7 L200.6 1377.4 M225.9 1407.7 L216.4 1369.4 M247.4 1456.3 L249.6 1401.4 M249.6 1401.4 L240.1 1364.0 M249.6 1401.4 L256.3 1359.3 M263.2 1526.4 L260.0 1448.3 M260.0 1448.3 L237.2 1391.4 M237.2 1391.4 L207.2 1352.9 M237.2 1391.4 L219.0 1348.6 M237.2 1391.4 L243.9 1346.7 M260.0 1448.3 L271.3 1387.4 M271.3 1387.4 L253.8 1346.1 M271.3 1387.4 L278.6 1340.2 M271.3 1387.4 L303.6 1350.4 M358.1 1741.7 L343.5 1596.0 M343.5 1596.0 L289.5 1492.0 M289.5 1492.0 L230.3 1421.0 M230.3 1421.0 L162.1 1397.3 M162.1 1397.3 L107.6 1387.8 M162.1 1397.3 L115.5 1366.3 M230.3 1421.0 L184.8 1367.8 M184.8 1367.8 L139.3 1338.0 M184.8 1367.8 L164.8 1323.1 M230.3 1421.0 L216.0 1353.4 M216.0 1353.4 L184.0 1312.5 M216.0 1353.4 L205.6 1304.2 M216.0 1353.4 L227.7 1306.2 M289.5 1492.0 L269.4 1403.7 M269.4 1403.7 L234.8 1346.6 M234.8 1346.6 L194.7 1322.2 M234.8 1346.6 L207.1 1306.8 M234.8 1346.6 L234.0 1299.6 M269.4 1403.7 L250.8 1334.3 M250.8 1334.3 L228.8 1289.1 M250.8 1334.3 L243.2 1280.2 M269.4 1403.7 L287.2 1342.1 M287.2 1342.1 L290.0 1295.5 M287.2 1342.1 L314.6 1305.6 M343.5 1596.0 L372.1 1486.3 M372.1 1486.3 L355.2 1403.4 M355.2 1403.4 L323.3 1350.3 M323.3 1350.3 L280.3 1330.6 M323.3 1350.3 L296.7 1312.5 M323.3 1350.3 L319.9 1304.6 M355.2 1403.4 L357.4 1340.4 M357.4 1340.4 L337.6 1294.7 M357.4 1340.4 L358.3 1295.0 M357.4 1340.4 L380.1 1300.4 M372.1 1486.3 L392.1 1398.5 M392.1 1398.5 L384.3 1327.4 M384.3 1327.4 L363.6 1277.6 M384.3 1327.4 L397.1 1273.3 M392.1 1398.5 L419.6 1341.5 M419.6 1341.5 L425.7 1292.7 M419.6 1341.5 L445.3 1298.0 M372.1 1486.3 L416.9 1409.8 M416.9 1409.8 L427.1 1344.4 M427.1 1344.4 L418.4 1294.0 M427.1 1344.4 L446.3 1300.7 M416.9 1409.8 L454.9 1350.9 M454.9 1350.9 L477.7 1302.1 M454.9 1350.9 L499.4 1319.6 M416.9 1409.8 L469.2 1375.4 M469.2 1375.4 L483.9 1330.5 M469.2 1375.4 L512.2 1350.8 M469.2 1375.4 L513.7 1372.9 M358.1 1741.7 L425.7 1606.0 M425.7 1606.0 L458.9 1498.6 M458.9 1498.6 L461.9 1414.0 M461.9 1414.0 L452.2 1353.7 M452.2 1353.7 L433.8 1313.4 M452.2 1353.7 L453.8 1305.2 M461.9 1414.0 L483.6 1354.1 M483.6 1354.1 L489.5 1303.7 M483.6 1354.1 L512.6 1314.6 M458.9 1498.6 L498.3 1421.6 M498.3 1421.6 L504.0 1356.8 M504.0 1356.8 L495.6 1312.0 M504.0 1356.8 L520.2 1311.7 M498.3 1421.6 L522.5 1363.0 M522.5 1363.0 L533.6 1316.6 M522.5 1363.0 L552.9 1322.9 M498.3 1421.6 L545.3 1379.9 M545.3 1379.9 L570.1 1337.9 M545.3 1379.9 L586.4 1362.6 M425.7 1606.0 L503.6 1516.7 M503.6 1516.7 L554.6 1438.4 M554.6 1438.4 L561.5 1368.7 M561.5 1368.7 L546.7 1317.8 M561.5 1368.7 L575.5 1321.7 M554.6 1438.4 L593.7 1381.7 M593.7 1381.7 L596.1 1327.5 M593.7 1381.7 L625.8 1337.7 M593.7 1381.7 L640.1 1353.1 M554.6 1438.4 L613.0 1393.5 M613.0 1393.5 L645.5 1352.0 M613.0 1393.5 L665.8 1375.8 M503.6 1516.7 L583.3 1471.2 M583.3 1471.2 L618.8 1417.5 M618.8 1417.5 L626.7 1369.6 M618.8 1417.5 L646.0 1380.8 M618.8 1417.5 L655.8 1388.8 M583.3 1471.2 L644.4 1432.7 M644.4 1432.7 L671.8 1387.2 M644.4 1432.7 L690.1 1406.4 M644.4 1432.7 L699.1 1437.6 M583.3 1471.2 L648.0 1468.5 M648.0 1468.5 L687.0 1438.9 M648.0 1468.5 L699.3 1464.5 M648.0 1468.5 L691.4 1486.2 M424.2 2197.3 L460.1 1946.1 M460.1 1946.1 L379.5 1768.7 M379.5 1768.7 L255.1 1701.7 M255.1 1701.7 L148.3 1716.1 M148.3 1716.1 L85.1 1762.1 M85.1 1762.1 L59.7 1814.5 M59.7 1814.5 L51.5 1857.0 M59.7 1814.5 L31.1 1844.9 M85.1 1762.1 L31.9 1794.4 M31.9 1794.4 L2.4 1827.6 M31.9 1794.4 L-12.6 1809.2 M85.1 1762.1 L25.8 1773.9 M25.8 1773.9 L-13.5 1791.3 M25.8 1773.9 L-22.2 1778.6 M148.3 1716.1 L70.9 1719.6 M70.9 1719.6 L12.1 1731.0 M12.1 1731.0 L-28.6 1755.4 M12.1 1731.0 L-32.2 1731.2 M70.9 1719.6 L16.9 1715.3 M16.9 1715.3 L-22.8 1724.4 M16.9 1715.3 L-23.1 1699.8 M148.3 1716.1 L74.0 1693.6 M74.0 1693.6 L17.0 1695.6 M17.0 1695.6 L-20.6 1718.8 M17.0 1695.6 L-26.9 1699.3 M17.0 1695.6 L-22.8 1682.4 M74.0 1693.6 L19.5 1665.3 M19.5 1665.3 L-24.5 1656.3 M19.5 1665.3 L-19.7 1638.0 M255.1 1701.7 L161.9 1653.6 M161.9 1653.6 L83.4 1639.7 M83.4 1639.7 L23.2 1641.4 M23.2 1641.4 L-15.4 1666.1 M23.2 1641.4 L-24.0 1641.9 M23.2 1641.4 L-17.7 1620.9 M83.4 1639.7 L26.7 1610.8 M26.7 1610.8 L-16.3 1597.4 M26.7 1610.8 L-11.6 1583.3 M161.9 1653.6 L100.9 1601.7 M100.9 1601.7 L44.2 1572.7 M44.2 1572.7 L0.0 1563.6 M44.2 1572.7 L9.8 1540.6 M100.9 1601.7 L68.1 1556.1 M68.1 1556.1 L27.5 1541.1 M68.1 1556.1 L46.4 1521.6 M68.1 1556.1 L70.5 1516.6 M255.1 1701.7 L204.1 1616.7 M204.1 1616.7 L145.4 1564.6 M145.4 1564.6 L91.0 1536.2 M91.0 1536.2 L45.1 1526.2 M91.0 1536.2 L55.0 1502.8 M145.4 1564.6 L117.3 1509.4 M117.3 1509.4 L85.7 1479.5 M117.3 1509.4 L97.8 1464.8 M117.3 1509.4 L113.1 1465.5 M204.1 1616.7 L179.3 1547.9 M179.3 1547.9 L156.2 1500.8 M156.2 1500.8 L124.8 1473.3 M156.2 1500.8 L139.5 1464.6 M156.2 1500.8 L154.6 1459.1 M179.3 1547.9 L180.4 1493.9 M180.4 1493.9 L161.6 1460.7 M180.4 1493.9 L184.4 1451.1 M180.4 1493.9 L197.4 1454.4 M379.5 1768.7 L326.0 1642.2 M326.0 1642.2 L255.7 1568.3 M255.7 1568.3 L195.4 1524.4 M195.4 1524.4 L139.7 1512.8 M139.7 1512.8 L96.3 1513.0 M139.7 1512.8 L101.0 1491.6 M195.4 1524.4 L149.8 1489.6 M149.8 1489.6 L109.6 1487.5 M149.8 1489.6 L114.6 1460.8 M149.8 1489.6 L127.4 1454.2 M195.4 1524.4 L171.2 1473.3 M171.2 1473.3 L143.8 1438.8 M171.2 1473.3 L167.9 1429.1 M255.7 1568.3 L218.6 1506.9 M218.6 1506.9 L184.9 1467.2 M184.9 1467.2 L151.8 1442.8 M184.9 1467.2 L168.2 1433.6 M218.6 1506.9 L206.8 1451.2 M206.8 1451.2 L189.1 1415.0 M206.8 1451.2 L206.4 1408.2 M326.0 1642.2 L309.8 1536.9 M309.8 1536.9 L283.0 1461.3 M283.0 1461.3 L242.2 1418.7 M242.2 1418.7 L206.0 1391.2 M242.2 1418.7 L220.6 1379.6 M283.0 1461.3 L259.7 1405.6 M259.7 1405.6 L224.2 1380.0 M259.7 1405.6 L244.2 1363.5 M259.7 1405.6 L261.0 1361.6 M283.0 1461.3 L298.7 1406.2 M298.7 1406.2 L289.7 1366.6 M298.7 1406.2 L309.7 1365.7 M298.7 1406.2 L331.6 1377.6 M309.8 1536.9 L315.5 1461.6 M315.5 1461.6 L301.9 1404.9 M301.9 1404.9 L268.2 1380.1 M301.9 1404.9 L293.1 1361.8 M301.9 1404.9 L305.0 1359.3 M315.5 1461.6 L332.3 1409.2 M332.3 1409.2 L334.3 1367.5 M332.3 1409.2 L353.7 1374.0 M379.5 1768.7 L376.5 1623.5 M376.5 1623.5 L335.6 1519.1 M335.6 1519.1 L284.5 1459.0 M284.5 1459.0 L231.5 1427.3 M231.5 1427.3 L183.0 1419.3 M231.5 1427.3 L193.9 1406.1 M231.5 1427.3 L204.5 1389.0 M284.5 1459.0 L251.2 1406.6 M251.2 1406.6 L219.9 1371.1 M251.2 1406.6 L237.0 1360.9 M335.6 1519.1 L322.4 1434.2 M322.4 1434.2 L285.5 1382.4 M285.5 1382.4 L242.0 1359.8 M285.5 1382.4 L256.6 1342.7 M285.5 1382.4 L281.0 1331.9 M322.4 1434.2 L315.2 1371.4 M315.2 1371.4 L302.0 1323.8 M315.2 1371.4 L319.8 1325.6 M322.4 1434.2 L351.5 1377.5 M351.5 1377.5 L367.2 1329.8 M351.5 1377.5 L378.8 1339.2 M376.5 1623.5 L397.2 1511.8 M397.2 1511.8 L400.3 1430.2 M400.3 1430.2 L386.9 1370.0 M386.9 1370.0 L364.6 1328.7 M386.9 1370.0 L378.5 1326.7 M386.9 1370.0 L398.1 1328.1 M400.3 1430.2 L419.5 1374.8 M419.5 1374.8 L405.6 1331.6 M419.5 1374.8 L430.6 1334.8 M419.5 1374.8 L452.6 1343.2 M397.2 1511.8 L428.0 1437.1 M428.0 1437.1 L431.9 1375.8 M431.9 1375.8 L420.3 1331.0 M431.9 1375.8 L448.4 1332.3 M428.0 1437.1 L445.6 1381.2 M445.6 1381.2 L445.4 1339.2 M445.6 1381.2 L469.5 1345.2 M428.0 1437.1 L470.1 1396.6 M470.1 1396.6 L490.7 1355.9 M470.1 1396.6 L504.5 1370.3 M460.1 1946.1 L477.7 1763.0 M477.7 1763.0 L421.9 1640.6 M421.9 1640.6 L371.1 1559.4 M371.1 1559.4 L317.1 1516.0 M317.1 1516.0 L265.4 1510.3 M265.4 1510.3 L226.6 1515.8 M265.4 1510.3 L229.3 1500.9 M317.1 1516.0 L278.0 1485.3 M278.0 1485.3 L241.9 1469.3 M278.0 1485.3 L254.7 1456.6 M317.1 1516.0 L292.9 1470.5 M292.9 1470.5 L256.9 1451.9 M292.9 1470.5 L274.1 1434.2 M292.9 1470.5 L294.1 1430.1 M371.1 1559.4 L342.1 1491.1 M342.1 1491.1 L302.9 1452.8 M302.9 1452.8 L267.2 1431.8 M302.9 1452.8 L276.8 1418.7 M342.1 1491.1 L316.9 1441.5 M316.9 1441.5 L294.0 1408.2 M316.9 1441.5 L313.3 1401.5 M342.1 1491.1 L349.3 1433.4 M349.3 1433.4 L345.2 1391.3 M349.3 1433.4 L369.8 1392.3 M421.9 1640.6 L400.7 1545.3 M400.7 1545.3 L356.2 1492.9 M356.2 1492.9 L314.6 1464.3 M314.6 1464.3 L274.4 1461.1 M314.6 1464.3 L284.1 1444.6 M314.6 1464.3 L296.4 1431.2 M356.2 1492.9 L333.6 1443.4 M333.6 1443.4 L305.4 1415.3 M333.6 1443.4 L326.0 1405.6 M400.7 1545.3 L387.3 1468.5 M387.3 1468.5 L363.3 1412.4 M363.3 1412.4 L341.0 1372.5 M363.3 1412.4 L362.7 1363.9 M387.3 1468.5 L394.0 1409.7 M394.0 1409.7 L381.9 1368.3 M394.0 1409.7 L401.7 1364.4 M394.0 1409.7 L417.5 1372.9 M400.7 1545.3 L428.0 1476.2 M428.0 1476.2 L438.6 1418.2 M438.6 1418.2 L435.5 1375.9 M438.6 1418.2 L457.6 1378.2 M428.0 1476.2 L457.9 1425.7 M457.9 1425.7 L470.2 1384.8 M457.9 1425.7 L489.3 1394.6 M477.7 1763.0 L487.8 1632.6 M487.8 1632.6 L474.6 1530.9 M474.6 1530.9 L426.2 1466.8 M426.2 1466.8 L375.6 1428.2 M375.6 1428.2 L333.1 1409.9 M375.6 1428.2 L349.7 1389.1 M426.2 1466.8 L393.2 1414.4 M393.2 1414.4 L351.6 1390.0 M393.2 1414.4 L371.5 1375.6 M393.2 1414.4 L378.4 1368.1 M426.2 1466.8 L418.9 1406.9 M418.9 1406.9 L404.0 1362.7 M418.9 1406.9 L422.6 1359.7 M474.6 1530.9 L457.1 1452.0 M457.1 1452.0 L426.8 1402.4 M426.8 1402.4 L387.5 1379.9 M426.8 1402.4 L405.9 1365.4 M426.8 1402.4 L420.1 1358.4 M457.1 1452.0 L443.4 1397.0 M443.4 1397.0 L426.5 1360.9 M443.4 1397.0 L439.3 1356.5 M457.1 1452.0 L477.8 1397.9 M477.8 1397.9 L484.8 1353.9 M477.8 1397.9 L499.3 1363.3 M474.6 1530.9 L495.4 1462.0 M495.4 1462.0 L486.1 1406.6 M486.1 1406.6 L468.3 1369.5 M486.1 1406.6 L488.2 1362.9 M495.4 1462.0 L507.8 1409.5 M507.8 1409.5 L509.8 1367.9 M507.8 1409.5 L523.8 1375.2 M495.4 1462.0 L524.9 1419.4 M524.9 1419.4 L544.2 1382.8 M524.9 1419.4 L553.7 1395.7 M487.8 1632.6 L521.8 1546.1 M521.8 1546.1 L507.3 1475.8 M507.3 1475.8 L476.3 1427.5 M476.3 1427.5 L445.2 1397.6 M476.3 1427.5 L461.1 1387.0 M507.3 1475.8 L497.0 1425.2 M497.0 1425.2 L484.0 1387.8 M497.0 1425.2 L501.4 1384.8 M507.3 1475.8 L519.3 1425.8 M519.3 1425.8 L508.1 1389.1 M519.3 1425.8 L530.2 1390.6 M519.3 1425.8 L541.8 1391.9 M521.8 1546.1 L551.1 1482.0 M551.1 1482.0 L551.0 1425.7 M551.0 1425.7 L532.9 1389.5 M551.0 1425.7 L551.2 1386.3 M551.0 1425.7 L570.8 1386.5 M551.1 1482.0 L570.1 1436.0 M570.1 1436.0 L581.0 1401.3 M570.1 1436.0 L593.8 1408.6 M551.1 1482.0 L596.0 1450.1 M596.0 1450.1 L626.3 1420.6 M596.0 1450.1 L635.2 1436.2 M521.8 1546.1 L572.3 1502.2 M572.3 1502.2 L595.0 1460.6 M595.0 1460.6 L594.8 1425.6 M595.0 1460.6 L613.3 1430.7 M595.0 1460.6 L628.3 1442.7 M572.3 1502.2 L615.7 1477.2 M615.7 1477.2 L644.1 1452.5 M615.7 1477.2 L651.6 1463.3 M477.7 1763.0 L553.1 1645.5 M553.1 1645.5 L582.9 1546.4 M582.9 1546.4 L573.4 1473.7 M573.4 1473.7 L538.1 1429.7 M538.1 1429.7 L503.5 1406.4 M538.1 1429.7 L525.1 1387.3 M573.4 1473.7 L569.3 1419.9 M569.3 1419.9 L543.5 1388.8 M569.3 1419.9 L565.8 1377.8 M569.3 1419.9 L588.9 1381.7 M573.4 1473.7 L581.4 1422.2 M581.4 1422.2 L567.9 1384.9 M581.4 1422.2 L589.1 1382.0 M581.4 1422.2 L600.6 1390.6 M582.9 1546.4 L601.6 1466.2 M601.6 1466.2 L592.5 1401.7 M592.5 1401.7 L571.8 1358.4 M592.5 1401.7 L593.1 1355.5 M601.6 1466.2 L617.5 1403.2 M617.5 1403.2 L618.0 1357.2 M617.5 1403.2 L636.8 1361.3 M601.6 1466.2 L633.2 1411.7 M633.2 1411.7 L646.4 1365.3 M633.2 1411.7 L668.6 1379.5 M582.9 1546.4 L635.7 1483.5 M635.7 1483.5 L645.9 1420.3 M645.9 1420.3 L636.2 1374.2 M645.9 1420.3 L668.6 1374.4 M635.7 1483.5 L675.5 1439.0 M675.5 1439.0 L702.3 1399.8 M675.5 1439.0 L714.0 1416.4 M635.7 1483.5 L693.6 1464.2 M693.6 1464.2 L731.8 1438.4 M693.6 1464.2 L737.2 1445.4 M693.6 1464.2 L736.7 1476.5 M553.1 1645.5 L611.5 1557.1 M611.5 1557.1 L627.3 1480.4 M627.3 1480.4 L605.3 1424.1 M605.3 1424.1 L577.1 1387.9 M605.3 1424.1 L586.2 1381.0 M605.3 1424.1 L609.1 1376.3 M627.3 1480.4 L636.5 1422.3 M636.5 1422.3 L635.2 1378.3 M636.5 1422.3 L650.0 1380.1 M627.3 1480.4 L667.2 1438.0 M667.2 1438.0 L691.4 1402.8 M667.2 1438.0 L702.0 1412.3 M611.5 1557.1 L663.1 1500.5 M663.1 1500.5 L691.1 1453.7 M691.1 1453.7 L697.0 1414.2 M691.1 1453.7 L710.3 1414.8 M691.1 1453.7 L723.1 1426.3 M663.1 1500.5 L705.4 1464.2 M705.4 1464.2 L716.0 1425.5 M705.4 1464.2 L736.9 1437.9 M705.4 1464.2 L742.9 1452.0 M553.1 1645.5 L638.3 1595.7 M638.3 1595.7 L694.6 1542.0 M694.6 1542.0 L726.4 1491.3 M726.4 1491.3 L743.4 1448.2 M726.4 1491.3 L757.1 1456.8 M694.6 1542.0 L743.8 1510.9 M743.8 1510.9 L777.5 1480.8 M743.8 1510.9 L783.5 1499.4 M638.3 1595.7 L705.5 1571.3 M705.5 1571.3 L752.0 1548.5 M752.0 1548.5 L780.3 1522.0 M752.0 1548.5 L788.2 1540.7 M705.5 1571.3 L756.9 1564.4 M756.9 1564.4 L794.1 1548.4 M756.9 1564.4 L796.1 1573.4 M460.1 1946.1 L579.7 1804.3 M579.7 1804.3 L633.1 1675.9 M633.1 1675.9 L652.6 1568.4 M652.6 1568.4 L630.1 1492.9 M630.1 1492.9 L602.1 1436.4 M602.1 1436.4 L561.3 1409.7 M602.1 1436.4 L583.7 1390.9 M602.1 1436.4 L596.6 1391.8 M630.1 1492.9 L629.9 1431.9 M629.9 1431.9 L606.9 1392.8 M629.9 1431.9 L631.1 1387.8 M629.9 1431.9 L649.1 1387.7 M652.6 1568.4 L673.0 1484.8 M673.0 1484.8 L674.7 1421.2 M674.7 1421.2 L651.3 1383.2 M674.7 1421.2 L678.3 1376.1 M674.7 1421.2 L703.8 1379.5 M673.0 1484.8 L699.5 1429.1 M699.5 1429.1 L713.2 1382.3 M699.5 1429.1 L731.1 1399.0 M652.6 1568.4 L698.9 1501.9 M698.9 1501.9 L720.8 1443.2 M720.8 1443.2 L716.2 1394.0 M720.8 1443.2 L734.4 1396.0 M720.8 1443.2 L757.5 1416.4 M698.9 1501.9 L742.2 1464.5 M742.2 1464.5 L760.1 1425.5 M742.2 1464.5 L776.0 1434.0 M742.2 1464.5 L783.8 1451.3 M633.1 1675.9 L689.0 1588.3 M689.0 1588.3 L719.8 1515.3 M719.8 1515.3 L727.8 1459.0 M727.8 1459.0 L718.2 1416.4 M727.8 1459.0 L736.6 1417.1 M727.8 1459.0 L757.8 1425.9 M719.8 1515.3 L758.2 1474.4 M758.2 1474.4 L781.9 1441.0 M758.2 1474.4 L792.1 1453.2 M689.0 1588.3 L739.1 1534.7 M739.1 1534.7 L757.2 1479.9 M757.2 1479.9 L758.1 1437.5 M757.2 1479.9 L774.1 1439.2 M757.2 1479.9 L788.7 1447.1 M739.1 1534.7 L781.0 1494.2 M781.0 1494.2 L788.4 1453.0 M781.0 1494.2 L813.9 1462.8 M781.0 1494.2 L823.3 1474.7 M739.1 1534.7 L793.0 1521.0 M793.0 1521.0 L831.3 1504.8 M793.0 1521.0 L832.0 1519.5 M579.7 1804.3 L703.2 1728.8 M703.2 1728.8 L752.9 1626.8 M752.9 1626.8 L751.6 1544.6 M751.6 1544.6 L742.7 1486.1 M742.7 1486.1 L719.1 1445.3 M742.7 1486.1 L748.8 1440.6 M751.6 1544.6 L769.6 1485.1 M769.6 1485.1 L758.5 1438.4 M769.6 1485.1 L783.8 1439.9 M769.6 1485.1 L804.7 1457.4 M752.9 1626.8 L794.0 1558.5 M794.0 1558.5 L813.3 1501.2 M813.3 1501.2 L809.2 1455.8 M813.3 1501.2 L830.5 1462.0 M813.3 1501.2 L844.5 1470.3 M794.0 1558.5 L831.8 1511.6 M831.8 1511.6 L842.8 1468.9 M831.8 1511.6 L863.0 1478.9 M831.8 1511.6 L871.3 1492.3 M752.9 1626.8 L820.9 1571.7 M820.9 1571.7 L861.0 1516.0 M861.0 1516.0 L872.7 1464.8 M861.0 1516.0 L894.4 1476.6 M861.0 1516.0 L903.2 1486.2 M820.9 1571.7 L881.5 1543.3 M881.5 1543.3 L908.1 1500.5 M881.5 1543.3 L930.3 1523.0 M881.5 1543.3 L934.5 1544.7 M703.2 1728.8 L800.8 1670.0 M800.8 1670.0 L858.6 1611.6 M858.6 1611.6 L888.0 1561.7 M888.0 1561.7 L899.6 1518.6 M888.0 1561.7 L918.1 1531.5 M858.6 1611.6 L908.4 1581.3 M908.4 1581.3 L940.3 1554.9 M908.4 1581.3 L949.8 1562.4 M800.8 1670.0 L884.8 1646.9 M884.8 1646.9 L935.6 1603.4 M935.6 1603.4 L965.2 1565.6 M935.6 1603.4 L982.0 1581.6 M884.8 1646.9 L945.0 1635.2 M945.0 1635.2 L986.8 1620.9 M945.0 1635.2 L989.4 1636.3 M884.8 1646.9 L949.4 1662.5 M949.4 1662.5 L1000.0 1650.0 M949.4 1662.5 L1001.6 1670.9 M949.4 1662.5 L988.6 1695.2 M703.2 1728.8 L811.6 1721.2 M811.6 1721.2 L894.5 1696.3 M894.5 1696.3 L949.1 1660.3 M949.1 1660.3 L983.7 1629.9 M949.1 1660.3 L992.5 1639.4 M894.5 1696.3 L961.9 1697.6 M961.9 1697.6 L1008.3 1678.9 M961.9 1697.6 L1012.4 1698.5 M961.9 1697.6 L1011.5 1714.1 M811.6 1721.2 L891.4 1730.2 M891.4 1730.2 L946.6 1718.6 M946.6 1718.6 L986.5 1698.5 M946.6 1718.6 L990.2 1716.3 M891.4 1730.2 L947.4 1736.4 M947.4 1736.4 L989.6 1726.1 M947.4 1736.4 L990.0 1750.8 M891.4 1730.2 L939.3 1769.5 M939.3 1769.5 L981.0 1782.4 M939.3 1769.5 L966.8 1808.3 M817.1 2536.1 L822.6 2083.5 M822.6 2083.5 L753.4 1730.6 M753.4 1730.6 L638.7 1481.1 M638.7 1481.1 L529.1 1303.9 M529.1 1303.9 L413.0 1200.5 M413.0 1200.5 L318.7 1134.5 M318.7 1134.5 L241.4 1099.4 M241.4 1099.4 L175.3 1100.1 M241.4 1099.4 L182.9 1073.4 M241.4 1099.4 L206.6 1049.7 M318.7 1134.5 L253.2 1071.1 M253.2 1071.1 L193.7 1044.9 M253.2 1071.1 L205.2 1017.7 M253.2 1071.1 L241.5 1002.8 M413.0 1200.5 L355.3 1100.7 M355.3 1100.7 L298.1 1031.3 M298.1 1031.3 L246.7 991.6 M298.1 1031.3 L275.7 966.7 M355.3 1100.7 L332.0 1014.4 M332.0 1014.4 L306.0 956.5 M332.0 1014.4 L331.2 947.1 M529.1 1303.9 L488.6 1158.2 M488.6 1158.2 L430.4 1059.5 M430.4 1059.5 L378.7 991.5 M378.7 991.5 L319.7 959.5 M378.7 991.5 L343.7 940.1 M378.7 991.5 L366.5 927.7 M430.4 1059.5 L401.3 980.6 M401.3 980.6 L366.9 926.9 M401.3 980.6 L388.0 922.0 M488.6 1158.2 L479.5 1048.0 M479.5 1048.0 L436.6 979.0 M436.6 979.0 L395.8 932.8 M436.6 979.0 L421.3 922.0 M479.5 1048.0 L466.1 966.3 M466.1 966.3 L442.7 911.3 M466.1 966.3 L467.9 907.1 M479.5 1048.0 L518.2 972.1 M518.2 972.1 L533.5 911.7 M518.2 972.1 L554.0 923.8 M638.7 1481.1 L605.5 1274.5 M605.5 1274.5 L508.2 1149.9 M508.2 1149.9 L417.1 1063.2 M417.1 1063.2 L336.1 1020.1 M336.1 1020.1 L269.4 1010.2 M336.1 1020.1 L284.6 974.5 M417.1 1063.2 L348.3 1005.6 M348.3 1005.6 L291.8 978.2 M348.3 1005.6 L299.1 956.5 M348.3 1005.6 L328.1 944.5 M417.1 1063.2 L388.5 973.0 M388.5 973.0 L344.3 916.9 M388.5 973.0 L363.8 904.8 M388.5 973.0 L393.3 904.0 M508.2 1149.9 L459.3 1043.2 M459.3 1043.2 L403.1 976.4 M403.1 976.4 L345.7 949.2 M403.1 976.4 L360.7 924.1 M403.1 976.4 L388.6 914.3 M459.3 1043.2 L437.8 953.2 M437.8 953.2 L397.9 891.0 M437.8 953.2 L425.9 889.4 M437.8 953.2 L452.5 882.3 M605.5 1274.5 L594.1 1125.1 M594.1 1125.1 L558.1 1024.1 M558.1 1024.1 L518.7 955.0 M518.7 955.0 L476.5 913.5 M518.7 955.0 L506.7 899.3 M558.1 1024.1 L553.5 947.6 M553.5 947.6 L527.8 892.6 M553.5 947.6 L548.5 892.9 M553.5 947.6 L581.4 898.4 M594.1 1125.1 L608.6 1008.6 M608.6 1008.6 L597.2 916.6 M597.2 916.6 L572.7 853.7 M597.2 916.6 L609.7 847.6 M608.6 1008.6 L647.8 927.2 M647.8 927.2 L668.9 860.1 M647.8 927.2 L687.5 869.9 M605.5 1274.5 L665.9 1129.9 M665.9 1129.9 L646.3 1006.7 M646.3 1006.7 L586.6 929.0 M586.6 929.0 L522.3 898.2 M586.6 929.0 L535.5 872.7 M586.6 929.0 L575.7 857.9 M646.3 1006.7 L628.2 920.0 M628.2 920.0 L583.2 873.9 M628.2 920.0 L609.6 856.5 M628.2 920.0 L657.6 857.6 M646.3 1006.7 L689.0 920.5 M689.0 920.5 L695.5 851.8 M689.0 920.5 L739.6 865.6 M665.9 1129.9 L705.7 1021.0 M705.7 1021.0 L693.7 933.9 M693.7 933.9 L653.8 876.3 M693.7 933.9 L685.8 864.3 M693.7 933.9 L721.6 873.5 M705.7 1021.0 L733.7 941.8 M733.7 941.8 L741.4 879.2 M733.7 941.8 L770.7 894.9 M705.7 1021.0 L769.7 963.3 M769.7 963.3 L793.3 899.9 M769.7 963.3 L814.3 916.4 M769.7 963.3 L830.2 956.1 M665.9 1129.9 L763.0 1054.6 M763.0 1054.6 L814.3 974.4 M814.3 974.4 L829.9 904.6 M814.3 974.4 L854.3 912.4 M814.3 974.4 L872.1 936.5 M763.0 1054.6 L847.9 1028.1 M847.9 1028.1 L890.9 980.7 M847.9 1028.1 L915.1 1011.6 M847.9 1028.1 L918.5 1032.0 M753.4 1730.6 L806.0 1466.2 M806.0 1466.2 L817.4 1259.7 M817.4 1259.7 L780.5 1099.2 M780.5 1099.2 L693.8 1016.1 M693.8 1016.1 L613.2 977.4 M613.2 977.4 L546.3 985.0 M613.2 977.4 L549.8 949.6 M613.2 977.4 L572.5 919.9 M693.8 1016.1 L639.0 949.1 M639.0 949.1 L577.5 924.7 M639.0 949.1 L602.0 901.1 M639.0 949.1 L628.8 888.0 M780.5 1099.2 L747.9 976.9 M747.9 976.9 L701.8 893.6 M701.8 893.6 L639.2 856.5 M701.8 893.6 L663.2 827.9 M701.8 893.6 L702.0 824.5 M747.9 976.9 L749.1 880.1 M749.1 880.1 L713.9 815.5 M749.1 880.1 L749.6 803.0 M749.1 880.1 L776.1 813.5 M780.5 1099.2 L820.3 985.0 M820.3 985.0 L835.8 894.9 M835.8 894.9 L811.9 826.8 M835.8 894.9 L849.3 832.1 M835.8 894.9 L878.4 836.7 M820.3 985.0 L860.8 908.9 M860.8 908.9 L875.1 846.4 M860.8 908.9 L900.8 859.3 M817.4 1259.7 L869.6 1120.4 M869.6 1120.4 L880.7 1008.2 M880.7 1008.2 L871.5 927.3 M871.5 927.3 L841.1 876.2 M871.5 927.3 L867.5 866.9 M871.5 927.3 L894.9 872.7 M880.7 1008.2 L902.7 930.1 M902.7 930.1 L908.2 872.6 M902.7 930.1 L928.2 877.6 M869.6 1120.4 L936.1 1036.5 M936.1 1036.5 L975.0 971.7 M975.0 971.7 L978.4 914.4 M975.0 971.7 L1003.7 925.2 M975.0 971.7 L1024.2 946.4 M936.1 1036.5 L1004.6 988.2 M1004.6 988.2 L1044.0 942.6 M1004.6 988.2 L1058.2 959.7 M806.0 1466.2 L899.8 1278.6 M899.8 1278.6 L933.9 1134.9 M933.9 1134.9 L930.3 1018.5 M930.3 1018.5 L900.5 939.9 M900.5 939.9 L855.9 892.2 M900.5 939.9 L877.3 884.2 M900.5 939.9 L904.7 874.3 M930.3 1018.5 L928.8 936.5 M928.8 936.5 L907.6 880.9 M928.8 936.5 L929.0 873.2 M928.8 936.5 L953.3 882.0 M930.3 1018.5 L972.9 940.1 M972.9 940.1 L987.7 875.7 M972.9 940.1 L1022.6 899.2 M933.9 1134.9 L979.2 1034.4 M979.2 1034.4 L1006.8 952.1 M1006.8 952.1 L1016.6 885.5 M1006.8 952.1 L1040.6 896.5 M979.2 1034.4 L1023.0 962.5 M1023.0 962.5 L1033.9 898.0 M1023.0 962.5 L1066.5 917.5 M899.8 1278.6 L984.0 1156.6 M984.0 1156.6 L1007.2 1047.8 M1007.2 1047.8 L1004.1 962.0 M1004.1 962.0 L986.0 898.1 M1004.1 962.0 L1016.1 896.1 M1007.2 1047.8 L1047.2 975.4 M1047.2 975.4 L1063.2 918.3 M1047.2 975.4 L1086.9 932.1 M984.0 1156.6 L1054.0 1063.1 M1054.0 1063.1 L1081.0 980.8 M1081.0 980.8 L1092.8 917.3 M1081.0 980.8 L1113.9 922.5 M1054.0 1063.1 L1109.8 988.2 M1109.8 988.2 L1119.1 923.3 M1109.8 988.2 L1146.9 933.6 M1109.8 988.2 L1176.3 962.0 M1054.0 1063.1 L1130.0 1030.3 M1130.0 1030.3 L1179.1 991.0 M1130.0 1030.3 L1192.1 1019.4 M984.0 1156.6 L1071.2 1094.1 M1071.2 1094.1 L1111.3 1023.1 M1111.3 1023.1 L1123.8 960.1 M1111.3 1023.1 L1152.0 982.9 M1071.2 1094.1 L1143.3 1050.8 M1143.3 1050.8 L1189.4 1002.9 M1143.3 1050.8 L1203.7 1028.2 M1071.2 1094.1 L1153.6 1075.8 M1153.6 1075.8 L1207.3 1037.9 M1153.6 1075.8 L1217.9 1062.3 M1153.6 1075.8 L1212.2 1089.1 M822.6 2083.5 L904.2 1738.6 M904.2 1738.6 L888.7 1487.1 M888.7 1487.1 L828.6 1320.3 M828.6 1320.3 L761.1 1197.8 M761.1 1197.8 L692.1 1123.2 M692.1 1123.2 L628.7 1084.4 M628.7 1084.4 L575.9 1067.5 M628.7 1084.4 L588.0 1046.2 M692.1 1123.2 L647.4 1065.1 M647.4 1065.1 L604.7 1029.1 M647.4 1065.1 L628.5 1012.7 M761.1 1197.8 L732.8 1097.1 M732.8 1097.1 L685.9 1029.3 M685.9 1029.3 L632.1 1003.2 M685.9 1029.3 L654.5 979.9 M685.9 1029.3 L679.1 966.1 M732.8 1097.1 L705.8 1025.4 M705.8 1025.4 L671.3 979.6 M705.8 1025.4 L700.0 969.8 M732.8 1097.1 L735.6 1020.0 M735.6 1020.0 L722.6 964.8 M735.6 1020.0 L753.5 961.0 M828.6 1320.3 L811.2 1195.3 M811.2 1195.3 L777.0 1103.8 M777.0 1103.8 L726.0 1057.7 M726.0 1057.7 L681.4 1038.0 M726.0 1057.7 L698.3 1012.1 M777.0 1103.8 L751.7 1035.6 M751.7 1035.6 L721.3 993.5 M751.7 1035.6 L749.5 978.9 M777.0 1103.8 L781.6 1028.4 M781.6 1028.4 L772.9 974.6 M781.6 1028.4 L793.8 975.9 M811.2 1195.3 L808.9 1099.5 M808.9 1099.5 L788.0 1034.6 M788.0 1034.6 L748.2 1003.5 M788.0 1034.6 L773.5 985.4 M788.0 1034.6 L791.3 983.2 M808.9 1099.5 L831.5 1035.0 M831.5 1035.0 L829.0 981.4 M831.5 1035.0 L844.0 986.7 M831.5 1035.0 L868.2 998.1 M888.7 1487.1 L931.5 1303.6 M931.5 1303.6 L931.1 1163.0 M931.1 1163.0 L895.5 1059.2 M895.5 1059.2 L850.1 987.8 M850.1 987.8 L811.3 940.3 M850.1 987.8 L830.1 923.7 M895.5 1059.2 L878.2 975.4 M878.2 975.4 L854.2 919.9 M878.2 975.4 L883.0 910.7 M931.1 1163.0 L947.9 1062.2 M947.9 1062.2 L920.0 992.4 M920.0 992.4 L885.8 945.5 M920.0 992.4 L912.6 936.1 M947.9 1062.2 L963.6 991.0 M963.6 991.0 L961.7 938.2 M963.6 991.0 L990.7 944.5 M947.9 1062.2 L997.4 997.6 M997.4 997.6 L1025.4 941.4 M997.4 997.6 L1040.4 960.1 M931.5 1303.6 L994.7 1168.2 M994.7 1168.2 L1007.9 1063.3 M1007.9 1063.3 L998.5 985.6 M998.5 985.6 L976.4 928.5 M998.5 985.6 L1007.1 925.7 M1007.9 1063.3 L1030.3 982.7 M1030.3 982.7 L1013.1 921.1 M1030.3 982.7 L1052.2 920.2 M1030.3 982.7 L1069.6 935.7 M994.7 1168.2 L1069.9 1081.9 M1069.9 1081.9 L1099.8 1006.8 M1099.8 1006.8 L1114.1 951.1 M1099.8 1006.8 L1134.3 954.6 M1069.9 1081.9 L1125.0 1013.3 M1125.0 1013.3 L1155.7 957.1 M1125.0 1013.3 L1175.3 974.4 M1069.9 1081.9 L1147.4 1061.2 M1147.4 1061.2 L1204.5 1037.4 M1147.4 1061.2 L1210.5 1060.1 M904.2 1738.6 L1035.6 1488.6 M1035.6 1488.6 L1061.1 1265.7 M1061.1 1265.7 L1057.9 1101.4 M1057.9 1101.4 L1032.6 986.7 M1032.6 986.7 L984.3 913.2 M984.3 913.2 L936.6 871.0 M984.3 913.2 L958.8 854.6 M1032.6 986.7 L1042.5 896.4 M1042.5 896.4 L1031.0 829.0 M1042.5 896.4 L1062.7 831.7 M1057.9 1101.4 L1085.4 977.9 M1085.4 977.9 L1076.0 879.3 M1076.0 879.3 L1045.2 815.4 M1076.0 879.3 L1071.9 804.8 M1076.0 879.3 L1111.4 819.6 M1085.4 977.9 L1125.0 891.8 M1125.0 891.8 L1119.6 823.8 M1125.0 891.8 L1149.4 829.7 M1125.0 891.8 L1175.2 837.9 M1061.1 1265.7 L1130.0 1116.3 M1130.0 1116.3 L1165.0 1000.9 M1165.0 1000.9 L1172.0 910.7 M1172.0 910.7 L1141.4 845.6 M1172.0 910.7 L1174.2 842.0 M1172.0 910.7 L1206.1 854.4 M1165.0 1000.9 L1217.3 923.7 M1217.3 923.7 L1238.7 852.3 M1217.3 923.7 L1262.3 873.9 M1130.0 1116.3 L1196.7 1016.0 M1196.7 1016.0 L1230.9 937.1 M1230.9 937.1 L1241.5 869.3 M1230.9 937.1 L1271.8 892.2 M1196.7 1016.0 L1254.5 950.7 M1254.5 950.7 L1281.1 894.0 M1254.5 950.7 L1305.8 914.8 M1035.6 1488.6 L1129.4 1312.6 M1129.4 1312.6 L1103.0 1168.6 M1103.0 1168.6 L1062.7 1069.2 M1062.7 1069.2 L1001.0 1012.2 M1001.0 1012.2 L951.6 977.1 M1001.0 1012.2 L966.6 962.1 M1062.7 1069.2 L1028.6 1001.5 M1028.6 1001.5 L995.9 954.3 M1028.6 1001.5 L1021.0 942.0 M1062.7 1069.2 L1053.0 989.9 M1053.0 989.9 L1024.6 940.7 M1053.0 989.9 L1046.9 931.1 M1053.0 989.9 L1064.6 933.3 M1103.0 1168.6 L1106.7 1058.8 M1106.7 1058.8 L1073.2 982.6 M1073.2 982.6 L1029.0 943.7 M1073.2 982.6 L1049.6 928.3 M1073.2 982.6 L1064.7 918.5 M1106.7 1058.8 L1105.2 978.1 M1105.2 978.1 L1073.5 927.9 M1105.2 978.1 L1108.7 916.6 M1105.2 978.1 L1135.8 927.9 M1106.7 1058.8 L1139.7 980.5 M1139.7 980.5 L1136.1 912.9 M1139.7 980.5 L1163.8 923.4 M1139.7 980.5 L1183.3 939.8 M1129.4 1312.6 L1191.3 1171.7 M1191.3 1171.7 L1229.5 1055.0 M1229.5 1055.0 L1236.6 961.6 M1236.6 961.6 L1232.7 893.9 M1236.6 961.6 L1256.5 898.4 M1229.5 1055.0 L1267.3 966.9 M1267.3 966.9 L1286.0 899.6 M1267.3 966.9 L1313.9 911.1 M1191.3 1171.7 L1259.2 1079.0 M1259.2 1079.0 L1285.4 1000.0 M1285.4 1000.0 L1277.0 938.2 M1285.4 1000.0 L1300.0 938.9 M1285.4 1000.0 L1331.3 952.9 M1259.2 1079.0 L1324.1 1015.0 M1324.1 1015.0 L1360.7 962.3 M1324.1 1015.0 L1376.1 973.7 M1129.4 1312.6 L1235.5 1204.4 M1235.5 1204.4 L1289.4 1107.8 M1289.4 1107.8 L1312.5 1024.3 M1312.5 1024.3 L1291.9 958.4 M1312.5 1024.3 L1327.7 957.5 M1312.5 1024.3 L1348.0 974.2 M1289.4 1107.8 L1339.0 1047.5 M1339.0 1047.5 L1365.0 995.9 M1339.0 1047.5 L1386.4 1018.5 M1235.5 1204.4 L1326.3 1146.8 M1326.3 1146.8 L1377.2 1081.5 M1377.2 1081.5 L1404.0 1023.1 M1377.2 1081.5 L1431.4 1043.9 M1326.3 1146.8 L1389.2 1099.1 M1389.2 1099.1 L1428.1 1056.8 M1389.2 1099.1 L1445.5 1078.6 M1326.3 1146.8 L1405.6 1155.8 M1405.6 1155.8 L1463.4 1148.0 M1405.6 1155.8 L1461.4 1168.9 M1035.6 1488.6 L1216.7 1374.6 M1216.7 1374.6 L1333.8 1256.8 M1333.8 1256.8 L1403.2 1148.8 M1403.2 1148.8 L1422.7 1060.4 M1422.7 1060.4 L1426.3 994.5 M1422.7 1060.4 L1451.4 1000.8 M1403.2 1148.8 L1474.3 1076.9 M1474.3 1076.9 L1495.9 1006.1 M1474.3 1076.9 L1526.8 1019.5 M1474.3 1076.9 L1542.3 1040.9 M1333.8 1256.8 L1435.6 1198.0 M1435.6 1198.0 L1490.0 1135.6 M1490.0 1135.6 L1517.9 1080.0 M1490.0 1135.6 L1540.9 1096.3 M1435.6 1198.0 L1516.0 1149.5 M1516.0 1149.5 L1558.9 1097.5 M1516.0 1149.5 L1582.6 1129.6 M1435.6 1198.0 L1526.2 1183.9 M1526.2 1183.9 L1585.9 1153.6 M1526.2 1183.9 L1595.1 1190.2 M1216.7 1374.6 L1351.6 1309.3 M1351.6 1309.3 L1429.7 1236.8 M1429.7 1236.8 L1468.5 1161.5 M1468.5 1161.5 L1474.1 1098.2 M1468.5 1161.5 L1495.0 1099.3 M1468.5 1161.5 L1522.5 1124.2 M1429.7 1236.8 L1490.2 1182.2 M1490.2 1182.2 L1521.5 1127.8 M1490.2 1182.2 L1545.7 1156.8 M1429.7 1236.8 L1509.2 1221.9 M1509.2 1221.9 L1557.2 1185.1 M1509.2 1221.9 L1570.4 1208.8 M1509.2 1221.9 L1563.3 1248.9 M1351.6 1309.3 L1456.3 1284.5 M1456.3 1284.5 L1534.4 1252.5 M1534.4 1252.5 L1585.8 1209.2 M1534.4 1252.5 L1593.4 1239.3 M1456.3 1284.5 L1533.4 1288.2 M1533.4 1288.2 L1591.4 1267.4 M1533.4 1288.2 L1593.3 1293.1 M1533.4 1288.2 L1583.3 1317.1 M1070.7 2546.0 L1064.6 2154.1 M1064.6 2154.1 L1002.0 1863.1 M1002.0 1863.1 L882.6 1669.2 M882.6 1669.2 L755.5 1543.1 M755.5 1543.1 L654.7 1465.5 M654.7 1465.5 L558.2 1459.7 M558.2 1459.7 L488.9 1476.0 M488.9 1476.0 L449.1 1511.5 M488.9 1476.0 L438.3 1486.3 M488.9 1476.0 L434.6 1471.8 M558.2 1459.7 L491.9 1430.0 M491.9 1430.0 L434.3 1430.4 M491.9 1430.0 L444.3 1404.3 M491.9 1430.0 L462.2 1386.5 M654.7 1465.5 L576.2 1411.5 M576.2 1411.5 L501.7 1406.1 M501.7 1406.1 L448.1 1426.5 M501.7 1406.1 L447.4 1397.3 M501.7 1406.1 L448.6 1381.1 M576.2 1411.5 L519.4 1373.2 M519.4 1373.2 L471.0 1369.9 M519.4 1373.2 L479.6 1344.5 M519.4 1373.2 L492.2 1328.7 M576.2 1411.5 L553.2 1348.3 M553.2 1348.3 L526.9 1305.3 M553.2 1348.3 L551.2 1297.3 M654.7 1465.5 L605.2 1383.7 M605.2 1383.7 L541.1 1356.0 M541.1 1356.0 L490.2 1363.9 M541.1 1356.0 L496.5 1334.1 M541.1 1356.0 L509.3 1317.9 M605.2 1383.7 L570.7 1321.1 M570.7 1321.1 L539.7 1277.8 M570.7 1321.1 L562.2 1270.8 M605.2 1383.7 L608.6 1309.9 M608.6 1309.9 L597.6 1253.5 M608.6 1309.9 L624.6 1258.3 M755.5 1543.1 L690.8 1426.3 M690.8 1426.3 L599.7 1389.8 M599.7 1389.8 L529.5 1389.7 M529.5 1389.7 L481.4 1399.8 M529.5 1389.7 L477.4 1377.7 M599.7 1389.8 L531.4 1368.0 M531.4 1368.0 L477.6 1366.1 M531.4 1368.0 L484.0 1336.6 M599.7 1389.8 L551.9 1329.0 M551.9 1329.0 L508.3 1293.0 M551.9 1329.0 L524.5 1280.8 M690.8 1426.3 L639.3 1346.8 M639.3 1346.8 L573.0 1311.4 M573.0 1311.4 L517.2 1303.6 M573.0 1311.4 L522.5 1283.1 M573.0 1311.4 L539.0 1265.1 M639.3 1346.8 L607.0 1287.1 M607.0 1287.1 L565.1 1263.7 M607.0 1287.1 L582.3 1245.3 M607.0 1287.1 L598.2 1233.7 M639.3 1346.8 L629.3 1279.2 M629.3 1279.2 L617.1 1231.1 M629.3 1279.2 L633.1 1225.0 M690.8 1426.3 L674.8 1327.0 M674.8 1327.0 L640.7 1261.2 M640.7 1261.2 L596.3 1229.2 M640.7 1261.2 L614.3 1212.4 M640.7 1261.2 L645.2 1206.1 M674.8 1327.0 L683.5 1249.4 M683.5 1249.4 L670.8 1191.9 M683.5 1249.4 L707.1 1195.1 M882.6 1669.2 L839.5 1515.1 M839.5 1515.1 L766.3 1424.1 M766.3 1424.1 L694.3 1370.1 M694.3 1370.1 L632.8 1350.9 M632.8 1350.9 L581.7 1348.5 M632.8 1350.9 L594.9 1326.2 M694.3 1370.1 L657.3 1314.5 M657.3 1314.5 L624.1 1280.7 M657.3 1314.5 L638.3 1268.6 M766.3 1424.1 L727.5 1351.6 M727.5 1351.6 L686.5 1306.8 M686.5 1306.8 L650.6 1281.2 M686.5 1306.8 L664.5 1265.5 M727.5 1351.6 L713.7 1294.7 M713.7 1294.7 L696.5 1254.5 M713.7 1294.7 L714.2 1249.8 M839.5 1515.1 L818.0 1402.5 M818.0 1402.5 L774.8 1333.3 M774.8 1333.3 L721.0 1306.5 M721.0 1306.5 L678.4 1300.6 M721.0 1306.5 L679.0 1289.5 M721.0 1306.5 L693.8 1271.0 M774.8 1333.3 L748.2 1282.7 M748.2 1282.7 L722.5 1251.1 M748.2 1282.7 L739.4 1241.0 M774.8 1333.3 L766.4 1271.2 M766.4 1271.2 L751.2 1228.3 M766.4 1271.2 L768.1 1222.1 M818.0 1402.5 L822.1 1317.1 M822.1 1317.1 L791.0 1261.0 M791.0 1261.0 L755.4 1225.6 M791.0 1261.0 L779.7 1215.6 M822.1 1317.1 L826.9 1255.8 M826.9 1255.8 L820.9 1209.2 M826.9 1255.8 L839.8 1213.5 M822.1 1317.1 L857.5 1267.4 M857.5 1267.4 L873.3 1225.9 M857.5 1267.4 L892.6 1235.3 M839.5 1515.1 L850.9 1402.5 M850.9 1402.5 L830.1 1324.4 M830.1 1324.4 L807.7 1267.5 M807.7 1267.5 L780.0 1234.0 M807.7 1267.5 L798.3 1223.5 M830.1 1324.4 L831.8 1261.1 M831.8 1261.1 L810.4 1220.1 M831.8 1261.1 L829.3 1213.1 M831.8 1261.1 L846.6 1217.6 M850.9 1402.5 L863.1 1314.5 M863.1 1314.5 L850.4 1252.4 M850.4 1252.4 L827.6 1210.2 M850.4 1252.4 L855.4 1206.9 M863.1 1314.5 L875.8 1244.7 M875.8 1244.7 L859.2 1196.0 M875.8 1244.7 L884.9 1194.5 M875.8 1244.7 L912.8 1202.6 M863.1 1314.5 L902.7 1262.4 M902.7 1262.4 L919.2 1217.7 M902.7 1262.4 L938.5 1226.2 M850.9 1402.5 L898.7 1330.8 M898.7 1330.8 L904.8 1266.4 M904.8 1266.4 L899.7 1215.0 M904.8 1266.4 L920.8 1223.7 M898.7 1330.8 L932.0 1271.9 M932.0 1271.9 L931.9 1223.3 M932.0 1271.9 L955.5 1224.5 M932.0 1271.9 L978.6 1248.4 M898.7 1330.8 L951.3 1298.2 M951.3 1298.2 L981.6 1265.1 M951.3 1298.2 L993.4 1287.3 M1002.0 1863.1 L971.2 1653.8 M971.2 1653.8 L886.0 1513.9 M886.0 1513.9 L781.4 1436.1 M781.4 1436.1 L684.5 1425.6 M684.5 1425.6 L612.5 1439.0 M612.5 1439.0 L560.6 1459.0 M612.5 1439.0 L555.9 1439.6 M684.5 1425.6 L622.2 1392.1 M622.2 1392.1 L569.2 1386.8 M622.2 1392.1 L578.7 1364.6 M622.2 1392.1 L587.1 1350.1 M781.4 1436.1 L707.6 1375.1 M707.6 1375.1 L639.8 1342.1 M639.8 1342.1 L583.6 1332.6 M639.8 1342.1 L593.0 1312.1 M707.6 1375.1 L666.1 1320.4 M666.1 1320.4 L627.7 1289.8 M666.1 1320.4 L645.3 1273.1 M781.4 1436.1 L746.8 1343.9 M746.8 1343.9 L709.6 1278.2 M709.6 1278.2 L669.7 1232.9 M709.6 1278.2 L699.6 1222.2 M746.8 1343.9 L741.2 1269.6 M741.2 1269.6 L715.4 1223.1 M741.2 1269.6 L737.6 1215.1 M741.2 1269.6 L752.0 1211.2 M886.0 1513.9 L808.5 1409.0 M808.5 1409.0 L723.1 1374.2 M723.1 1374.2 L652.5 1389.1 M652.5 1389.1 L613.3 1424.1 M652.5 1389.1 L598.2 1396.5 M652.5 1389.1 L599.8 1383.1 M723.1 1374.2 L660.9 1344.3 M660.9 1344.3 L611.7 1338.4 M660.9 1344.3 L613.7 1319.8 M660.9 1344.3 L628.6 1303.9 M723.1 1374.2 L683.8 1312.4 M683.8 1312.4 L645.5 1272.9 M683.8 1312.4 L666.2 1258.3 M808.5 1409.0 L752.0 1333.5 M752.0 1333.5 L689.2 1300.8 M689.2 1300.8 L637.0 1291.8 M689.2 1300.8 L640.2 1280.0 M689.2 1300.8 L661.0 1258.9 M752.0 1333.5 L706.2 1282.3 M706.2 1282.3 L663.6 1248.2 M706.2 1282.3 L683.5 1235.9 M752.0 1333.5 L729.1 1271.3 M729.1 1271.3 L690.3 1241.7 M729.1 1271.3 L714.3 1221.2 M729.1 1271.3 L732.8 1220.5 M808.5 1409.0 L780.2 1312.2 M780.2 1312.2 L723.4 1261.8 M723.4 1261.8 L671.3 1239.5 M723.4 1261.8 L690.9 1214.4 M780.2 1312.2 L758.5 1240.2 M758.5 1240.2 L717.8 1199.8 M758.5 1240.2 L744.9 1185.5 M758.5 1240.2 L777.0 1187.6 M780.2 1312.2 L793.0 1238.5 M793.0 1238.5 L793.9 1185.7 M793.0 1238.5 L820.7 1187.1 M886.0 1513.9 L863.8 1396.8 M863.8 1396.8 L805.1 1325.3 M805.1 1325.3 L755.6 1282.4 M755.6 1282.4 L709.7 1259.0 M755.6 1282.4 L731.0 1242.7 M805.1 1325.3 L779.0 1257.6 M779.0 1257.6 L754.1 1211.2 M779.0 1257.6 L769.8 1201.8 M863.8 1396.8 L840.4 1306.3 M840.4 1306.3 L815.4 1236.5 M815.4 1236.5 L777.9 1196.3 M815.4 1236.5 L795.3 1181.1 M815.4 1236.5 L824.2 1182.6 M840.4 1306.3 L843.8 1235.5 M843.8 1235.5 L833.3 1183.8 M843.8 1235.5 L856.0 1184.4 M863.8 1396.8 L904.1 1312.7 M904.1 1312.7 L888.1 1240.2 M888.1 1240.2 L864.0 1193.3 M888.1 1240.2 L890.9 1186.1 M904.1 1312.7 L931.4 1244.0 M931.4 1244.0 L934.0 1188.4 M931.4 1244.0 L967.2 1200.7 M904.1 1312.7 L957.1 1268.7 M957.1 1268.7 L990.5 1232.7 M957.1 1268.7 L1004.4 1242.8 M971.2 1653.8 L947.4 1496.4 M947.4 1496.4 L873.2 1399.8 M873.2 1399.8 L806.3 1346.2 M806.3 1346.2 L746.3 1339.3 M746.3 1339.3 L702.9 1355.5 M746.3 1339.3 L700.9 1336.2 M746.3 1339.3 L713.6 1309.3 M806.3 1346.2 L756.7 1309.7 M756.7 1309.7 L708.9 1302.7 M756.7 1309.7 L720.6 1279.0 M756.7 1309.7 L735.9 1267.5 M806.3 1346.2 L783.7 1284.3 M783.7 1284.3 L755.5 1242.9 M783.7 1284.3 L778.5 1236.7 M873.2 1399.8 L832.4 1316.7 M832.4 1316.7 L784.0 1272.7 M784.0 1272.7 L740.8 1254.0 M784.0 1272.7 L753.8 1234.4 M832.4 1316.7 L804.0 1257.0 M804.0 1257.0 L776.2 1212.6 M804.0 1257.0 L798.0 1204.6 M832.4 1316.7 L829.8 1248.3 M829.8 1248.3 L817.7 1200.1 M829.8 1248.3 L838.3 1199.4 M947.4 1496.4 L929.0 1382.6 M929.0 1382.6 L901.0 1302.3 M901.0 1302.3 L868.6 1243.1 M868.6 1243.1 L833.2 1204.8 M868.6 1243.1 L857.6 1191.9 M901.0 1302.3 L900.9 1241.4 M900.9 1241.4 L886.0 1198.2 M900.9 1241.4 L899.2 1194.5 M900.9 1241.4 L919.7 1202.2 M929.0 1382.6 L929.1 1292.3 M929.1 1292.3 L917.8 1224.7 M917.8 1224.7 L893.1 1182.3 M917.8 1224.7 L920.5 1171.0 M929.1 1292.3 L948.6 1223.8 M948.6 1223.8 L938.1 1173.9 M948.6 1223.8 L958.8 1172.8 M948.6 1223.8 L989.1 1184.8 M947.4 1496.4 L971.6 1384.7 M971.6 1384.7 L943.6 1308.4 M943.6 1308.4 L898.5 1271.0 M898.5 1271.0 L858.2 1253.1 M898.5 1271.0 L871.1 1239.1 M943.6 1308.4 L921.9 1253.5 M921.9 1253.5 L896.1 1215.0 M921.9 1253.5 L910.0 1210.4 M943.6 1308.4 L957.5 1248.4 M957.5 1248.4 L949.9 1202.5 M957.5 1248.4 L968.1 1204.5 M957.5 1248.4 L992.5 1216.0 M971.6 1384.7 L985.9 1294.8 M985.9 1294.8 L981.6 1226.9 M981.6 1226.9 L948.9 1185.1 M981.6 1226.9 L980.0 1174.8 M981.6 1226.9 L1004.3 1177.6 M985.9 1294.8 L1023.1 1233.9 M1023.1 1233.9 L1033.1 1179.8 M1023.1 1233.9 L1057.9 1196.0 M971.6 1384.7 L1015.8 1316.8 M1015.8 1316.8 L1036.2 1263.3 M1036.2 1263.3 L1042.4 1220.7 M1036.2 1263.3 L1062.7 1229.9 M1015.8 1316.8 L1057.7 1277.7 M1057.7 1277.7 L1075.2 1239.5 M1057.7 1277.7 L1092.2 1249.5 M1057.7 1277.7 L1099.1 1266.4 M971.2 1653.8 L1008.9 1491.5 M1008.9 1491.5 L956.7 1369.3 M956.7 1369.3 L895.3 1291.6 M895.3 1291.6 L837.1 1252.8 M837.1 1252.8 L787.2 1238.3 M837.1 1252.8 L793.9 1229.1 M837.1 1252.8 L810.3 1204.4 M895.3 1291.6 L851.5 1228.4 M851.5 1228.4 L801.8 1196.5 M851.5 1228.4 L837.4 1174.6 M895.3 1291.6 L872.9 1216.2 M872.9 1216.2 L839.8 1165.3 M872.9 1216.2 L876.2 1156.6 M956.7 1369.3 L921.3 1282.3 M921.3 1282.3 L878.6 1221.4 M878.6 1221.4 L832.8 1196.0 M878.6 1221.4 L845.2 1180.4 M878.6 1221.4 L866.6 1164.9 M921.3 1282.3 L908.3 1211.2 M908.3 1211.2 L880.6 1161.6 M908.3 1211.2 L908.9 1155.7 M956.7 1369.3 L957.0 1265.8 M957.0 1265.8 L914.9 1198.3 M914.9 1198.3 L870.3 1164.3 M914.9 1198.3 L896.0 1144.2 M957.0 1265.8 L951.2 1185.9 M951.2 1185.9 L934.8 1129.2 M951.2 1185.9 L961.7 1124.9 M957.0 1265.8 L982.7 1194.5 M982.7 1194.5 L984.1 1140.4 M982.7 1194.5 L1014.5 1143.3 M1008.9 1491.5 L1028.7 1374.5 M1028.7 1374.5 L1024.6 1280.0 M1024.6 1280.0 L1006.9 1207.2 M1006.9 1207.2 L972.5 1158.6 M1006.9 1207.2 L989.9 1155.5 M1006.9 1207.2 L1027.4 1153.8 M1024.6 1280.0 L1035.5 1206.3 M1035.5 1206.3 L1034.0 1150.2 M1035.5 1206.3 L1052.9 1152.9 M1028.7 1374.5 L1067.5 1294.8 M1067.5 1294.8 L1083.9 1228.9 M1083.9 1228.9 L1085.9 1178.2 M1083.9 1228.9 L1106.9 1181.4 M1067.5 1294.8 L1111.3 1239.2 M1111.3 1239.2 L1131.8 1190.0 M1111.3 1239.2 L1149.4 1204.8 M1008.9 1491.5 L1079.8 1391.4 M1079.8 1391.4 L1119.4 1307.6 M1119.4 1307.6 L1132.9 1240.9 M1132.9 1240.9 L1129.3 1193.3 M1132.9 1240.9 L1139.7 1192.1 M1132.9 1240.9 L1165.7 1197.7 M1119.4 1307.6 L1163.6 1257.3 M1163.6 1257.3 L1186.8 1212.2 M1163.6 1257.3 L1206.1 1234.5 M1079.8 1391.4 L1146.9 1320.9 M1146.9 1320.9 L1160.7 1249.9 M1160.7 1249.9 L1158.7 1197.9 M1160.7 1249.9 L1186.1 1198.8 M1146.9 1320.9 L1200.1 1271.8 M1200.1 1271.8 L1228.6 1225.6 M1200.1 1271.8 L1248.7 1250.1 M1146.9 1320.9 L1220.4 1304.4 M1220.4 1304.4 L1273.7 1278.0 M1220.4 1304.4 L1276.9 1305.1 M1002.0 1863.1 L1053.5 1647.2 M1053.5 1647.2 L1057.0 1475.4 M1057.0 1475.4 L1023.0 1352.6 M1023.0 1352.6 L954.9 1293.8 M954.9 1293.8 L886.3 1289.8 M886.3 1289.8 L839.1 1300.5 M886.3 1289.8 L838.6 1276.1 M954.9 1293.8 L906.0 1250.5 M906.0 1250.5 L861.3 1223.8 M906.0 1250.5 L879.1 1208.1 M954.9 1293.8 L928.3 1232.2 M928.3 1232.2 L894.1 1191.5 M928.3 1232.2 L926.3 1178.9 M1023.0 1352.6 L1000.3 1257.4 M1000.3 1257.4 L943.8 1208.3 M943.8 1208.3 L889.8 1190.3 M943.8 1208.3 L904.2 1172.7 M943.8 1208.3 L927.3 1151.9 M1000.3 1257.4 L984.6 1190.0 M984.6 1190.0 L946.1 1151.0 M984.6 1190.0 L968.4 1140.5 M984.6 1190.0 L999.0 1141.1 M1000.3 1257.4 L1016.3 1183.4 M1016.3 1183.4 L1010.7 1127.1 M1016.3 1183.4 L1043.2 1133.0 M1023.0 1352.6 L1025.4 1253.6 M1025.4 1253.6 L1007.6 1179.9 M1007.6 1179.9 L964.8 1140.2 M1007.6 1179.9 L995.8 1122.9 M1007.6 1179.9 L1017.2 1125.7 M1025.4 1253.6 L1043.2 1185.2 M1043.2 1185.2 L1043.1 1133.5 M1043.2 1185.2 L1064.3 1132.7 M1057.0 1475.4 L1089.5 1354.9 M1089.5 1354.9 L1094.4 1262.7 M1094.4 1262.7 L1073.3 1195.2 M1073.3 1195.2 L1039.8 1155.5 M1073.3 1195.2 L1060.0 1146.0 M1073.3 1195.2 L1083.3 1145.5 M1094.4 1262.7 L1109.4 1196.1 M1109.4 1196.1 L1114.5 1144.2 M1109.4 1196.1 L1130.9 1151.4 M1089.5 1354.9 L1135.1 1273.1 M1135.1 1273.1 L1159.2 1205.7 M1159.2 1205.7 L1145.5 1153.2 M1159.2 1205.7 L1174.4 1151.5 M1159.2 1205.7 L1200.4 1173.3 M1135.1 1273.1 L1185.1 1223.2 M1185.1 1223.2 L1199.7 1174.0 M1185.1 1223.2 L1222.1 1186.4 M1185.1 1223.2 L1236.2 1206.2 M1053.5 1647.2 L1104.3 1487.5 M1104.3 1487.5 L1111.0 1363.8 M1111.0 1363.8 L1094.0 1268.1 M1094.0 1268.1 L1067.5 1198.1 M1067.5 1198.1 L1035.0 1150.9 M1067.5 1198.1 L1054.8 1140.2 M1094.0 1268.1 L1103.4 1196.0 M1103.4 1196.0 L1100.9 1141.2 M1103.4 1196.0 L1122.9 1142.7 M1111.0 1363.8 L1134.0 1274.7 M1134.0 1274.7 L1131.9 1208.3 M1131.9 1208.3 L1103.1 1169.7 M1131.9 1208.3 L1126.6 1158.7 M1131.9 1208.3 L1161.2 1164.6 M1134.0 1274.7 L1166.2 1218.1 M1166.2 1218.1 L1175.6 1167.3 M1166.2 1218.1 L1198.9 1182.4 M1104.3 1487.5 L1174.4 1375.2 M1174.4 1375.2 L1211.7 1280.6 M1211.7 1280.6 L1207.7 1208.8 M1207.7 1208.8 L1194.5 1160.1 M1207.7 1208.8 L1216.1 1157.1 M1211.7 1280.6 L1243.0 1215.2 M1243.0 1215.2 L1237.7 1157.9 M1243.0 1215.2 L1265.9 1165.6 M1243.0 1215.2 L1283.3 1180.5 M1211.7 1280.6 L1271.7 1235.0 M1271.7 1235.0 L1314.1 1195.1 M1271.7 1235.0 L1320.5 1206.2 M1174.4 1375.2 L1243.2 1309.7 M1243.2 1309.7 L1276.5 1250.4 M1276.5 1250.4 L1294.8 1204.9 M1276.5 1250.4 L1308.0 1213.8 M1243.2 1309.7 L1299.3 1273.7 M1299.3 1273.7 L1338.7 1242.5 M1299.3 1273.7 L1344.5 1262.1 M1064.6 2154.1 L1128.7 1868.1 M1128.7 1868.1 L1075.2 1657.4 M1075.2 1657.4 L995.3 1520.0 M995.3 1520.0 L892.9 1462.5 M892.9 1462.5 L805.7 1427.6 M805.7 1427.6 L735.0 1419.3 M735.0 1419.3 L682.7 1429.8 M735.0 1419.3 L685.4 1399.3 M805.7 1427.6 L746.9 1384.4 M746.9 1384.4 L692.8 1387.3 M746.9 1384.4 L705.9 1351.2 M746.9 1384.4 L724.4 1332.3 M892.9 1462.5 L827.3 1406.2 M827.3 1406.2 L770.3 1378.9 M770.3 1378.9 L726.3 1373.6 M770.3 1378.9 L737.5 1346.3 M827.3 1406.2 L790.7 1347.9 M790.7 1347.9 L755.9 1305.9 M790.7 1347.9 L775.5 1300.6 M995.3 1520.0 L933.6 1422.5 M933.6 1422.5 L864.1 1372.5 M864.1 1372.5 L805.0 1345.1 M805.0 1345.1 L757.9 1334.4 M805.0 1345.1 L765.2 1318.5 M864.1 1372.5 L826.9 1323.6 M826.9 1323.6 L786.7 1297.2 M826.9 1323.6 L808.5 1278.1 M933.6 1422.5 L888.7 1347.5 M888.7 1347.5 L830.4 1309.5 M830.4 1309.5 L778.0 1294.1 M830.4 1309.5 L795.3 1271.7 M888.7 1347.5 L858.2 1288.8 M858.2 1288.8 L826.7 1250.6 M858.2 1288.8 L844.3 1241.7 M888.7 1347.5 L888.2 1278.9 M888.2 1278.9 L868.6 1229.4 M888.2 1278.9 L886.8 1225.0 M888.2 1278.9 L912.8 1231.3 M933.6 1422.5 L938.0 1338.6 M938.0 1338.6 L914.5 1281.3 M914.5 1281.3 L883.6 1244.1 M914.5 1281.3 L895.8 1242.0 M914.5 1281.3 L924.0 1234.7 M938.0 1338.6 L944.8 1279.9 M944.8 1279.9 L921.5 1240.4 M944.8 1279.9 L949.6 1234.5 M944.8 1279.9 L975.7 1245.1 M938.0 1338.6 L964.3 1280.4 M964.3 1280.4 L973.2 1231.9 M964.3 1280.4 L997.1 1244.4 M995.3 1520.0 L982.0 1408.5 M982.0 1408.5 L954.2 1332.5 M954.2 1332.5 L923.7 1275.4 M923.7 1275.4 L878.6 1252.5 M923.7 1275.4 L899.6 1236.1 M923.7 1275.4 L915.3 1230.7 M954.2 1332.5 L948.0 1270.7 M948.0 1270.7 L930.8 1225.2 M948.0 1270.7 L953.2 1225.1 M982.0 1408.5 L997.3 1325.6 M997.3 1325.6 L981.5 1265.4 M981.5 1265.4 L961.9 1222.0 M981.5 1265.4 L981.0 1221.7 M997.3 1325.6 L1014.0 1260.8 M1014.0 1260.8 L1012.0 1210.3 M1014.0 1260.8 L1027.9 1211.5 M1014.0 1260.8 L1048.2 1224.1 M997.3 1325.6 L1040.4 1279.5 M1040.4 1279.5 L1061.3 1235.0 M1040.4 1279.5 L1079.2 1255.2 M1075.2 1657.4 L1082.2 1498.5 M1082.2 1498.5 L1071.3 1376.5 M1071.3 1376.5 L1038.8 1287.1 M1038.8 1287.1 L998.6 1223.2 M998.6 1223.2 L959.0 1179.4 M998.6 1223.2 L982.8 1168.0 M1038.8 1287.1 L1035.5 1219.6 M1035.5 1219.6 L1019.4 1170.6 M1035.5 1219.6 L1048.6 1170.2 M1071.3 1376.5 L1079.4 1288.1 M1079.4 1288.1 L1068.6 1224.7 M1068.6 1224.7 L1049.3 1178.0 M1068.6 1224.7 L1071.7 1176.4 M1079.4 1288.1 L1101.2 1228.6 M1101.2 1228.6 L1104.0 1180.3 M1101.2 1228.6 L1114.8 1184.5 M1101.2 1228.6 L1136.7 1197.7 M1082.2 1498.5 L1125.8 1392.6 M1125.8 1392.6 L1124.7 1303.8 M1124.7 1303.8 L1100.9 1237.0 M1100.9 1237.0 L1075.6 1192.9 M1100.9 1237.0 L1094.0 1181.7 M1124.7 1303.8 L1123.9 1238.1 M1123.9 1238.1 L1105.5 1195.2 M1123.9 1238.1 L1131.1 1191.6 M1124.7 1303.8 L1150.6 1244.2 M1150.6 1244.2 L1141.6 1197.0 M1150.6 1244.2 L1173.5 1199.5 M1150.6 1244.2 L1183.5 1211.5 M1125.8 1392.6 L1161.2 1308.6 M1161.2 1308.6 L1172.4 1244.2 M1172.4 1244.2 L1167.6 1193.3 M1172.4 1244.2 L1194.1 1202.2 M1161.2 1308.6 L1204.4 1256.2 M1204.4 1256.2 L1228.6 1208.6 M1204.4 1256.2 L1244.2 1226.7 M1125.8 1392.6 L1189.8 1337.8 M1189.8 1337.8 L1222.8 1279.8 M1222.8 1279.8 L1239.5 1233.3 M1222.8 1279.8 L1256.4 1238.8 M1189.8 1337.8 L1242.8 1310.7 M1242.8 1310.7 L1266.2 1273.5 M1242.8 1310.7 L1283.2 1286.5 M1242.8 1310.7 L1289.2 1306.5 M1128.7 1868.1 L1165.0 1658.9 M1165.0 1658.9 L1138.9 1504.8 M1138.9 1504.8 L1106.5 1391.9 M1106.5 1391.9 L1053.9 1325.7 M1053.9 1325.7 L1004.9 1284.3 M1004.9 1284.3 L960.8 1261.5 M1004.9 1284.3 L977.4 1243.9 M1053.9 1325.7 L1031.5 1265.4 M1031.5 1265.4 L1003.8 1229.5 M1031.5 1265.4 L1026.5 1219.9 M1106.5 1391.9 L1091.6 1305.8 M1091.6 1305.8 L1054.1 1256.2 M1054.1 1256.2 L1014.4 1235.0 M1054.1 1256.2 L1025.0 1217.8 M1054.1 1256.2 L1042.5 1209.4 M1091.6 1305.8 L1074.4 1239.9 M1074.4 1239.9 L1055.9 1192.1 M1074.4 1239.9 L1072.4 1188.4 M1091.6 1305.8 L1119.0 1247.7 M1119.0 1247.7 L1128.4 1200.9 M1119.0 1247.7 L1149.9 1210.4 M1138.9 1504.8 L1143.1 1395.3 M1143.1 1395.3 L1118.5 1313.4 M1118.5 1313.4 L1080.0 1265.1 M1080.0 1265.1 L1038.2 1245.2 M1080.0 1265.1 L1053.5 1229.9 M1080.0 1265.1 L1063.8 1224.1 M1118.5 1313.4 L1094.6 1252.1 M1094.6 1252.1 L1069.7 1210.1 M1094.6 1252.1 L1083.7 1206.6 M1118.5 1313.4 L1119.8 1248.5 M1119.8 1248.5 L1096.4 1202.5 M1119.8 1248.5 L1120.8 1198.5 M1119.8 1248.5 L1134.2 1204.0 M1143.1 1395.3 L1152.6 1313.5 M1152.6 1313.5 L1134.5 1251.7 M1134.5 1251.7 L1108.4 1210.5 M1134.5 1251.7 L1131.7 1202.4 M1152.6 1313.5 L1162.4 1250.9 M1162.4 1250.9 L1159.2 1205.1 M1162.4 1250.9 L1177.1 1205.3 M1152.6 1313.5 L1181.9 1254.7 M1181.9 1254.7 L1192.4 1209.7 M1181.9 1254.7 L1208.8 1215.0 M1143.1 1395.3 L1180.0 1316.2 M1180.0 1316.2 L1196.1 1250.2 M1196.1 1250.2 L1196.9 1198.6 M1196.1 1250.2 L1218.7 1203.2 M1180.0 1316.2 L1221.6 1269.3 M1221.6 1269.3 L1246.9 1228.2 M1221.6 1269.3 L1262.6 1242.3 M1165.0 1658.9 L1227.2 1506.4 M1227.2 1506.4 L1251.7 1383.7 M1251.7 1383.7 L1225.8 1292.2 M1225.8 1292.2 L1174.1 1242.0 M1174.1 1242.0 L1126.2 1219.0 M1174.1 1242.0 L1135.9 1208.0 M1174.1 1242.0 L1155.4 1189.4 M1225.8 1292.2 L1206.2 1224.0 M1206.2 1224.0 L1169.6 1189.4 M1206.2 1224.0 L1191.3 1169.3 M1206.2 1224.0 L1217.2 1175.2 M1225.8 1292.2 L1235.0 1223.7 M1235.0 1223.7 L1218.7 1178.1 M1235.0 1223.7 L1238.3 1173.8 M1235.0 1223.7 L1270.0 1189.0 M1251.7 1383.7 L1269.1 1291.6 M1269.1 1291.6 L1254.8 1221.2 M1254.8 1221.2 L1227.8 1176.6 M1254.8 1221.2 L1256.2 1166.6 M1269.1 1291.6 L1282.4 1225.2 M1282.4 1225.2 L1273.0 1173.3 M1282.4 1225.2 L1295.3 1177.5 M1282.4 1225.2 L1311.1 1181.1 M1269.1 1291.6 L1317.5 1237.2 M1317.5 1237.2 L1338.0 1188.9 M1317.5 1237.2 L1358.2 1196.2 M1317.5 1237.2 L1371.4 1220.2 M1251.7 1383.7 L1313.5 1317.3 M1313.5 1317.3 L1354.7 1265.1 M1354.7 1265.1 L1373.5 1219.3 M1354.7 1265.1 L1391.2 1234.9 M1313.5 1317.3 L1368.1 1272.1 M1368.1 1272.1 L1397.9 1227.4 M1368.1 1272.1 L1412.1 1241.5 M1368.1 1272.1 L1421.4 1257.4 M1227.2 1506.4 L1311.2 1418.8 M1311.2 1418.8 L1336.2 1326.8 M1336.2 1326.8 L1320.3 1260.2 M1320.3 1260.2 L1294.6 1212.4 M1320.3 1260.2 L1316.3 1210.8 M1336.2 1326.8 L1353.9 1258.4 M1353.9 1258.4 L1348.2 1204.5 M1353.9 1258.4 L1374.5 1208.8 M1336.2 1326.8 L1386.6 1272.7 M1386.6 1272.7 L1407.4 1223.0 M1386.6 1272.7 L1425.3 1234.8 M1386.6 1272.7 L1437.2 1246.4 M1311.2 1418.8 L1373.9 1345.4 M1373.9 1345.4 L1403.0 1277.5 M1403.0 1277.5 L1392.9 1219.3 M1403.0 1277.5 L1427.7 1224.0 M1403.0 1277.5 L1447.1 1245.2 M1373.9 1345.4 L1438.1 1304.6 M1438.1 1304.6 L1470.9 1259.8 M1438.1 1304.6 L1488.9 1288.4 M1311.2 1418.8 L1400.4 1404.4 M1400.4 1404.4 L1456.4 1372.0 M1456.4 1372.0 L1483.5 1335.5 M1456.4 1372.0 L1498.4 1348.3 M1456.4 1372.0 L1505.4 1365.6 M1400.4 1404.4 L1466.7 1411.1 M1466.7 1411.1 L1519.3 1407.7 M1466.7 1411.1 L1516.2 1425.1 M1128.7 1868.1 L1268.0 1709.8 M1268.0 1709.8 L1333.6 1564.2 M1333.6 1564.2 L1319.2 1446.8 M1319.2 1446.8 L1276.5 1373.4 M1276.5 1373.4 L1237.6 1326.2 M1237.6 1326.2 L1200.3 1299.9 M1237.6 1326.2 L1214.0 1286.0 M1276.5 1373.4 L1254.8 1315.0 M1254.8 1315.0 L1225.3 1275.2 M1254.8 1315.0 L1249.2 1266.8 M1319.2 1446.8 L1306.9 1360.0 M1306.9 1360.0 L1263.8 1308.1 M1263.8 1308.1 L1219.3 1283.9 M1263.8 1308.1 L1230.1 1270.4 M1263.8 1308.1 L1250.1 1256.3 M1306.9 1360.0 L1297.8 1295.1 M1297.8 1295.1 L1272.1 1253.9 M1297.8 1295.1 L1287.7 1248.4 M1297.8 1295.1 L1310.4 1249.0 M1306.9 1360.0 L1340.9 1301.1 M1340.9 1301.1 L1355.6 1253.7 M1340.9 1301.1 L1374.4 1261.1 M1319.2 1446.8 L1343.3 1364.9 M1343.3 1364.9 L1335.6 1303.0 M1335.6 1303.0 L1315.6 1261.8 M1335.6 1303.0 L1345.4 1257.7 M1343.3 1364.9 L1362.2 1307.7 M1362.2 1307.7 L1359.3 1262.0 M1362.2 1307.7 L1382.9 1270.2 M1343.3 1364.9 L1388.2 1319.3 M1388.2 1319.3 L1406.2 1271.5 M1388.2 1319.3 L1420.9 1285.1 M1388.2 1319.3 L1429.6 1297.9 M1333.6 1564.2 L1385.1 1459.1 M1385.1 1459.1 L1414.7 1376.2 M1414.7 1376.2 L1422.3 1311.0 M1422.3 1311.0 L1417.1 1262.2 M1422.3 1311.0 L1444.0 1267.6 M1414.7 1376.2 L1443.0 1315.6 M1443.0 1315.6 L1459.1 1269.0 M1443.0 1315.6 L1469.3 1276.7 M1385.1 1459.1 L1449.3 1401.7 M1449.3 1401.7 L1475.3 1338.1 M1475.3 1338.1 L1461.4 1287.2 M1475.3 1338.1 L1498.7 1289.0 M1475.3 1338.1 L1517.0 1311.7 M1449.3 1401.7 L1495.8 1353.0 M1495.8 1353.0 L1520.4 1310.5 M1495.8 1353.0 L1538.4 1325.6 M1449.3 1401.7 L1510.3 1374.1 M1510.3 1374.1 L1552.3 1342.7 M1510.3 1374.1 L1559.6 1363.4 M1333.6 1564.2 L1423.8 1484.0 M1423.8 1484.0 L1471.7 1402.7 M1471.7 1402.7 L1490.4 1336.9 M1490.4 1336.9 L1490.1 1284.3 M1490.4 1336.9 L1519.5 1291.8 M1471.7 1402.7 L1514.5 1345.6 M1514.5 1345.6 L1530.0 1292.1 M1514.5 1345.6 L1555.0 1315.3 M1423.8 1484.0 L1500.7 1432.1 M1500.7 1432.1 L1538.7 1379.0 M1538.7 1379.0 L1556.3 1335.6 M1538.7 1379.0 L1578.9 1348.7 M1500.7 1432.1 L1567.1 1415.0 M1567.1 1415.0 L1605.7 1377.9 M1567.1 1415.0 L1614.4 1404.4 M1567.1 1415.0 L1616.9 1422.9 M1268.0 1709.8 L1393.3 1617.8 M1393.3 1617.8 L1422.8 1501.8 M1422.8 1501.8 L1426.1 1409.6 M1426.1 1409.6 L1396.5 1344.9 M1396.5 1344.9 L1356.7 1309.7 M1396.5 1344.9 L1377.9 1298.0 M1396.5 1344.9 L1401.8 1294.0 M1426.1 1409.6 L1427.8 1340.7 M1427.8 1340.7 L1405.1 1291.3 M1427.8 1340.7 L1428.2 1287.6 M1427.8 1340.7 L1454.5 1294.8 M1426.1 1409.6 L1456.0 1343.9 M1456.0 1343.9 L1447.2 1290.1 M1456.0 1343.9 L1481.1 1295.9 M1456.0 1343.9 L1500.8 1312.0 M1422.8 1501.8 L1464.2 1427.3 M1464.2 1427.3 L1478.8 1368.0 M1478.8 1368.0 L1469.0 1322.2 M1478.8 1368.0 L1491.0 1320.9 M1478.8 1368.0 L1506.0 1333.9 M1464.2 1427.3 L1510.1 1382.6 M1510.1 1382.6 L1538.5 1340.7 M1510.1 1382.6 L1552.6 1355.9 M1393.3 1617.8 L1489.2 1550.8 M1489.2 1550.8 L1549.8 1489.9 M1549.8 1489.9 L1578.6 1429.5 M1578.6 1429.5 L1579.8 1376.2 M1578.6 1429.5 L1599.3 1385.6 M1578.6 1429.5 L1616.6 1395.2 M1549.8 1489.9 L1594.6 1449.2 M1594.6 1449.2 L1622.9 1410.5 M1594.6 1449.2 L1633.4 1429.0 M1549.8 1489.9 L1611.0 1474.1 M1611.0 1474.1 L1645.1 1440.5 M1611.0 1474.1 L1660.4 1465.9 M1611.0 1474.1 L1657.4 1483.6 M1489.2 1550.8 L1572.3 1518.4 M1572.3 1518.4 L1621.0 1479.3 M1621.0 1479.3 L1649.9 1441.4 M1621.0 1479.3 L1665.9 1464.3 M1572.3 1518.4 L1631.6 1498.8 M1631.6 1498.8 L1664.5 1462.7 M1631.6 1498.8 L1677.2 1483.0 M1631.6 1498.8 L1680.4 1502.0 M1572.3 1518.4 L1639.2 1519.8 M1639.2 1519.8 L1686.3 1516.0 M1639.2 1519.8 L1688.2 1535.4 M1393.3 1617.8 L1501.5 1597.9 M1501.5 1597.9 L1583.1 1574.3 M1583.1 1574.3 L1636.4 1538.1 M1636.4 1538.1 L1665.3 1495.4 M1636.4 1538.1 L1684.0 1521.2 M1583.1 1574.3 L1643.4 1567.5 M1643.4 1567.5 L1680.2 1546.5 M1643.4 1567.5 L1686.3 1563.2 M1643.4 1567.5 L1688.1 1583.8 M1501.5 1597.9 L1583.2 1611.3 M1583.2 1611.3 L1641.6 1606.3 M1641.6 1606.3 L1680.5 1589.3 M1641.6 1606.3 L1685.2 1603.8 M1641.6 1606.3 L1680.9 1622.2 M1583.2 1611.3 L1634.6 1639.0 M1634.6 1639.0 L1676.9 1647.7 M1634.6 1639.0 L1667.2 1667.8 M1213.1 2556.8 L1132.7 2158.0 M1132.7 2158.0 L1026.3 1857.1 M1026.3 1857.1 L879.9 1663.2 M879.9 1663.2 L734.4 1552.3 M734.4 1552.3 L608.7 1516.6 M608.7 1516.6 L523.5 1555.8 M523.5 1555.8 L475.5 1602.9 M475.5 1602.9 L454.0 1648.8 M475.5 1602.9 L439.8 1637.9 M475.5 1602.9 L426.9 1617.0 M523.5 1555.8 L451.6 1575.2 M451.6 1575.2 L397.0 1595.6 M451.6 1575.2 L398.7 1581.2 M608.7 1516.6 L509.7 1487.3 M509.7 1487.3 L438.0 1513.3 M438.0 1513.3 L390.2 1545.1 M438.0 1513.3 L383.1 1523.7 M509.7 1487.3 L438.6 1459.4 M438.6 1459.4 L380.3 1461.4 M438.6 1459.4 L385.4 1443.0 M438.6 1459.4 L408.4 1410.0 M509.7 1487.3 L445.7 1444.5 M445.7 1444.5 L386.9 1427.0 M445.7 1444.5 L403.2 1401.0 M608.7 1516.6 L540.4 1445.4 M540.4 1445.4 L473.7 1411.5 M473.7 1411.5 L416.1 1398.7 M473.7 1411.5 L435.7 1367.1 M540.4 1445.4 L492.2 1392.2 M492.2 1392.2 L450.1 1361.5 M492.2 1392.2 L464.9 1344.0 M540.4 1445.4 L517.0 1373.4 M517.0 1373.4 L485.5 1327.5 M517.0 1373.4 L519.5 1313.8 M734.4 1552.3 L636.8 1466.0 M636.8 1466.0 L546.7 1420.5 M546.7 1420.5 L473.9 1395.4 M473.9 1395.4 L420.1 1389.9 M473.9 1395.4 L424.8 1371.5 M546.7 1420.5 L486.0 1373.2 M486.0 1373.2 L436.3 1351.5 M486.0 1373.2 L453.6 1321.8 M636.8 1466.0 L579.6 1387.0 M579.6 1387.0 L527.9 1340.9 M527.9 1340.9 L474.1 1328.0 M527.9 1340.9 L491.0 1302.1 M527.9 1340.9 L512.5 1294.6 M579.6 1387.0 L548.5 1319.4 M548.5 1319.4 L503.8 1289.7 M548.5 1319.4 L528.6 1266.4 M548.5 1319.4 L562.0 1261.8 M734.4 1552.3 L686.4 1423.0 M686.4 1423.0 L624.5 1335.1 M624.5 1335.1 L564.7 1284.4 M564.7 1284.4 L505.8 1277.7 M564.7 1284.4 L515.1 1247.3 M564.7 1284.4 L548.6 1230.0 M624.5 1335.1 L586.9 1258.3 M586.9 1258.3 L531.7 1221.3 M586.9 1258.3 L563.2 1199.3 M586.9 1258.3 L586.6 1197.8 M686.4 1423.0 L683.4 1314.8 M683.4 1314.8 L656.6 1243.3 M656.6 1243.3 L607.2 1210.1 M656.6 1243.3 L640.1 1190.7 M656.6 1243.3 L664.6 1187.6 M683.4 1314.8 L690.7 1238.7 M690.7 1238.7 L684.5 1182.4 M690.7 1238.7 L710.5 1187.9 M879.9 1663.2 L818.6 1494.8 M818.6 1494.8 L710.0 1415.2 M710.0 1415.2 L605.4 1405.1 M605.4 1405.1 L535.4 1436.7 M535.4 1436.7 L508.6 1489.2 M535.4 1436.7 L483.8 1457.8 M535.4 1436.7 L481.8 1442.1 M605.4 1405.1 L528.9 1392.0 M528.9 1392.0 L475.4 1418.5 M528.9 1392.0 L472.0 1387.5 M528.9 1392.0 L481.4 1361.5 M605.4 1405.1 L549.8 1351.5 M549.8 1351.5 L494.3 1325.1 M549.8 1351.5 L524.2 1302.9 M710.0 1415.2 L625.1 1349.9 M625.1 1349.9 L550.6 1329.3 M550.6 1329.3 L489.5 1325.4 M550.6 1329.3 L498.5 1307.1 M625.1 1349.9 L579.1 1286.0 M579.1 1286.0 L532.1 1252.8 M579.1 1286.0 L539.3 1238.6 M579.1 1286.0 L577.6 1225.8 M710.0 1415.2 L642.5 1334.4 M642.5 1334.4 L578.7 1284.0 M578.7 1284.0 L521.2 1262.0 M578.7 1284.0 L539.1 1234.7 M642.5 1334.4 L602.9 1271.0 M602.9 1271.0 L552.4 1246.1 M602.9 1271.0 L571.6 1227.8 M602.9 1271.0 L607.4 1212.5 M818.6 1494.8 L777.8 1366.8 M777.8 1366.8 L700.1 1311.5 M700.1 1311.5 L626.0 1293.7 M626.0 1293.7 L567.1 1299.2 M626.0 1293.7 L575.9 1270.9 M700.1 1311.5 L640.3 1269.3 M640.3 1269.3 L592.3 1245.4 M640.3 1269.3 L607.7 1227.1 M700.1 1311.5 L659.3 1254.0 M659.3 1254.0 L618.2 1222.4 M659.3 1254.0 L631.8 1206.9 M777.8 1366.8 L742.1 1277.2 M742.1 1277.2 L695.7 1216.0 M695.7 1216.0 L655.2 1176.8 M695.7 1216.0 L673.0 1164.8 M742.1 1277.2 L734.3 1203.3 M734.3 1203.3 L715.9 1152.8 M734.3 1203.3 L741.0 1150.2 M777.8 1366.8 L799.5 1269.3 M799.5 1269.3 L783.5 1191.8 M783.5 1191.8 L758.8 1141.2 M783.5 1191.8 L793.2 1136.2 M799.5 1269.3 L814.9 1199.3 M814.9 1199.3 L812.8 1147.3 M814.9 1199.3 L838.5 1148.4 M799.5 1269.3 L836.2 1202.7 M836.2 1202.7 L848.5 1149.1 M836.2 1202.7 L875.2 1156.5 M818.6 1494.8 L829.0 1364.3 M829.0 1364.3 L780.4 1275.8 M780.4 1275.8 L723.4 1218.8 M723.4 1218.8 L664.0 1194.7 M723.4 1218.8 L681.4 1180.0 M723.4 1218.8 L712.5 1159.9 M780.4 1275.8 L755.9 1204.9 M755.9 1204.9 L722.4 1155.8 M755.9 1204.9 L746.2 1148.3 M829.0 1364.3 L829.5 1266.3 M829.5 1266.3 L817.3 1193.1 M817.3 1193.1 L792.8 1139.4 M817.3 1193.1 L817.6 1138.4 M829.5 1266.3 L837.9 1193.1 M837.9 1193.1 L817.4 1139.3 M837.9 1193.1 L844.5 1134.7 M837.9 1193.1 L869.6 1151.9 M829.0 1364.3 L872.8 1269.2 M872.8 1269.2 L876.2 1185.9 M876.2 1185.9 L861.0 1128.7 M876.2 1185.9 L890.8 1121.8 M872.8 1269.2 L916.3 1201.2 M916.3 1201.2 L932.1 1145.8 M916.3 1201.2 L953.1 1157.4 M1026.3 1857.1 L999.0 1624.4 M999.0 1624.4 L958.5 1464.3 M958.5 1464.3 L896.5 1360.9 M896.5 1360.9 L820.9 1320.5 M820.9 1320.5 L761.4 1298.2 M761.4 1298.2 L711.9 1287.3 M761.4 1298.2 L719.3 1274.0 M820.9 1320.5 L773.9 1272.9 M773.9 1272.9 L730.2 1245.8 M773.9 1272.9 L747.2 1234.0 M896.5 1360.9 L852.3 1283.6 M852.3 1283.6 L809.1 1236.5 M809.1 1236.5 L761.4 1219.7 M809.1 1236.5 L776.6 1197.8 M809.1 1236.5 L799.3 1187.2 M852.3 1283.6 L824.0 1218.9 M824.0 1218.9 L789.8 1178.9 M824.0 1218.9 L814.3 1167.8 M896.5 1360.9 L887.7 1270.0 M887.7 1270.0 L847.7 1218.9 M847.7 1218.9 L808.5 1194.8 M847.7 1218.9 L820.8 1177.7 M847.7 1218.9 L836.8 1168.7 M887.7 1270.0 L879.2 1202.9 M879.2 1202.9 L859.5 1154.7 M879.2 1202.9 L885.6 1153.9 M887.7 1270.0 L922.7 1210.5 M922.7 1210.5 L933.6 1157.9 M922.7 1210.5 L957.0 1168.2 M958.5 1464.3 L958.5 1342.0 M958.5 1342.0 L928.7 1256.2 M928.7 1256.2 L871.9 1218.7 M871.9 1218.7 L823.7 1207.8 M871.9 1218.7 L825.6 1192.6 M871.9 1218.7 L843.2 1175.5 M928.7 1256.2 L911.3 1189.5 M911.3 1189.5 L889.4 1143.6 M911.3 1189.5 L915.6 1139.8 M928.7 1256.2 L929.1 1184.4 M929.1 1184.4 L917.0 1132.3 M929.1 1184.4 L939.4 1129.9 M958.5 1342.0 L957.4 1255.5 M957.4 1255.5 L942.6 1194.5 M942.6 1194.5 L917.0 1156.5 M942.6 1194.5 L939.3 1150.1 M957.4 1255.5 L970.7 1192.0 M970.7 1192.0 L960.5 1147.7 M970.7 1192.0 L978.4 1141.2 M970.7 1192.0 L1000.5 1156.4 M958.5 1342.0 L1003.8 1259.3 M1003.8 1259.3 L1027.2 1196.1 M1027.2 1196.1 L1009.5 1145.9 M1027.2 1196.1 L1040.5 1148.6 M1027.2 1196.1 L1060.9 1161.6 M1003.8 1259.3 L1049.7 1210.2 M1049.7 1210.2 L1060.1 1159.4 M1049.7 1210.2 L1083.5 1176.1 M1049.7 1210.2 L1101.5 1196.6 M999.0 1624.4 L1003.1 1449.7 M1003.1 1449.7 L960.9 1319.5 M960.9 1319.5 L893.4 1250.5 M893.4 1250.5 L833.2 1219.7 M833.2 1219.7 L786.2 1211.1 M833.2 1219.7 L794.7 1187.5 M893.4 1250.5 L854.7 1185.8 M854.7 1185.8 L814.6 1145.6 M854.7 1185.8 L840.7 1134.2 M960.9 1319.5 L936.5 1215.2 M936.5 1215.2 L900.5 1139.5 M900.5 1139.5 L848.3 1107.9 M900.5 1139.5 L878.2 1079.7 M900.5 1139.5 L903.3 1079.7 M936.5 1215.2 L931.3 1134.0 M931.3 1134.0 L901.1 1078.5 M931.3 1134.0 L929.9 1070.1 M931.3 1134.0 L963.3 1079.8 M960.9 1319.5 L983.4 1219.2 M983.4 1219.2 L988.1 1139.8 M988.1 1139.8 L972.4 1082.5 M988.1 1139.8 L991.7 1079.0 M988.1 1139.8 L1014.0 1089.1 M983.4 1219.2 L1016.6 1149.0 M1016.6 1149.0 L1025.1 1093.8 M1016.6 1149.0 L1053.6 1102.8 M1003.1 1449.7 L994.3 1314.8 M994.3 1314.8 L965.8 1217.5 M965.8 1217.5 L929.5 1152.7 M929.5 1152.7 L889.6 1113.1 M929.5 1152.7 L918.5 1097.7 M965.8 1217.5 L953.8 1142.2 M953.8 1142.2 L922.5 1097.0 M953.8 1142.2 L946.6 1082.5 M953.8 1142.2 L959.5 1089.0 M994.3 1314.8 L1006.0 1213.3 M1006.0 1213.3 L976.7 1137.8 M976.7 1137.8 L943.4 1086.5 M976.7 1137.8 L975.5 1077.6 M1006.0 1213.3 L1015.5 1142.1 M1015.5 1142.1 L1011.5 1091.7 M1015.5 1142.1 L1036.4 1089.8 M1006.0 1213.3 L1044.5 1146.1 M1044.5 1146.1 L1047.4 1089.9 M1044.5 1146.1 L1073.2 1098.3 M1044.5 1146.1 L1093.9 1115.9 M1003.1 1449.7 L1089.4 1343.0 M1089.4 1343.0 L1112.4 1238.2 M1112.4 1238.2 L1099.1 1161.1 M1099.1 1161.1 L1069.4 1106.2 M1099.1 1161.1 L1097.0 1101.6 M1112.4 1238.2 L1135.5 1162.3 M1135.5 1162.3 L1136.4 1099.2 M1135.5 1162.3 L1163.7 1111.9 M1112.4 1238.2 L1167.8 1181.4 M1167.8 1181.4 L1197.4 1132.2 M1167.8 1181.4 L1218.8 1150.3 M1089.4 1343.0 L1144.1 1262.4 M1144.1 1262.4 L1164.3 1193.3 M1164.3 1193.3 L1161.6 1141.3 M1164.3 1193.3 L1175.1 1140.0 M1164.3 1193.3 L1199.5 1149.3 M1144.1 1262.4 L1182.0 1201.3 M1182.0 1201.3 L1190.1 1150.7 M1182.0 1201.3 L1209.7 1156.8 M1182.0 1201.3 L1223.3 1171.9 M1144.1 1262.4 L1214.5 1231.9 M1214.5 1231.9 L1263.5 1202.1 M1214.5 1231.9 L1271.6 1224.6 M1089.4 1343.0 L1185.2 1289.6 M1185.2 1289.6 L1229.5 1216.1 M1229.5 1216.1 L1238.9 1153.9 M1229.5 1216.1 L1259.9 1158.9 M1229.5 1216.1 L1277.8 1180.5 M1185.2 1289.6 L1260.5 1254.4 M1260.5 1254.4 L1304.4 1208.5 M1260.5 1254.4 L1315.0 1224.3 M1260.5 1254.4 L1326.0 1252.1 M1185.2 1289.6 L1262.9 1276.8 M1262.9 1276.8 L1311.8 1241.2 M1262.9 1276.8 L1320.0 1271.5 M1262.9 1276.8 L1322.0 1291.2 M1132.7 2158.0 L1133.0 1870.6 M1133.0 1870.6 L1075.9 1652.0 M1075.9 1652.0 L960.1 1534.1 M960.1 1534.1 L864.3 1463.9 M864.3 1463.9 L781.7 1429.4 M781.7 1429.4 L713.2 1419.3 M713.2 1419.3 L662.1 1429.9 M713.2 1419.3 L664.2 1416.5 M713.2 1419.3 L669.9 1397.0 M781.7 1429.4 L729.5 1385.8 M729.5 1385.8 L685.6 1362.1 M729.5 1385.8 L699.8 1340.5 M864.3 1463.9 L804.1 1396.4 M804.1 1396.4 L746.5 1362.5 M746.5 1362.5 L699.5 1356.9 M746.5 1362.5 L703.9 1333.1 M746.5 1362.5 L715.9 1324.8 M804.1 1396.4 L764.1 1340.9 M764.1 1340.9 L729.5 1303.6 M764.1 1340.9 L739.5 1294.2 M960.1 1534.1 L893.4 1422.8 M893.4 1422.8 L824.0 1352.9 M824.0 1352.9 L760.3 1323.4 M760.3 1323.4 L710.5 1311.4 M760.3 1323.4 L715.5 1291.3 M824.0 1352.9 L788.8 1290.0 M788.8 1290.0 L743.6 1257.7 M788.8 1290.0 L762.8 1240.1 M788.8 1290.0 L784.8 1236.4 M893.4 1422.8 L857.0 1326.1 M857.0 1326.1 L799.2 1273.8 M799.2 1273.8 L748.5 1246.9 M799.2 1273.8 L768.2 1220.2 M857.0 1326.1 L836.0 1252.9 M836.0 1252.9 L798.7 1211.6 M836.0 1252.9 L822.7 1200.0 M836.0 1252.9 L842.7 1198.0 M857.0 1326.1 L865.0 1244.5 M865.0 1244.5 L840.2 1187.8 M865.0 1244.5 L869.6 1186.2 M865.0 1244.5 L901.9 1199.1 M1075.9 1652.0 L1035.2 1484.8 M1035.2 1484.8 L962.2 1384.0 M962.2 1384.0 L880.8 1338.5 M880.8 1338.5 L809.3 1342.2 M809.3 1342.2 L755.3 1361.1 M809.3 1342.2 L754.5 1331.0 M880.8 1338.5 L818.9 1303.0 M818.9 1303.0 L770.8 1286.6 M818.9 1303.0 L782.9 1259.0 M880.8 1338.5 L838.4 1286.2 M838.4 1286.2 L797.8 1254.5 M838.4 1286.2 L821.1 1239.7 M962.2 1384.0 L906.7 1313.1 M906.7 1313.1 L861.6 1265.7 M861.6 1265.7 L822.4 1238.0 M861.6 1265.7 L838.0 1223.6 M906.7 1313.1 L872.6 1257.7 M872.6 1257.7 L838.4 1225.5 M872.6 1257.7 L862.4 1207.7 M962.2 1384.0 L952.8 1294.9 M952.8 1294.9 L936.1 1231.2 M936.1 1231.2 L907.2 1194.3 M936.1 1231.2 L927.8 1184.9 M936.1 1231.2 L943.0 1181.1 M952.8 1294.9 L961.0 1224.2 M961.0 1224.2 L953.1 1174.5 M961.0 1224.2 L976.2 1173.4 M1035.2 1484.8 L1044.3 1364.3 M1044.3 1364.3 L1023.2 1278.2 M1023.2 1278.2 L993.0 1221.8 M993.0 1221.8 L961.0 1188.0 M993.0 1221.8 L979.4 1173.6 M1023.2 1278.2 L1016.9 1213.4 M1016.9 1213.4 L994.9 1170.3 M1016.9 1213.4 L1013.7 1165.2 M1016.9 1213.4 L1034.5 1165.4 M1044.3 1364.3 L1056.6 1270.3 M1056.6 1270.3 L1031.5 1206.1 M1031.5 1206.1 L994.2 1171.1 M1031.5 1206.1 L1011.4 1160.7 M1031.5 1206.1 L1036.8 1152.8 M1056.6 1270.3 L1065.0 1196.4 M1065.0 1196.4 L1052.8 1141.2 M1065.0 1196.4 L1070.4 1137.5 M1065.0 1196.4 L1091.6 1145.6 M1056.6 1270.3 L1088.5 1212.1 M1088.5 1212.1 L1088.2 1162.6 M1088.5 1212.1 L1112.9 1169.1 M1088.5 1212.1 L1126.0 1178.9 M1044.3 1364.3 L1092.4 1291.9 M1092.4 1291.9 L1120.9 1233.8 M1120.9 1233.8 L1120.7 1187.3 M1120.9 1233.8 L1144.5 1191.5 M1120.9 1233.8 L1156.3 1202.7 M1092.4 1291.9 L1141.1 1248.4 M1141.1 1248.4 L1166.6 1204.9 M1141.1 1248.4 L1183.4 1230.3 M1075.9 1652.0 L1093.0 1489.2 M1093.0 1489.2 L1082.5 1367.7 M1082.5 1367.7 L1052.9 1281.2 M1052.9 1281.2 L1016.7 1221.8 M1016.7 1221.8 L977.8 1183.5 M1016.7 1221.8 L997.3 1176.7 M1052.9 1281.2 L1050.6 1211.5 M1050.6 1211.5 L1034.8 1158.6 M1050.6 1211.5 L1062.2 1157.4 M1082.5 1367.7 L1090.0 1277.9 M1090.0 1277.9 L1076.8 1213.6 M1076.8 1213.6 L1049.1 1172.4 M1076.8 1213.6 L1065.7 1167.4 M1076.8 1213.6 L1094.8 1166.4 M1090.0 1277.9 L1119.3 1213.7 M1119.3 1213.7 L1122.8 1161.4 M1119.3 1213.7 L1153.8 1173.3 M1093.0 1489.2 L1118.5 1377.4 M1118.5 1377.4 L1101.6 1297.5 M1101.6 1297.5 L1074.2 1246.2 M1074.2 1246.2 L1048.6 1210.7 M1074.2 1246.2 L1056.3 1203.7 M1101.6 1297.5 L1085.3 1239.7 M1085.3 1239.7 L1058.4 1206.4 M1085.3 1239.7 L1074.0 1198.7 M1085.3 1239.7 L1086.9 1192.0 M1101.6 1297.5 L1116.0 1237.4 M1116.0 1237.4 L1114.7 1191.3 M1116.0 1237.4 L1130.4 1196.3 M1118.5 1377.4 L1142.0 1300.1 M1142.0 1300.1 L1145.5 1242.2 M1145.5 1242.2 L1135.4 1199.4 M1145.5 1242.2 L1163.6 1202.7 M1142.0 1300.1 L1171.2 1246.2 M1171.2 1246.2 L1176.7 1201.0 M1171.2 1246.2 L1197.3 1206.5 M1171.2 1246.2 L1205.9 1217.2 M1118.5 1377.4 L1172.4 1313.9 M1172.4 1313.9 L1205.8 1265.8 M1205.8 1265.8 L1226.6 1227.1 M1205.8 1265.8 L1241.3 1235.5 M1172.4 1313.9 L1223.7 1276.9 M1223.7 1276.9 L1252.6 1236.5 M1223.7 1276.9 L1267.3 1259.1 M1133.0 1870.6 L1118.2 1655.7 M1118.2 1655.7 L1041.9 1509.5 M1041.9 1509.5 L959.4 1412.7 M959.4 1412.7 L883.5 1350.6 M883.5 1350.6 L807.7 1343.9 M807.7 1343.9 L750.3 1358.3 M807.7 1343.9 L751.9 1321.2 M883.5 1350.6 L826.3 1300.6 M826.3 1300.6 L779.0 1275.8 M826.3 1300.6 L797.0 1250.5 M883.5 1350.6 L846.3 1290.8 M846.3 1290.8 L803.5 1263.8 M846.3 1290.8 L820.7 1245.1 M846.3 1290.8 L837.9 1239.6 M959.4 1412.7 L909.7 1324.8 M909.7 1324.8 L856.5 1267.3 M856.5 1267.3 L807.9 1236.1 M856.5 1267.3 L824.6 1214.3 M909.7 1324.8 L887.8 1254.4 M887.8 1254.4 L866.0 1202.2 M887.8 1254.4 L885.0 1196.4 M1041.9 1509.5 L1009.7 1387.6 M1009.7 1387.6 L971.1 1305.2 M971.1 1305.2 L933.3 1249.9 M933.3 1249.9 L891.9 1219.1 M933.3 1249.9 L907.7 1208.7 M933.3 1249.9 L922.9 1204.2 M971.1 1305.2 L958.2 1240.1 M958.2 1240.1 L938.6 1191.3 M958.2 1240.1 L959.8 1190.6 M1009.7 1387.6 L996.0 1289.9 M996.0 1289.9 L951.1 1230.0 M951.1 1230.0 L910.6 1190.4 M951.1 1230.0 L934.5 1179.6 M996.0 1289.9 L991.0 1220.5 M991.0 1220.5 L963.0 1173.4 M991.0 1220.5 L987.7 1167.3 M991.0 1220.5 L1007.1 1173.6 M996.0 1289.9 L1019.4 1222.1 M1019.4 1222.1 L1003.9 1171.2 M1019.4 1222.1 L1040.2 1173.7 M1019.4 1222.1 L1056.9 1185.7 M1118.2 1655.7 L1103.3 1485.4 M1103.3 1485.4 L1022.7 1381.8 M1022.7 1381.8 L935.1 1326.0 M935.1 1326.0 L854.2 1328.6 M854.2 1328.6 L795.2 1342.9 M854.2 1328.6 L796.0 1315.0 M935.1 1326.0 L873.6 1280.0 M873.6 1280.0 L817.4 1271.4 M873.6 1280.0 L829.0 1241.4 M873.6 1280.0 L848.8 1226.3 M935.1 1326.0 L889.8 1265.5 M889.8 1265.5 L840.8 1245.1 M889.8 1265.5 L853.1 1221.1 M889.8 1265.5 L879.0 1207.3 M1022.7 1381.8 L988.7 1285.5 M988.7 1285.5 L943.0 1226.6 M943.0 1226.6 L899.8 1192.2 M943.0 1226.6 L918.3 1177.4 M988.7 1285.5 L985.3 1210.7 M985.3 1210.7 L974.9 1151.9 M985.3 1210.7 L995.7 1154.6 M1103.3 1485.4 L1087.7 1364.7 M1087.7 1364.7 L1040.3 1281.6 M1040.3 1281.6 L987.2 1240.2 M987.2 1240.2 L937.8 1233.0 M987.2 1240.2 L947.8 1206.6 M987.2 1240.2 L969.4 1189.7 M1040.3 1281.6 L1022.7 1215.6 M1022.7 1215.6 L993.8 1174.8 M1022.7 1215.6 L1023.2 1166.8 M1087.7 1364.7 L1074.4 1273.5 M1074.4 1273.5 L1044.8 1208.5 M1044.8 1208.5 L1012.1 1165.9 M1044.8 1208.5 L1030.1 1157.7 M1074.4 1273.5 L1064.1 1206.4 M1064.1 1206.4 L1045.4 1161.0 M1064.1 1206.4 L1069.0 1156.5 M1074.4 1273.5 L1094.3 1210.0 M1094.3 1210.0 L1094.5 1163.2 M1094.3 1210.0 L1111.9 1163.3 M1094.3 1210.0 L1125.0 1174.0 M1087.7 1364.7 L1124.0 1279.9 M1124.0 1279.9 L1132.2 1209.5 M1132.2 1209.5 L1123.7 1158.8 M1132.2 1209.5 L1145.2 1158.2 M1124.0 1279.9 L1158.2 1218.8 M1158.2 1218.8 L1168.8 1169.6 M1158.2 1218.8 L1184.6 1175.8 M1158.2 1218.8 L1202.4 1195.1 M1103.3 1485.4 L1142.6 1365.3 M1142.6 1365.3 L1144.3 1265.5 M1144.3 1265.5 L1133.2 1188.4 M1133.2 1188.4 L1101.4 1137.5 M1133.2 1188.4 L1122.8 1127.9 M1133.2 1188.4 L1157.0 1138.4 M1144.3 1265.5 L1164.0 1193.5 M1164.0 1193.5 L1150.2 1137.7 M1164.0 1193.5 L1177.0 1138.3 M1164.0 1193.5 L1211.0 1157.3 M1142.6 1365.3 L1185.3 1283.6 M1185.3 1283.6 L1194.9 1213.7 M1194.9 1213.7 L1177.5 1162.1 M1194.9 1213.7 L1201.8 1162.9 M1194.9 1213.7 L1229.8 1177.0 M1185.3 1283.6 L1213.6 1216.5 M1213.6 1216.5 L1223.1 1161.1 M1213.6 1216.5 L1249.6 1179.1 M1185.3 1283.6 L1245.0 1246.7 M1245.0 1246.7 L1281.4 1211.9 M1245.0 1246.7 L1293.2 1226.4 M1118.2 1655.7 L1162.3 1499.5 M1162.3 1499.5 L1129.6 1386.7 M1129.6 1386.7 L1086.8 1308.2 M1086.8 1308.2 L1038.2 1262.4 M1038.2 1262.4 L997.1 1239.9 M1038.2 1262.4 L1007.4 1218.9 M1086.8 1308.2 L1073.5 1245.8 M1073.5 1245.8 L1045.1 1204.6 M1073.5 1245.8 L1065.0 1198.5 M1073.5 1245.8 L1085.6 1196.9 M1129.6 1386.7 L1130.1 1300.4 M1130.1 1300.4 L1110.3 1241.0 M1110.3 1241.0 L1077.4 1211.8 M1110.3 1241.0 L1096.9 1196.8 M1110.3 1241.0 L1114.8 1195.4 M1130.1 1300.4 L1127.3 1239.2 M1127.3 1239.2 L1103.6 1198.4 M1127.3 1239.2 L1128.7 1195.5 M1127.3 1239.2 L1148.1 1198.7 M1130.1 1300.4 L1160.9 1244.3 M1160.9 1244.3 L1166.6 1199.1 M1160.9 1244.3 L1188.0 1201.7 M1160.9 1244.3 L1199.4 1216.3 M1162.3 1499.5 L1203.7 1380.1 M1203.7 1380.1 L1204.9 1284.6 M1204.9 1284.6 L1169.3 1225.3 M1169.3 1225.3 L1127.1 1198.4 M1169.3 1225.3 L1146.6 1179.6 M1169.3 1225.3 L1171.5 1176.8 M1204.9 1284.6 L1204.3 1208.7 M1204.3 1208.7 L1173.3 1159.9 M1204.3 1208.7 L1207.4 1150.4 M1204.3 1208.7 L1238.6 1165.2 M1204.9 1284.6 L1233.4 1217.3 M1233.4 1217.3 L1247.2 1166.8 M1233.4 1217.3 L1272.1 1174.2 M1203.7 1380.1 L1227.1 1287.1 M1227.1 1287.1 L1215.7 1219.8 M1215.7 1219.8 L1184.2 1183.1 M1215.7 1219.8 L1205.7 1172.0 M1215.7 1219.8 L1236.7 1169.6 M1227.1 1287.1 L1247.2 1219.0 M1247.2 1219.0 L1245.0 1163.0 M1247.2 1219.0 L1274.7 1170.6 M1227.1 1287.1 L1267.7 1224.7 M1267.7 1224.7 L1272.2 1171.9 M1267.7 1224.7 L1302.3 1177.4 M1267.7 1224.7 L1319.0 1200.9 M1203.7 1380.1 L1268.1 1305.3 M1268.1 1305.3 L1306.3 1242.9 M1306.3 1242.9 L1305.1 1187.0 M1306.3 1242.9 L1334.3 1199.4 M1306.3 1242.9 L1353.8 1216.0 M1268.1 1305.3 L1326.7 1254.8 M1326.7 1254.8 L1364.7 1214.2 M1326.7 1254.8 L1381.8 1229.0 M1162.3 1499.5 L1241.5 1406.0 M1241.5 1406.0 L1276.6 1315.0 M1276.6 1315.0 L1285.3 1237.5 M1285.3 1237.5 L1268.4 1181.6 M1285.3 1237.5 L1287.6 1177.2 M1285.3 1237.5 L1324.8 1189.2 M1276.6 1315.0 L1315.3 1252.4 M1315.3 1252.4 L1316.0 1199.5 M1315.3 1252.4 L1344.8 1201.7 M1315.3 1252.4 L1357.7 1215.1 M1241.5 1406.0 L1299.2 1333.1 M1299.2 1333.1 L1327.5 1266.2 M1327.5 1266.2 L1334.6 1215.1 M1327.5 1266.2 L1359.0 1225.6 M1299.2 1333.1 L1355.3 1294.4 M1355.3 1294.4 L1391.0 1257.1 M1355.3 1294.4 L1400.8 1278.0 M1241.5 1406.0 L1328.4 1370.0 M1328.4 1370.0 L1388.0 1326.1 M1388.0 1326.1 L1423.8 1285.5 M1388.0 1326.1 L1437.6 1311.0 M1328.4 1370.0 L1393.2 1355.9 M1393.2 1355.9 L1430.8 1326.3 M1393.2 1355.9 L1439.0 1343.8 M1393.2 1355.9 L1440.2 1365.8 M1133.0 1870.6 L1269.7 1687.9 M1269.7 1687.9 L1324.3 1516.2 M1324.3 1516.2 L1333.5 1378.7 M1333.5 1378.7 L1316.9 1281.4 M1316.9 1281.4 L1283.9 1219.2 M1283.9 1219.2 L1248.3 1176.4 M1283.9 1219.2 L1276.8 1167.7 M1316.9 1281.4 L1332.0 1204.6 M1332.0 1204.6 L1331.1 1148.4 M1332.0 1204.6 L1349.9 1150.0 M1333.5 1378.7 L1355.3 1278.3 M1355.3 1278.3 L1356.0 1200.4 M1356.0 1200.4 L1330.1 1145.3 M1356.0 1200.4 L1360.5 1144.7 M1356.0 1200.4 L1383.4 1149.2 M1355.3 1278.3 L1391.5 1211.6 M1391.5 1211.6 L1409.7 1161.0 M1391.5 1211.6 L1433.6 1170.8 M1324.3 1516.2 L1398.0 1400.8 M1398.0 1400.8 L1427.8 1304.4 M1427.8 1304.4 L1441.2 1225.1 M1441.2 1225.1 L1429.7 1164.4 M1441.2 1225.1 L1468.3 1167.5 M1427.8 1304.4 L1469.1 1245.0 M1469.1 1245.0 L1472.5 1188.4 M1469.1 1245.0 L1501.7 1204.3 M1469.1 1245.0 L1520.3 1225.4 M1398.0 1400.8 L1477.9 1330.8 M1477.9 1330.8 L1514.7 1263.2 M1514.7 1263.2 L1530.5 1204.7 M1514.7 1263.2 L1548.5 1218.0 M1477.9 1330.8 L1536.3 1278.8 M1536.3 1278.8 L1561.3 1227.8 M1536.3 1278.8 L1580.6 1234.8 M1536.3 1278.8 L1591.4 1270.4 M1477.9 1330.8 L1553.1 1305.2 M1553.1 1305.2 L1590.0 1259.2 M1553.1 1305.2 L1612.6 1290.2 M1553.1 1305.2 L1614.9 1309.1 M1269.7 1687.9 L1415.7 1582.3 M1415.7 1582.3 L1500.3 1480.2 M1500.3 1480.2 L1541.9 1387.1 M1541.9 1387.1 L1556.8 1313.8 M1556.8 1313.8 L1556.2 1260.3 M1556.8 1313.8 L1584.2 1265.8 M1541.9 1387.1 L1592.9 1330.5 M1592.9 1330.5 L1620.3 1284.4 M1592.9 1330.5 L1640.0 1302.0 M1500.3 1480.2 L1585.4 1420.4 M1585.4 1420.4 L1621.0 1351.3 M1621.0 1351.3 L1632.2 1291.1 M1621.0 1351.3 L1644.2 1297.5 M1621.0 1351.3 L1664.8 1315.4 M1585.4 1420.4 L1646.0 1379.6 M1646.0 1379.6 L1684.5 1338.3 M1646.0 1379.6 L1697.6 1359.6 M1585.4 1420.4 L1664.7 1397.1 M1664.7 1397.1 L1705.4 1349.7 M1664.7 1397.1 L1722.7 1377.7 M1664.7 1397.1 L1723.4 1417.6 M1415.7 1582.3 L1531.6 1532.0 M1531.6 1532.0 L1597.5 1472.1 M1597.5 1472.1 L1630.4 1415.8 M1630.4 1415.8 L1641.8 1365.6 M1630.4 1415.8 L1667.8 1382.2 M1597.5 1472.1 L1654.0 1430.1 M1654.0 1430.1 L1688.5 1388.0 M1654.0 1430.1 L1701.6 1408.7 M1531.6 1532.0 L1615.2 1497.2 M1615.2 1497.2 L1665.4 1455.1 M1665.4 1455.1 L1685.6 1413.9 M1665.4 1455.1 L1702.9 1426.1 M1665.4 1455.1 L1712.0 1445.7 M1615.2 1497.2 L1674.1 1467.1 M1674.1 1467.1 L1710.8 1432.2 M1674.1 1467.1 L1716.5 1446.0 M1674.1 1467.1 L1724.7 1472.0 M1615.2 1497.2 L1685.2 1497.2 M1685.2 1497.2 L1735.1 1487.8 M1685.2 1497.2 L1735.3 1508.5 M1531.6 1532.0 L1626.5 1534.8 M1626.5 1534.8 L1689.8 1493.3 M1689.8 1493.3 L1728.8 1452.2 M1689.8 1493.3 L1740.0 1475.1 M1626.5 1534.8 L1699.5 1537.8 M1699.5 1537.8 L1748.3 1520.6 M1699.5 1537.8 L1753.4 1555.3 M1626.5 1534.8 L1688.1 1565.8 M1688.1 1565.8 L1736.2 1561.6 M1688.1 1565.8 L1736.6 1591.2 M1688.1 1565.8 L1716.5 1608.9"/>
  </g>
  <text x="152" y="599" text-anchor="start" font-family="Fraunces Display" font-size="253" fill="#ECE3D1" letter-spacing="-1.27"><tspan x="152" dy="0">Nature</tspan><tspan x="152" dy="228">of</tspan><tspan x="152" dy="228">Product</tspan></text>
  <line x1="152" y1="1161" x2="312" y2="1161" stroke="#B5894F" stroke-width="2"/>
  <text x="152" y="1242" text-anchor="start" font-family="Fraunces Text" font-size="49" fill="#B5894F" opacity="1" letter-spacing="0.49"><tspan x="152" dy="0">How to Build Products So Valuable</tspan><tspan x="152" dy="70">They Look Like Magic</tspan></text>
  <text x="152" y="2408" text-anchor="start" font-family="Fraunces Text Medium" font-size="38" fill="#ECE3D1" opacity="0.66" letter-spacing="5.32">IVAN ZAMESIN</text>
</svg>