<svg xmlns="http://www.w3.org/2000/svg" width="1600" height="2560" viewBox="0 0 1600 2560">
  <defs><filter id="gd-C1"><feGaussianBlur stdDeviation="19"/></filter><radialGradient id="lp-C1" cx="50%" cy="50%" r="50%">
    <stop offset="0%" stop-color="#65635f" stop-opacity="0.4"/>
    <stop offset="100%" stop-color="#65635f" stop-opacity="0"/>
  </radialGradient></defs>
  <rect width="1600" height="2560" fill="#15120D"/>
  <g filter="url(#gd-C1)" opacity="0.9"><rect x="0.0" y="0.0" width="1600.0" height="1600.0" fill="#17140f"/><rect x="640.0" y="1600.0" width="960.0" height="960.0" fill="#181510"/><rect x="0.0" y="1600.0" width="640.0" height="640.0" fill="#1a1712"/><rect x="320.0" y="2240.0" width="320.0" height="320.0" fill="#1b1813"/><rect x="0.0" y="2240.0" width="320.0" height="320.0" fill="#1d1a15"/><rect x="320.0" y="2560.0" width="0.0" height="0.0" fill="#1e1b17"/><rect x="320.0" y="2240.0" width="0.0" height="0.0" fill="#201d18"/><rect x="320.0" y="2560.0" width="0.0" height="0.0" fill="#211f1a"/><rect x="320.0" y="2240.0" width="0.0" height="0.0" fill="#23201c"/></g><ellipse cx="480" cy="768" rx="1120" ry="1152" fill="url(#lp-C1)"/>
  <text x="152" y="599" text-anchor="start" font-family="Fraunces Display" font-size="253" fill="#ECE3D1" letter-spacing="-1.27"><tspan x="152" dy="0">Nature</tspan><tspan x="152" dy="228">of</tspan><tspan x="152" dy="228">Product</tspan></text>
  <line x1="152" y1="1161" x2="312" y2="1161" stroke="#B5894F" stroke-width="2"/>
  <text x="152" y="1242" text-anchor="start" font-family="Fraunces Text" font-size="49" fill="#B5894F" opacity="1" letter-spacing="0.49"><tspan x="152" dy="0">How to Build Products So Valuable</tspan><tspan x="152" dy="70">They Look Like Magic</tspan></text>
  <text x="152" y="2408" text-anchor="start" font-family="Fraunces Text Medium" font-size="38" fill="#ECE3D1" opacity="0.66" letter-spacing="5.32">IVAN ZAMESIN</text>
</svg>